<svg height="512pt" viewBox="-65 0 512 512.001" width="512pt" xmlns="http://www.w3.org/2000/svg"><path d="m189.566406 7.707031c-45.058594 0-82.917968 30.796875-93.683594 72.488281-1.976562 9.136719-3.066406 18.757813-3.066406 28.710938v132.019531c0 7.085938 5.742188 12.828125 12.828125 12.828125h167.851563c7.082031 0 12.824218-5.742187 12.824218-12.828125 0-146.097656.90625-142.359375-3.066406-160.730469-7.589844-35.085937-43.75-72.488281-93.6875-72.488281zm0 0" fill="#525468"/><path d="m113.109375 240.925781v-132.019531c0-9.953125 1.09375-19.578125 3.070313-28.710938 9.949218-38.527343 43.042968-67.734374 83.566406-71.945312-3.324219-.347656-6.71875-.542969-10.179688-.542969-45.058594 0-82.917968 30.796875-93.683594 72.488281-1.976562 9.132813-3.070312 18.757813-3.070312 28.710938v132.019531c0 7.085938 5.746094 12.828125 12.828125 12.828125h20.296875c-7.082031 0-12.828125-5.742187-12.828125-12.828125zm0 0" fill="#3e4151"/><path d="m121.355469 153.375v31.207031c0 .5.027343.996094.039062 1.492188-18.339843 3.515625-35.613281-11.664063-35.613281-28.445313 0-.921875.054688-1.828125.144531-2.722656zm0 0" fill="#e8956b"/><path d="m121.355469 181.253906c-9.238281-5.898437-15.574219-15.976562-15.574219-26.65625 0-.183594.011719-.367187.015625-.550781l-19.875.859375c-.089844.894531-.140625 1.804688-.140625 2.722656 0 16.78125 17.273438 31.960938 35.613281 28.449219-.011719-.5-.039062-.992187-.039062-1.496094zm0 0" fill="#db845e"/><path d="m257.738281 153.375v31.207031c0 .5-.027343.996094-.039062 1.492188 18.34375 3.515625 35.613281-11.664063 35.613281-28.445313 0-.921875-.050781-1.828125-.140625-2.722656zm0 0" fill="#e8956b"/><path d="m279.777344 154.328125-22.039063-.953125v31.207031c0 .503907-.027343.996094-.039062 1.496094 8.015625 1.535156 15.824219-.5 22.078125-4.675781zm0 0" fill="#db845e"/><path d="m190.566406 250.753906c-15.277344 0-28.695312-4.214844-39.652344-11.253906v35.75l39.632813 48.917969 39.628906-48.917969v-37.011719c-11.226562 7.875-24.882812 12.515625-39.609375 12.515625zm0 0" fill="#e8956b"/><path d="m173.769531 278.777344c-1.847656-2.28125-2.855469-5.128906-2.855469-8.066406v-22.457032c-7.332031-1.933594-14.03125-4.917968-20-8.753906v35.75l39.632813 48.917969 10-12.34375zm0 0" fill="#db845e"/><path d="m119.394531 152.324219v32.257812c0 36.140625 28.3125 69.171875 71.171875 69.171875 38.140625 0 69.171875-31.03125 69.171875-69.171875v-32.207031c-74.292969-3.40625-64.152343-3.445312-140.34375-.050781zm0 0" fill="#f0a479"/><path d="m139.394531 184.105469c0-24.5 0-30.976563 0-32.433594 0 0 0-.0625 0-.242187-5.953125.265624-12.558593.5625-20 .894531v.335937c0 .273438 0 .367188 0 .363282v31.558593c0 36.140625 28.3125 69.171875 71.171875 69.171875 1.859375 0 3.695313-.09375 5.519532-.242187-34.691407-7.25-56.691407-37.117188-56.691407-69.40625zm0 0" fill="#e8956b"/><path d="m335.023438 312.855469-104.847657-40.605469-39.628906 48.921875-39.632813-48.921875-104.738281 40.605469s-38.777343 15.941406-38.777343 60.148437v118.78125c0 7.136719 5.785156 12.921875 12.921874 12.921875h340.558594c7.136719 0 12.921875-5.785156 12.921875-12.921875 0-41.785156 0-92.988281 0-118.78125 0-44.207031-38.777343-60.148437-38.777343-60.148437zm0 0" fill="#ea3f3f"/><path d="m27.398438 360c0-23.085938 10.582031-38.460938 20.6875-47.886719l-1.910157.742188s-38.777343 15.941406-38.777343 60.148437v118.78125c0 7.136719 5.785156 12.921875 12.921874 12.921875h7.078126c0-44.117187 0-120.660156 0-144.707031zm0 0" fill="#d4352f"/><path d="m291.199219 85.707031c-.191407-2.738281-2.769531-4.976562-6.136719-5.324219l-26.019531-2.691406c-46.117188-4.765625-92.796875-4.765625-138.914063 0l-25.578125 2.644532c-3.621093.371093-6.398437 2.78125-6.601562 5.730468l-2.398438 34.617188 34.578125-3.566406c46.117188-4.765626 92.796875-4.765626 138.910156 0l34.582032 3.566406zm0 0" fill="#ea3f3f"/><path d="m105.324219 83.769531c.140625-1.996093 1.390625-3.761719 3.277343-4.886719l-14.050781 1.453126c-3.621093.371093-6.398437 2.78125-6.601562 5.730468l-2.398438 34.617188 17.34375-1.789063zm0 0" fill="#d4352f"/><path d="m293.550781 119.683594-34.507812-3.566406c-46.117188-4.765626-92.796875-4.765626-138.914063 0l-34.507812 3.566406-20.320313 28.136718c-3.207031 4.445313.996094 9.988282 7.351563 9.695313l87.695312-4.015625c19.476563-.890625 39-.890625 58.472656 0l87.609376 4.011719c6.394531.292969 10.625-5.28125 7.394531-9.753907zm0 0" fill="#f75757"/><path d="m293.550781 119.683594-34.507812-3.566406c-46.117188-4.765626-92.796875-4.765626-138.914063 0l-34.507812 3.566406-20.320313 28.136718c-3.207031 4.445313.996094 9.988282 7.351563 9.695313l87.695312-4.015625c19.476563-.890625 39-.890625 58.472656 0l87.609376 4.011719c6.394531.292969 10.625-5.28125 7.394531-9.753907zm0 0" fill="#f75757"/><path d="m85.324219 146.320312 17.445312-28.410156-17.148437 1.773438-20.320313 28.136718c-3.207031 4.445313.996094 9.988282 7.355469 9.695313l15.453125-.707031c-3.542969-2.074219-5.160156-6.621094-2.785156-10.488282zm0 0" fill="#ea3f3f"/><path d="m238.398438 346.308594 29.636718-59.398438-37.859375-14.660156-39.628906 48.917969 38.636719 27.445312c3.128906 2.21875 7.5 1.125 9.214844-2.304687zm0 0" fill="#f75757"/><path d="m142.746094 346.308594-29.632813-59.398438 37.855469-14.660156 39.632812 48.917969-38.640624 27.445312c-3.128907 2.21875-7.5 1.125-9.214844-2.304687zm0 0" fill="#f75757"/><path d="m311.601562 386.867188c-4.140624 0-7.5 3.359374-7.5 7.5v102.632812h-95.898437c-4.144531 0-7.5 3.355469-7.5 7.5 0 4.140625 3.355469 7.5 7.5 7.5h152.777344c11.261719 0 20.421875-9.160156 20.421875-20.421875v-48.339844c0-4.140625-3.355469-7.5-7.5-7.5-4.144532 0-7.5 3.359375-7.5 7.5v48.339844c0 2.988281-2.433594 5.421875-5.421875 5.421875h-41.878907v-102.632812c0-4.140626-3.355468-7.5-7.5-7.5zm0 0"/><path d="m90.023438 73.542969c-5.308594 1.902343-9.085938 6.433593-9.457032 11.796875l-2.179687 31.480468-19.066407 26.402344c-6.894531 9.550782 1.074219 22.160156 13.777344 21.582032l5.675782-.261719c.859374 5.734375 3.140624 11.125 6.644531 15.703125v60.472656c0 11.210938 9.117187 20.328125 20.328125 20.328125h37.769531v5.859375c-.089844.035156-100 38.765625-100.085937 38.804688-1.773438.730468-43.429688 18.414062-43.429688 67.085937v118.78125c0 11.261719 9.160156 20.421875 20.421875 20.421875h152.78125c4.140625 0 7.5-3.355469 7.5-7.5 0-4.140625-3.359375-7.5-7.5-7.5h-95.898437v-102.632812c0-4.140626-3.359376-7.5-7.5-7.5-4.144532 0-7.5 3.359374-7.5 7.5v102.632812h-41.882813c-2.988281 0-5.421875-2.433594-5.421875-5.421875v-118.78125c0-38.085937 32.160156-52.375 34.085938-53.195313l60.464843-23.4375 26.585938 53.285157c3.761719 7.535156 13.382812 9.964843 20.269531 5.070312l26.742188-18.992187v52.746094c0 4.140624 3.355468 7.5 7.5 7.5 4.140624 0 7.5-3.359376 7.5-7.5v-52.785157l26.792968 19.03125c6.882813 4.890625 16.503906 2.472657 20.269532-5.070312l26.585937-53.285157 60.523437 23.441407c1.4375.617187 34.082032 15.121093 34.082032 53.191406v35.441406c0 4.140625 3.355468 7.5 7.5 7.5 4.144531 0 7.5-3.359375 7.5-7.5v-35.441406c0-48.671875-41.652344-66.355469-43.425782-67.085937-.046874-.019532-.09375-.039063-.144531-.058594-17.1875-6.65625-74.777343-28.957032-100.054687-38.746094v-5.859375h35.816406c11.210938 0 20.328125-9.117187 20.328125-20.328125v-60.53125c3.480469-4.566406 5.746094-9.9375 6.601563-15.648438l5.664062.261719c6.234375.285157 12.046875-2.789062 14.769531-7.828125 2.421875-4.472656 2.0625-9.636718-.949219-13.8125l-19.019531-26.339844-2.207031-31.839843c-.367188-5.320313-4.183594-9.78125-9.496094-11.542969-13.402344-43.476562-53.6875-73.4375-99.617187-73.4375-45.964844 0-86.273438 30.007812-99.644531 73.542969zm3.871093 90.308593 18.0625-.828124v15.851562c-9.25-.632812-16.203125-7.089844-18.0625-15.023438zm11.851563 82.195313c-2.9375 0-5.328125-2.390625-5.328125-5.328125v-49.234375c3.679687 1.429687 7.882812 2.3125 12.179687 2.433594 2.417969 20.035156 12.976563 39.152343 30.632813 52.128906zm43.164062 95.398437-25.308594-50.722656 25.039063-9.695312c9.277344 11.449218 5.246094 6.476562 31.167969 38.472656zm41.765625-32.429687-32.160156-39.699219v-14.628906c20.144531 8.507812 44.058594 8.683594 64.261719-.699219v15.398438c-24.207032 29.882812-17.484375 21.582031-32.101563 39.628906zm67.070313-18.292969-25.308594 50.722656-30.933594-21.96875 31.160156-38.464843zm-93.996094-50.125c-22.953125-10.074218-36.753906-33.023437-36.753906-56.222656v-22.042969c63.773437-2.917969 58.789062-3.046875 125.34375 0 0 24.203125-.035156 23.375-.035156 23.375-.941407 43.949219-46.429688 73.207031-88.554688 54.890625zm115.171875.121094c0 2.9375-2.386719 5.328125-5.324219 5.328125h-35.816406v-1.238281c15.742188-12.320313 26.390625-30.449219 28.945312-50.890625 4.054688-.105469 8.347657-.945313 12.195313-2.445313zm-11.582031-61.839844v-15.859375l18.066406.828125c-1.894531 8.089844-8.949219 14.398438-18.066406 15.03125zm22.199218-52.289062 16.75 23.195312c-.050781 0-12.671874-.578125-12.671874-.578125-120.589844-5.527343-87.507813-5.511719-220.53125.578125l16.75-23.195312c83.050781-8.582032 105.390624-9.746094 199.703124 0zm-5.613281-39.003906 1.628907 23.511718c-87.082032-9-114.851563-7.945312-191.734376 0l1.628907-23.511718c74.925781-7.742188 101.878906-8.960938 188.476562 0zm-11.257812-16.246094c-71.574219-7.398438-109.445313-5.839844-165.996094.003906 13.304687-33.660156 46.015625-56.34375 82.996094-56.34375s69.691406 22.683594 83 56.339844zm0 0"/></svg>