<svg height="511pt" viewBox="0 -8 511.997 511" width="511pt" xmlns="http://www.w3.org/2000/svg"><path d="m459.660156 97.453125c-.757812-7.421875-3.421875-14.523437-7.734375-20.613281l-4.71875-6.664063c-2.226562-3.140625-3.421875-6.890625-3.421875-10.738281v-41.386719c0-5.4375-4.40625-9.847656-9.847656-9.847656-8.511719 0-362.050781 0-356.082031 0-5.4375 0-9.847657 4.410156-9.847657 9.847656v41.382813c0 3.851562-1.195312 7.601562-3.417968 10.742187-5.382813 7.59375-11.152344 14.46875-12.453125 27.277344l-35.09375 344.976563h210.824219c.660156 0 1.285156.125 1.890624.300781l23.847657-176.8125c.359375-2.671875 4.226562-2.671875 4.585937 0l23.847656 176.8125c.605469-.179688 1.230469-.300781 1.890626-.300781h210.824218zm0 0" fill="#525468"/><g fill="#3e4151"><path d="m84.589844 70.175781c2.222656-3.140625 3.417968-6.890625 3.417968-10.738281v-41.386719c0-5.4375 4.410157-9.847656 9.851563-9.847656h-20.003906c-5.4375 0-9.847657 4.410156-9.847657 9.847656v41.386719c0 3.847656-1.195312 7.597656-3.417968 10.738281-5.378906 7.59375-11.152344 14.472657-12.453125 27.277344l-35.09375 344.976563h20l35.09375-344.976563c1.304687-12.804687 7.089843-19.703125 12.453125-27.277344zm0 0"/><path d="m227.867188 442.429688c.660156 0 1.285156.125 1.890624.300781l.042969-.300781zm0 0"/><path d="m239.445312 61.886719v153.613281c0 3.089844 2.507813 5.597656 5.597657 5.597656h18.453125c3.394531 0 6.144531-2.75 6.144531-6.144531v-153.066406zm0 0"/></g><path d="m258.199219 215.5v-153.613281h-18.753907v153.613281c0 3.089844 2.507813 5.597656 5.601563 5.597656h18.453125c.050781 0 .097656-.007812.148438-.007812-3.023438-.078125-5.449219-2.546875-5.449219-5.589844zm0 0" fill="#353744"/><path d="m459.660156 97.453125c-.757812-7.421875-3.421875-14.523437-7.734375-20.613281l-4.71875-6.664063c-1.75-2.46875-2.851562-5.316406-3.246093-8.289062h-41.871094v45.558593c0 34.628907 15.980468 67.320313 43.300781 88.59375l26.386719 20.546876zm0 0" fill="#3e4151"/><path d="m465.390625 196.039062c-27.320313-21.273437-43.300781-53.964843-43.300781-88.59375v-45.558593h-20v45.558593c0 34.628907 15.976562 67.320313 43.300781 88.59375l26.386719 20.546876-1.71875-16.914063zm0 0" fill="#353744"/><path d="m64.589844 70.175781c-5.378906 7.59375-11.152344 14.46875-12.453125 27.277344l-12.121094 119.132813 26.386719-20.546876c27.324218-21.273437 43.300781-53.964843 43.300781-88.59375v-45.558593h-41.867187c-.398438 2.972656-1.5 5.820312-3.246094 8.289062zm0 0" fill="#3e4151"/><path d="m40.015625 216.585938 21.722656-16.914063 10.398438-102.21875c1.304687-12.804687 7.089843-19.703125 12.453125-27.277344 1.75-2.46875 2.847656-5.316406 3.246094-8.289062h-20c-.390626 2.921875-1.515626 5.84375-3.246094 8.289062l-3.140625 4.433594c-2.117188 2.988281-8.054688 10.496094-9.3125 22.84375zm0 0" fill="#353744"/><path d="m433.9375 8.203125c-15.640625 0-340.464844 0-356.082031 0-5.4375 0-9.847657 4.410156-9.847657 9.851563v41.382812c0 .824219-.066406 1.640625-.171874 2.449219h376.125c-.109376-.808594-.175782-1.625-.175782-2.449219v-41.386719c0-5.4375-4.40625-9.847656-9.847656-9.847656zm0 0" fill="#525468"/><path d="m68.007812 18.050781v41.386719c0 .800781-.066406 1.644531-.171874 2.449219h20c.105468-.8125.171874-1.628907.171874-2.449219v-41.386719c0-5.4375 4.410157-9.847656 9.851563-9.847656h-20.003906c-1.359375 0-2.652344.277344-3.832031.773437-3.535157 1.496094-6.015626 4.996094-6.015626 9.074219zm0 0" fill="#3e4151"/><path d="m109.703125 8.203125h30.199219v53.683594h-30.199219zm0 0" fill="#3e4151"/><path d="m239.621094 18.050781c0 45.003907.070312 41.992188-.175782 43.835938h204.515626c-.109376-.804688-.175782-1.636719-.175782-2.449219v-41.386719c0-.339843-.015625-.675781-.050781-1.003906-.402344-3.976563-3.167969-7.25-6.867187-8.402344-.925782-.285156-1.910157-.441406-2.929688-.441406-11.761719 0-175.234375 0-184.46875 0-5.4375 0-9.847656 4.410156-9.847656 9.847656zm0 0" fill="#66697f"/><path d="m258.371094 18.050781c0-5.4375 4.410156-9.847656 9.847656-9.847656-23.828125 0-17.28125 0-18.75 0-5.441406 0-9.847656 4.410156-9.847656 9.847656 0 44.980469.070312 41.988281-.175782 43.835938h18.75c.242188-1.804688.175782 1.480469.175782-43.835938zm0 0" fill="#3e4151"/><path d="m371.894531 8.203125h30.195313v53.683594h-30.195313zm0 0" fill="#525468"/><path d="m279.4375 274.523438c-.820312-6.074219-6.003906-10.609376-12.136719-10.609376h-11.402343c1.054687 0 2.113281.667969 2.292968 2.003907l23.84375 176.8125c.457032-.132813.929688-.214844 1.410156-.257813.160157-.015625.320313-.042968.484376-.042968h18.066406zm0 0" fill="#3e4151"/><path d="m229.628906 441.554688h-213.648437c-3.75 0-6.820313 3.125-6.820313 6.949218v31.996094c0 3.824219 3.070313 6.953125 6.820313 6.953125h213.648437c3.75 0 6.816406-3.128906 6.816406-6.953125v-31.996094c0-3.824218-3.066406-6.949218-6.816406-6.949218zm0 0" fill="#66697f"/><path d="m283.929688 441.554688h213.648437c3.75 0 6.820313 3.125 6.820313 6.949218v31.996094c0 3.824219-3.070313 6.953125-6.820313 6.953125h-213.648437c-3.75 0-6.820313-3.128906-6.820313-6.953125v-31.996094c0-3.824218 3.070313-6.949218 6.820313-6.949218zm0 0" fill="#66697f"/><path d="m29.160156 480.5v-31.996094c0-3.824218 3.070313-6.949218 6.820313-6.949218h-20c-3.75 0-6.820313 3.125-6.820313 6.949218v31.996094c0 3.824219 3.070313 6.953125 6.820313 6.953125h20c-3.75 0-6.820313-3.128906-6.820313-6.953125zm0 0" fill="#525468"/><path d="m297.113281 480.5v-31.996094c0-3.824218 3.066407-6.949218 6.816407-6.949218h-20c-3.75 0-6.820313 3.125-6.820313 6.949218v31.996094c0 3.824219 3.070313 6.953125 6.820313 6.953125h20c-3.75 0-6.816407-3.128906-6.816407-6.953125zm0 0" fill="#525468"/><path d="m272.933594 27.339844h-3.1875c-4.144532 0-7.5 3.355468-7.5 7.5 0 4.140625 3.355468 7.5 7.5 7.5h3.1875c4.144531 0 7.5-3.359375 7.5-7.5 0-4.144532-3.355469-7.5-7.5-7.5zm0 0"/><path d="m501.691406 435.304688-34.46875-338.816407c-2.292968-22.523437-15.832031-28.226562-15.832031-37.257812v-41.382813c0-.027344-.003906-.054687-.003906-.082031-.050781-9.78125-8.015625-17.25-17.308594-17.265625-.011719 0-.023437 0-.035156 0-3.277344 0-352.800781 0-356.082031 0-9.566407 0-17.351563 7.78125-17.351563 17.347656v41.382813c0 9.363281-13.53125 14.644531-15.832031 37.261719-3.0625 30.085937-33.347656 327.777343-34.46875 338.8125-5.949219 1.738281-10.308594 7.234374-10.308594 13.734374v31.386719c0 7.894531 6.421875 14.320313 14.316406 14.320313h213.652344c7.894531 0 14.316406-6.425782 14.316406-14.320313v-31.386719c0-4.023437-1.671875-7.65625-4.351562-10.261718l18.066406-133.957032 18.066406 133.957032c-2.679687 2.605468-4.355468 6.238281-4.355468 10.261718v31.386719c0 7.894531 6.425781 14.320313 14.320312 14.320313h89.324219c4.140625 0 7.5-3.359375 7.5-7.5 0-4.144532-3.359375-7.5-7.5-7.5h-88.644531v-30.023438h212.285156v30.023438h-88.640625c-4.144531 0-7.5 3.355468-7.5 7.5 0 4.140625 3.355469 7.5 7.5 7.5h89.324219c7.894531 0 14.316406-6.425782 14.316406-14.320313v-31.386719c.003906-6.503906-4.355469-11.996093-10.304688-13.734374zm-91.996094-419.808594h24.34375c1.308594 0 2.351563 1.089844 2.351563 2.347656v36.335938h-26.695313zm0 53.683594h28.667969c3.5625 8.617187 12.425781 14 13.9375 28.828124h-.003906l10.34375 101.671876-12.539063-9.765626c-25.679687-19.996093-40.40625-50.128906-40.40625-82.675781zm-30.199218-53.683594h15.195312v38.683594h-15.195312zm-132.273438 2.351562c0-1.296875 1.054688-2.351562 2.347656-2.351562h114.925782v38.683594h-117.273438zm-99.71875-2.351562h84.894532c-.105469.769531-.175782 1.550781-.175782 2.351562v36.332032h-84.71875zm-30.195312 0h15.195312v38.683594h-15.195312zm-41.699219 2.347656c0-1.292969 1.054687-2.347656 2.347656-2.347656h24.347657v38.683594h-26.695313zm-15.910156 80.164062c1.082031-10.648437 5.738281-16.117187 11.109375-23.703124h.003906c.96875-1.367188 2.074219-3.3125 2.824219-5.125h28.667969v38.058593c0 32.546875-14.726563 62.679688-40.40625 82.675781l-12.539063 9.765626zm167.585937 381.738282h-212.285156v-30.023438h212.285156zm61.371094-45.023438-22.929688-170.015625c-.664062-4.925781-4.753906-8.503906-9.726562-8.503906s-9.0625 3.578125-9.726562 8.503906l-22.929688 170.015625h-197.898438l21.8125-214.394531 23.855469-18.578125c29.355469-22.855469 46.191407-57.304688 46.191407-94.507812v-38.0625h114.742187v146.113281c0 7.222656 5.875 13.097656 13.097656 13.097656h18.453125c7.523438 0 13.648438-6.121094 13.648438-13.644531v-55.960938c0-4.140625-3.359375-7.5-7.5-7.5-4.144532 0-7.503906 3.359375-7.503906 7.5v54.605469h-15.191407v-144.210937h15.191407v54.605468c0 4.140625 3.359374 7.5 7.503906 7.5 4.140625 0 7.5-3.359375 7.5-7.5v-54.605468h117.445312v38.0625c0 37.203124 16.835938 71.652343 46.191406 94.507812l23.859376 18.578125 21.808593 214.394531zm0 0"/></svg>