<svg height="512pt" viewBox="-47 0 512 512.00082" width="512pt" xmlns="http://www.w3.org/2000/svg"><path d="m201.277344 115.960938c4.070312 3.96875 10.605468 3.96875 14.675781 0 28.355469-27.632813 44.644531-64.699219 51.292969-102.835938.003906-.003906.011718-.007812.015625-.011719-.003907.003907-.011719.007813-.015625.011719h-117.265625c-.003907-.003906-.007813-.007812-.011719-.007812.007812.003906.011719.003906.015625.007812 6.65625 38.171875 22.957031 75.222656 51.292969 102.835938zm0 0" fill="#f3a334"/><path d="m170.785156 13.125h-.003906l-20.800781-.003906c-.003907 0-.007813-.003906-.011719-.007813.003906.003907.011719.007813.015625.011719 6.65625 38.171875 22.957031 75.222656 51.292969 102.832031 4.070312 3.972657 10.605468 3.972657 14.675781 0 1.039063-1.011719 2.054687-2.039062 3.0625-3.074219-26.453125-27.253906-41.820313-62.984374-48.230469-99.757812zm0 0" fill="#e87e04"/><path d="m407.558594 190.976562-17.933594-20.128906c-15.785156-17.71875-24.507812-40.621094-24.507812-64.351562v-68.480469c0-2.484375-1.625-4.675781-4.003907-5.394531l-60.175781-18.234375c-9.136719 58.546875-37.28125 111.214843-86.167969 145.113281-3.691406 2.5625-8.617187 2.5625-12.3125 0-48.894531-33.90625-77.03125-86.582031-86.164062-145.113281l-60.175781 18.234375c-2.378907.71875-4.003907 2.910156-4.003907 5.394531v68.480469c0 23.730468-8.722656 46.632812-24.507812 64.351562l-17.933594 20.128906c-1.464844 1.644532-2.273437 3.769532-2.273437 5.96875v258.941407c0 5.542969 4.492187 10.035156 10.039062 10.035156h382.355469c5.542969 0 10.039062-4.492187 10.039062-10.035156v-258.941407c0-2.199218-.8125-4.324218-2.273437-5.96875zm0 0" fill="#f3a334"/><path d="m27.398438 455.886719v-258.941407c0-2.203124.808593-4.324218 2.273437-5.96875l17.933594-20.128906c15.785156-17.71875 24.507812-40.621094 24.507812-64.355468v-78.71875l-15.996093 4.847656c-2.378907.71875-4.003907 2.910156-4.003907 5.394531v68.480469c0 23.730468-8.722656 46.632812-24.507812 64.351562l-17.933594 20.128906c-1.464844 1.644532-2.273437 3.769532-2.273437 5.96875v258.941407c0 5.542969 4.492187 10.035156 10.039062 10.035156h20c-5.546875 0-10.039062-4.492187-10.039062-10.035156zm0 0" fill="#e87e04"/><path d="m202.457031 159.5c3.695313 2.5625 8.621094 2.5625 12.3125 0 48.886719-33.898438 77.03125-86.566406 86.167969-145.113281l-20.132812-6.101563c-2.210938-.671875-4.53125-.65625-6.683594-.023437-1.503906.492187-2.84375 1.277343-4.089844 2.152343-1.035156.816407-2.234375 1.726563-3.570312 2.699219-.003907.003907-.011719.007813-.015626.011719-6.558593 37.617188-22.625 74.175781-50.59375 101.433594-4.015624 3.914062-10.460937 3.914062-14.476562 0-27.949219-27.238282-44.027344-63.78125-50.589844-101.433594-.007812-.003906-.011718-.003906-.015625-.007812-1.335937-.976563-2.53125-1.882813-3.566406-2.699219-1.234375-.871094-2.5625-1.652344-4.050781-2.144531-2.164063-.644532-4.503906-.664063-6.726563.011718l-20.136719 6.101563c9.136719 58.53125 37.273438 111.207031 86.167969 145.113281zm0 0" fill="#ffe183"/><path d="m25.648438 465.125v22.816406c0 9.222656 7.390624 16.765625 16.425781 16.765625h333.082031c9.03125 0 16.425781-7.546875 16.425781-16.765625v-22.816406c-16.050781 0-349.882812 0-365.933593 0zm0 0" fill="#ffe183"/><path d="m45.648438 487.941406v-22.816406h-20v22.816406c0 9.222656 7.394531 16.765625 16.425781 16.765625h20c-9.03125 0-16.425781-7.542969-16.425781-16.765625zm0 0" fill="#ffc964"/><path d="m95.1875 504.707031h226.855469v-39.582031c-9.96875 0-216.90625 0-226.855469 0zm0 0" fill="#ffe183"/><g fill="#ffc964"><path d="m342.042969 504.707031h-20v-39.582031h20zm0 0"/><path d="m247.890625 504.707031h23.390625v-39.582031c-8.464844 0-14.925781 0-23.390625 0zm0 0"/><path d="m95.1875 504.707031h20v-39.582031h-20zm0 0"/></g><path d="m165.949219 504.707031h85.332031v-39.582031c-10.398438 0-74.9375 0-85.332031 0zm0 0" fill="#ffe183"/><path d="m165.949219 504.707031h20v-39.582031h-20zm0 0" fill="#ffc964"/><path d="m51.09375 202.039062c23.984375-28.070312 37.164062-63.777343 37.164062-100.699218v-78.460938l-32.140624 9.742188c-2.378907.71875-4.003907 2.910156-4.003907 5.394531v68.480469c0 23.730468-8.722656 46.632812-24.507812 64.351562l-17.933594 20.128906c-1.464844 1.644532-2.273437 3.769532-2.273437 5.96875v56.234376zm0 0" fill="#ffe183"/><path d="m7.398438 253.179688 20-23.40625v-32.828126c0-2.199218.808593-4.324218 2.273437-5.96875l17.933594-20.128906c15.785156-17.71875 24.507812-40.621094 24.507812-64.351562v-78.722656l-15.996093 4.847656c-.296876.089844-.582032.203125-.855469.335937-1.90625.9375-3.148438 2.886719-3.148438 5.058594v68.480469c0 23.730468-8.722656 46.632812-24.507812 64.351562l-17.933594 20.128906c-.367187.410157-.691406.851563-.972656 1.316407-.140625.230469-.273438.472656-.390625.714843-.59375 1.214844-.910156 2.5625-.910156 3.9375zm0 0" fill="#ffc964"/><path d="m366.132812 202.039062c-23.984374-28.070312-37.160156-63.777343-37.160156-100.699218v-78.460938l32.140625 9.742188c2.378907.71875 4.003907 2.910156 4.003907 5.394531v68.480469c0 23.730468 8.722656 46.632812 24.507812 64.351562l17.933594 20.128906c1.464844 1.644532 2.273437 3.769532 2.273437 5.96875v56.234376zm0 0" fill="#ffe183"/><path d="m365.117188 106.496094v-11.355469h-36.144532v6.199219c0 27.011718 7.0625 53.371094 20.238282 76.570312l28.46875-23.785156c-8.167969-14.433594-12.5625-30.816406-12.5625-47.628906zm0 0" fill="#ffc964"/><path d="m52.113281 106.496094v-11.355469h36.144531v6.199219c0 27.011718-7.0625 53.371094-20.242187 76.570312l-28.464844-23.785156c8.164063-14.433594 12.5625-30.816406 12.5625-47.628906zm0 0" fill="#ffc964"/><path d="m52.460938 164.910156c12.699218-16.757812 19.652343-37.25 19.652343-58.414062v-11.355469h-20v11.355469.019531c-.003906 16.171875-4.148437 32.738281-12.5625 47.609375zm0 0" fill="#f3a334"/><path d="m201.375 114.558594c-27.949219-27.238282-44.027344-63.78125-50.589844-101.433594-3.753906-2.734375-7.621094-6.882812-14.359375-4.839844l-20.132812 6.101563c9.132812 58.53125 37.269531 111.207031 86.164062 145.113281 1.847657 1.28125 4.003907 1.921875 6.160157 1.921875v-43.929687c-2.617188 0-5.234376-.976563-7.242188-2.933594zm0 0" fill="#ffe183"/><path d="m168.625 68.882812c-8.640625-17.566406-14.484375-36.515624-17.839844-55.757812-3.753906-2.734375-7.621094-6.882812-14.359375-4.839844l-20.132812 6.101563c3.992187 25.585937 11.617187 50.054687 23.019531 72.328125zm0 0" fill="#ffc964"/><path d="m248.605469 68.882812c8.636719-17.566406 14.484375-36.515624 17.839843-55.757812 3.75-2.734375 7.621094-6.882812 14.355469-4.839844l20.136719 6.101563c-3.992188 25.585937-11.621094 50.054687-23.023438 72.328125zm0 0" fill="#ffc964"/><path d="m199.09375 12.917969c0-4.140625-3.359375-7.5-7.5-7.5h-38.175781c-5.597657-4.320313-11.25-6.867188-19.023438-4.53125-.011719.003906-.027343.007812-.039062.011719-6.714844 2.035156-30.296875 9.179687-80.3125 24.335937-5.566407 1.6875-9.328125 6.757813-9.328125 12.574219v68.480468c0 38.582032-20.398438 56.882813-40.542969 79.492188-2.660156 2.988281-4.171875 6.871094-4.171875 10.957031v258.941407c0 9.667968 7.867188 17.539062 17.539062 17.539062h.710938v14.855469c0 13.195312 10.734375 23.925781 23.925781 23.925781h333.082031c13.191407 0 23.925782-10.730469 23.925782-23.925781v-14.855469h.710937c9.671875 0 17.539063-7.867188 17.539063-17.539062v-85.613282c0-4.144531-3.355469-7.5-7.5-7.5-4.144532 0-7.5 3.355469-7.5 7.5v85.613282c0 1.398437-1.136719 2.539062-2.539063 2.539062-19.148437 0-364.722656 0-382.355469 0-1.398437 0-2.539062-1.140625-2.539062-2.539062v-199.941407c49.972656-58.480469 80.863281-84.042969 80.863281-160.804687v-66.695313l14.59375-4.421875c10.921875 57.941406 40.179688 108.59375 87.832031 141.640625 6.582032 4.5625 14.960938 4.089844 20.859376 0 47.847656-33.179687 76.957031-83.945312 87.832031-141.640625l14.59375 4.421875v66.695313c0 40.601562 9.207031 76.953125 38.960937 111.769531l41.898438 49.035156v79.328125c0 4.140625 3.355468 7.5 7.5 7.5 4.144531 0 7.5-3.359375 7.5-7.5v-138.328125c0-4.046875-1.480469-7.9375-4.175782-10.960937-44.167968-49.574219-40.539062-44.140625-40.539062-147.96875 0-5.871094-3.804688-10.898438-9.328125-12.574219-43.28125-13.113281-78.554687-23.804687-80.308594-24.335937-.015625-.003907-.03125-.007813-.042969-.011719-7.558593-2.269531-13.269531.082031-19.03125 4.53125h-37.417968c-4.140625 0-7.5 3.359375-7.5 7.5 0 4.144531 3.359375 7.5 7.5 7.5h30.828125c-7.28125 33.582031-22.402344 64.886719-46.699219 88.5625-1.171875 1.140625-2.984375.996093-4.003906 0-.003906 0-.003906 0-.003906 0-24.472657-23.851563-39.488282-55.308594-46.699219-88.5625h31.578125c4.144531 0 7.503906-3.359375 7.503906-7.5zm130.550781 460.300781h54.535157v14.855469c0 4.921875-4.003907 8.925781-8.925782 8.925781h-45.609375zm-70.761719 0h55.761719v23.78125h-55.761719zm-85.332031 0h70.332031v23.78125h-70.332031zm-70.761719 0h55.761719v23.78125h-55.761719zm-69.539062 0h54.539062v23.78125h-45.613281c-4.921875 0-8.925781-4.003906-8.925781-8.925781zm-18.25-240.570312v-35.910157c0-.226562.070312-.445312.171875-.644531.054687-.117188.113281-.238281.203125-.335938 19.386719-21.761718 21.25-23.515624 26.082031-30.5625l16.945313 14.160157c-7.34375 11.742187-10.261719 14.507812-43.402344 53.292969zm50.816406-66.644532-16.683594-13.9375c7.871094-16.097656 10.582032-31.574218 10.582032-49.632812h21.132812c-.171875 21.183594-5.019531 43.117187-15.03125 63.570312zm15.042969-78.570312h-21.144531v-48.242188l21.144531-6.410156zm295.117187 77.761718c7.148438 10.425782 24.226563 27.996094 26.164063 30.695313.453125.636719.292969-1.847656.292969 36.757813-33.007813-38.628907-36.054688-41.546876-43.402344-53.292969zm-7.675781-13.128906-16.683593 13.9375c-9.707032-19.835937-14.855469-41.644531-15.027344-63.570312h21.128906c0 17.980468 2.679688 33.472656 10.582031 49.632812zm-31.726562-119.285156c4.203125 1.277344 16.785156 5.089844 21.144531 6.410156v48.242188h-21.144531zm-63.171875-15.621094c1.902344-1.453125 3.199218-2.550781 5.328125-1.90625l13.8125 4.1875c-3.496094 19.214844-9.25 38.285156-17.65625 56.382813l-16.515625-10.046875c7.0625-15.738282 11.972656-32.289063 15.03125-48.617188zm-57.183594 105.941406c1.796875-.820312 3.488281-1.933593 4.972656-3.378906 11.9375-11.636718 22.148438-25.238281 30.484375-40.460937l16.476563 10.023437c-13.132813 23.640625-30.570313 43.769532-51.933594 59.773438zm-73.671875-47.277343c-8.390625-18.066407-14.152344-37.125-17.65625-56.382813l13.8125-4.1875c2.191406-.660156 3.566406.5625 5.328125 1.902344 3.117188 16.628906 8.070312 33.113281 15.03125 48.621094zm23.210937 3.4375c7.6875 14.042969 25.886719 39.464843 35.460938 43.886719v25.914062c-21.898438-16.40625-39.035156-36.558594-51.9375-59.777344zm0 0"/></svg>