<svg height="512pt" viewBox="0 -24 512.00053 512" width="512pt" xmlns="http://www.w3.org/2000/svg"><path d="m500.097656 86.746094-109.226562-42.839844c-3.28125-1.285156-6.679688-2.242188-10.148438-2.859375l-44.832031-7.960937h-159.988281l-44.828125 7.960937c-3.46875.617187-6.867188 1.574219-10.148438 2.859375l-109.226562 42.839844c-3.207031 1.257812-4.957031 4.726562-4.066407 8.050781l27.867188 103.828125c.890625 3.308594 4.386719 5.183594 7.636719 4.09375l63.445312-21.3125c5.105469-1.710938 10.386719 2.085938 10.386719 7.46875v262.03125c0 3.367188 2.726562 6.09375 6.089844 6.09375h265.679687c3.363281 0 6.09375-2.726562 6.09375-6.09375v-262.03125c0-5.382812 5.28125-9.179688 10.382813-7.46875l63.445312 21.3125c3.25 1.089844 6.746094-.785156 7.636719-4.09375l27.867187-103.828125c.890626-3.324219-.859374-6.792969-4.066406-8.050781zm0 0" fill="#4b98d4"/><path d="m35.917969 77.246094-24.21875 9.5c-3.207031 1.257812-4.957031 4.726562-4.066407 8.050781l27.867188 103.828125c.890625 3.308594 4.386719 5.183594 7.636719 4.09375l23.320312-7.835938zm0 0" fill="#72bdf6"/><path d="m55.003906 198.625-30.152344-117.039062-13.152343 5.160156c-3.207031 1.257812-4.957031 4.726562-4.066407 8.050781l27.867188 103.828125c.890625 3.308594 4.386719 5.183594 7.636719 4.09375l11.898437-4c-.007812-.03125-.023437-.0625-.03125-.09375zm0 0" fill="#4b98d4"/><path d="m215.902344 7.707031 39.996094 82.34375 39.996093-82.34375zm0 0" fill="#4b98d4"/><path d="m235.902344 7.707031h-20l39.996094 82.34375 11.777343-24.25zm0 0" fill="#2472b2"/><path d="m500.097656 86.746094-25.140625-9.859375-30.554687 117.683593 24.257812 8.148438c3.25 1.089844 6.746094-.785156 7.632813-4.09375l27.871093-103.828125c.890626-3.324219-.859374-6.792969-4.066406-8.050781zm0 0" fill="#72bdf6"/><path d="m349.347656 159.808594-33.621094-15.515625v34.84375l33.621094-15.515625c1.75-.804688 1.75-3.003906 0-3.8125zm0 0" fill="#ea3f3f"/><path d="m338.894531 154.984375-23.167969-10.691406v34.84375l23.167969-10.691407zm0 0" fill="#d4352f"/><path d="m215.902344 7.707031-40 25.378907 34.125 64.863281c2.207031 4.195312 7.441406 5.742187 11.570312 3.414062l34.300782-19.3125zm0 0" fill="#72bdf6"/><path d="m295.894531 7.707031 39.996094 25.378907-34.121094 64.863281c-2.207031 4.195312-7.441406 5.742187-11.570312 3.414062l-34.300781-19.3125zm0 0" fill="#72bdf6"/><path d="m341.894531 210.289062c0-6.125-11.660156-11.09375-26.042969-11.09375-14.378906 0-26.039062 4.96875-26.039062 11.09375 0 6.128907 11.660156 11.097657 26.039062 11.097657 14.382813 0 26.042969-4.96875 26.042969-11.097657zm0 0" fill="#9ad14b"/><path d="m309.8125 210.289062c0-4.617187 6.625-8.574218 16.042969-10.246093-3.082031-.542969-6.457031-.847657-10.003907-.847657-14.378906 0-26.039062 4.96875-26.039062 11.09375 0 6.128907 11.660156 11.097657 26.039062 11.097657 3.546876 0 6.921876-.304688 10.003907-.847657-9.417969-1.671874-16.042969-5.628906-16.042969-10.25zm0 0" fill="#76ab29"/><path d="m136.46875 450.90625v-262.03125c0-5.382812-5.28125-9.179688-10.386719-7.46875l-10.234375 3.4375c.699219 1.167969 1.117188 2.535156 1.117188 4.03125v262.03125c0 3.367188 2.730468 6.09375 6.09375 6.09375h19.5c-3.363282 0-6.089844-2.726562-6.089844-6.09375zm0 0" fill="#2472b2"/><path d="m116.964844 425.027344v25.878906c0 3.367188 2.730468 6.09375 6.09375 6.09375h265.675781c3.367187 0 6.09375-2.726562 6.09375-6.09375v-25.878906zm0 0" fill="#72bdf6"/><path d="m116.964844 425.027344v25.878906c0 3.367188 2.730468 6.09375 6.09375 6.09375h19.496094c-3.363282-.003906-6.085938-2.730469-6.085938-6.09375v-25.878906zm0 0" fill="#4b98d4"/><path d="m502.9375 79.554688c-6.375-2.5-103.136719-40.449219-109.226562-42.835938-3.730469-1.464844-7.628907-2.5625-11.574219-3.265625l-43.375-7.699219-38.746094-24.585937c-1.113281-.707031-2.566406-1.167969-4.019531-1.167969h-79.992188c-1.328125 0-2.785156.386719-4.019531 1.167969l-38.75 24.585937-43.367187 7.699219c-3.953126.703125-7.847657 1.800781-11.578126 3.265625-10.050781 3.941406-97.988281 38.429688-109.226562 42.835938-6.777344 2.65625-10.457031 9.960937-8.570312 16.980468l27.867187 103.828125c2.003906 7.457031 9.9375 11.722657 17.265625 9.257813l63.445312-21.308594c.074219-.027344.183594-.0625.339844.050781s.15625.230469.15625.304688v262.03125c0 7.382812 6 13.59375 13.597656 13.59375h265.671876c7.5 0 13.597656-6.097657 13.597656-13.59375 0-5.78125 0-125.6875 0-131.324219 0-4.140625-3.359375-7.5-7.5-7.5-4.144532 0-7.5 3.359375-7.5 7.5v97.945312h-113.933594c-4.140625 0-7.5 3.355469-7.5 7.5 0 4.140626 3.359375 7.5 7.5 7.5h113.933594v16.972657h-262.863282v-16.972657h113.929688c4.140625 0 7.5-3.359374 7.5-7.5 0-4.144531-3.359375-7.5-7.5-7.5h-113.929688v-228.652343c0-4.9375-2.394531-9.605469-6.402343-12.484375-4.007813-2.882813-9.195313-3.664063-13.871094-2.09375l-32.5 10.917968-26.84375-103.414062 78.816406-30.910156c2.808594-1.105469 5.742188-1.929688 8.71875-2.457032l39.433594-7.003906 31.570313 60.011719c4.210937 8.007813 14.136718 10.820313 21.890624 6.457031l23.117188-13.015625v62.320313c0 4.140625 3.359375 7.5 7.5 7.5 4.144531 0 7.5-3.359375 7.5-7.5v-62.320313l23.121094 13.015625c6.339844 3.570313 11.3125 1.398438 12.3125 1.398438 4.074218-1.207032 7.53125-3.964844 9.578125-7.855469 4.277343-8.128906 27.113281-51.542969 31.570312-60.011719l39.433594 7.003906c2.972656.527344 5.90625 1.355469 8.71875 2.457032l77.894531 30.550781-26.859375 103.460937-31.5625-10.601562c-9.949219-3.34375-20.273437 4.078125-20.273437 14.574219v95.707031c0 4.144531 3.355468 7.503906 7.5 7.503906 4.144531 0 7.5-3.359375 7.5-7.503906v-95.707031c0-.074219 0-.191407.15625-.304688s.265625-.074219.339844-.050781c22.5 7.558594 43.441406 14.59375 63.445312 21.308594 7.214844 2.425781 15.230469-1.679688 17.265625-9.257813l27.871094-103.824219c1.878906-7.015624-1.789063-14.320312-8.574219-16.984374zm-445.394531 110.238281-15.125 5.082031-27.269531-101.59375 15.734374-6.171875zm160.476562-95.171875c-.464843.261718-1.023437.066406-1.253906-.371094l-30.902344-58.742188 27.355469-17.355468c4.855469 9.03125 30.207031 56.148437 32.691406 60.765625-7.59375 4.273437-2.082031 1.167969-27.890625 15.703125zm37.980469-28.609375-27.445312-51.007813h54.890624zm39.234375 28.238281c-.222656.421875-.769531.640625-1.253906.371094l-27.890625-15.703125c2.488281-4.617188 27.835937-51.734375 32.695312-60.765625l27.351563 17.355468zm174.347656 100.625-16.058593-5.394531 26.671874-102.730469 16.652344 6.53125zm0 0"/><path d="m352.59375 170.226562c7.558594-3.492187 7.554688-13.945312-.003906-17.433593l-29.304688-13.527344c-.726562-3.382813-3.730468-5.917969-7.328125-5.917969-4.144531 0-7.503906 3.359375-7.503906 7.5v51.035156c-15.648437 1.6875-26.039063 8.699219-26.039063 18.199219 0 24.835938 67.082032 24.871094 67.082032 0 0-9.5-10.390625-16.511719-26.039063-18.199219v-8.210937zm-29.136719-14.359374 12.222657 5.640624-12.222657 5.644532zm9.875 54.214843c-8.152343 4.792969-26.589843 4.800781-34.753906 0 8.15625-4.789062 26.589844-4.796875 34.753906 0zm0 0"/></svg>