<svg height="511pt" viewBox="-98 0 511 511.99943" width="511pt" xmlns="http://www.w3.org/2000/svg"><path d="m239.824219 402.785156c3.4375-53.730468 19.933593-102.128906 38.171875-139.902344l28.320312-61.539062c6.152344-14.03125-.296875-30.542969-14.324218-36.691406-14.03125-6.152344-30.542969.292968-36.695313 14.324218-.054687.125-28.027344 64.203126-28.082031 64.328126-2.519532 5.605468-11 3.625-11-2.519532v-181.09375c0-13.6875-10.324219-25.46875-23.96875-26.546875-15.257813-1.203125-28.140625 10.953125-28.140625 25.972657v-24.988282c0-13.6875-10.324219-25.472656-23.96875-26.546875-15.261719-1.203125-28.140625 10.953125-28.140625 25.972657v25.5625c0-15.019532-12.878906-27.175782-28.136719-25.972657-13.644531 1.078125-23.972656 12.863281-23.972656 26.546875v21.550782c0-15.023438-12.878907-27.179688-28.140625-25.972657-13.644532 1.078125-23.96875 12.859375-23.96875 26.546875v269.246094c0 19.410156 9.769531 26.582031 14.59375 54.1875h217.226562v-2c.074219-.15625.148438-.308594.226563-.464844zm0 0" fill="#e4e3e1"/><g fill="#d1d0cf"><path d="m27.777344 351.0625c0-14.667969 0-279.359375 0-295.164062-11.660156 2.820312-20 13.683593-20 26.007812v269.15625c0 19.410156 9.769531 26.582031 14.59375 54.1875h20c-4.824219-27.617188-14.59375-34.757812-14.59375-54.1875zm0 0"/><path d="m69.886719 255.851562c5.523437 0 10-4.476562 10-10v-212.074218c-11.660157 2.820312-20 13.679687-20 26.007812v21.453125c0-.011719 0-.023437 0-.035156v164.648437c0 5.523438 4.476562 10 10 10zm0 0"/><path d="m121.992188 255.851562c5.523437 0 10-4.476562 10-10v-237.632812c-11.433594 2.75-19.996094 13.089844-19.996094 25.335938v25.5625c0-.070313-.003906-.140626-.003906-.214844v186.949218c0 5.523438 4.476562 10 10 10zm0 0"/><path d="m174.113281 255.851562c5.523438 0 10-4.476562 10-10v-212.070312c-11.367187 2.726562-19.898437 12.964844-20 25.113281v186.957031c0 5.523438 4.476563 10 10 10zm0 0"/></g><path d="m239.59375 480.425781v-77.175781h-217.585938c1.5 7.835938 2.261719 15.8125 2.261719 23.824219v53.136719c0 13.414062 10.875 24.285156 24.289063 24.285156h166.960937c13.296875.003906 24.074219-10.777344 24.074219-24.070313zm0 0" fill="#72bdf6"/><path d="m44.265625 480.210938v-53.132813c0-8.015625-.761719-15.992187-2.261719-23.828125h-19.996094c1.5 7.835938 2.261719 15.816406 2.261719 23.828125v53.132813c0 13.414062 10.875 24.289062 24.289063 24.289062h19.996094c-13.414063 0-24.289063-10.875-24.289063-24.289062zm0 0" fill="#4b98d4"/><path d="m239.59375 403.25h-153.933594c-9.070312 0-16.492187 7.421875-16.492187 16.492188v24.742187c0 9.070313 7.421875 16.492187 16.492187 16.492187h153.933594c9.074219 0 16.496094-7.421874 16.496094-16.492187v-24.742187c0-9.070313-7.421875-16.492188-16.496094-16.492188zm0 0" fill="#4b98d4"/><path d="m239.59375 440.640625h-153.933594c-9.070312 0-16.492187-7.421875-16.492187-16.492187v20.332031c0 9.074219 7.421875 16.496093 16.492187 16.496093h153.933594c9.074219 0 16.496094-7.421874 16.496094-16.496093v-20.332031c0 9.070312-7.421875 16.492187-16.496094 16.492187zm0 0" fill="#2472b2"/><path d="m111.996094 403.25h-26.335938c-9.070312 0-16.492187 7.421875-16.492187 16.492188v24.742187c0 9.070313 7.421875 16.492187 16.492187 16.492187h26.335938zm0 0" fill="#2472b2"/><path d="m111.996094 440.640625h-26.335938c-9.070312 0-16.488281-7.417969-16.492187-16.488281v20.328125c0 9.171875 7.5625 16.496093 16.492187 16.496093h26.335938zm0 0" fill="#1c5d9f"/><path d="m255.296875 178.976562c-.054687.125-28.027344 64.203126-28.085937 64.328126-2.519532 5.605468-10.996094 3.625-10.996094-2.519532v.808594l.050781-.035156s-.011719.179687-.015625.511718c-.214844 15.433594 20.929688 20.082032 27.359375 6.050782l31.6875-69.144532c3.101563-7.074218 8.835937-12.214843 15.554687-14.789062-13.621093-5.273438-29.503906.988281-35.554687 14.789062zm0 0" fill="#d1d0cf"/><path d="m295.226562 157.78125c-17.851562-7.824219-38.746093.328125-46.5625 18.15625-.183593.425781-24.523437 56.171875-24.722656 56.632812v-172.789062c0-17.496094-13.332031-32.460938-30.351562-34.066406-7.742188-.734375-15.492188 1.273437-21.882813 5.5625-1.394531-16.203125-14.171875-29.609375-30.230469-31.125-18.828124-1.777344-35.367187 12.386718-36.675781 31.097656-6.382812-4.273438-14.109375-6.269531-21.839843-5.535156-15.003907 1.417968-27.140626 13.210937-29.804688 27.972656-6.472656-4.488281-14.390625-6.601562-22.304688-5.851562-17.019531 1.609374-30.351562 16.574218-30.351562 34.070312v269.15625c0 19.386719 9.78125 30.695312 14.242188 52.496094.015624.367187.046874.734375.117187 1.101562 2.679687 14.011719 2.132813 17.390625 2.132813 75.550782 0 17.527343 14.261718 31.789062 31.789062 31.789062h64.738281c4.144531 0 7.5-3.359375 7.5-7.5 0-4.144531-3.355469-7.5-7.5-7.5h-64.738281c-9.257812 0-16.789062-7.53125-16.789062-16.789062 0-52.828126.382812-58.351563-.914063-69.460938h32.558594c-2.238281 5.523438-1.746094 7.191406-1.746094 33.730469 0 13.230469 10.761719 23.996093 23.992187 23.996093h146.433594v11.945313c0 9.140625-7.433594 16.574219-16.570312 16.574219h-67.21875c-4.144532 0-7.5 3.359375-7.5 7.5 0 4.144531 3.355468 7.503906 7.5 7.503906h67.222656c17.414062 0 31.574219-14.171875 31.574219-31.578125v-13.152344c9.566406-3.160156 16.492187-12.175781 16.492187-22.789062v-24.738281c0-10.550782-6.851562-19.527344-16.335937-22.734376.734375-14.882812 4-32.878906 9.746093-53.621093 1.101563-3.992188-1.238281-8.125-5.230468-9.230469-3.992188-1.105469-8.125 1.234375-9.230469 5.226562-5.960937 21.542969-9.394531 40.457032-10.238281 56.367188h-204.160156c-4.953126-19.929688-12.863282-30.15625-12.863282-44.6875v-269.15625c0-9.84375 7.363282-18.246094 16.761719-19.136719 11.261719-1.058593 20.347656 7.949219 20.347656 18.46875v164.613281c0 4.140626 3.355469 7.5 7.5 7.5s7.5-3.359374 7.5-7.5c0-6.632812 0-181.890624 0-186.070312 0-9.839844 7.363281-18.246094 16.761719-19.132812 11.238281-1.0625 20.347656 7.929687 20.347656 18.46875v186.734374c0 4.140626 3.359375 7.5 7.5 7.5 4.144532 0 7.5-3.359374 7.5-7.5 0-6.777343 0-209.261718 0-212.296874 0-10.550782 9.125-19.535157 20.347656-18.472657 9.398438.890625 16.761719 9.292969 16.761719 19.136719v211.632812c0 4.140626 3.359375 7.5 7.5 7.5 4.144531 0 7.503907-3.359374 7.503907-7.5v-186.734374c0-10.53125 9.097656-19.53125 20.347656-18.46875 9.398437.886718 16.757812 9.292968 16.757812 19.132812v181c0 14.203125 19.519532 18.546875 25.355469 5.570312.125-.292968 27.960937-64.046874 28.097656-64.363281 4.507813-10.277343 16.535157-14.972656 26.8125-10.46875 10.265625 4.5 14.859375 16.496094 10.558594 26.605469-2.046875 3.960938-27.421875 53.4375-46.253906 107.21875-1.367188 3.910156.691406 8.1875 4.601562 9.554688 3.910157 1.371093 8.1875-.6875 9.558594-4.597657 19.167969-54.742187 45.261719-104.988281 45.523437-105.488281.078126-.152344.152344-.304688.222657-.457031 7.816406-17.839844-.351563-38.753907-18.191407-46.574219zm-209.339843 295.695312c-4.953125 0-8.992188-4.03125-8.992188-8.992187v-24.742187c0-4.957032 4.035157-8.992188 8.992188-8.992188h18.835937v42.726562zm153.933593-42.726562c4.960938 0 8.992188 4.035156 8.992188 8.992188v24.742187c0 4.957031-4.03125 8.992187-8.992188 8.992187h-120.097656v-42.726562zm0 0"/></svg>