<svg height="511pt" viewBox="-3 0 511 511.99914" width="511pt" xmlns="http://www.w3.org/2000/svg"><path d="m275.328125 38.222656v-10.074218c0-11.242188-9.199219-20.441407-20.441406-20.441407h-4.605469c-11.246094 0-20.445312 9.199219-20.445312 20.441407v10.074218c14.925781-1.394531 29.722656-1.472656 45.492187 0zm0 0" fill="#525468"/><path d="m249.835938 28.867188c0-8.53125 4.660156-16.027344 11.554687-20.074219-2.046875-.695313-4.230469-1.085938-6.503906-1.085938h-4.605469c-11.246094 0-20.445312 9.199219-20.445312 20.441407v10.074218c6.597656-.617187 13.265624-.964844 20-1.042968zm0 0" fill="#3e4151"/><path d="m164.964844 285.964844h175.238281c66.582031 0 125.132813 36.105468 157.066406 89.703125v-96.835938c0-134.507812-110.042969-244.683593-244.6875-244.683593-134.574219 0-244.683593 110.109374-244.683593 244.683593v96.835938c31.929687-53.597657 90.480468-89.703125 157.066406-89.703125zm0 0" fill="#72bdf6"/><path d="m27.898438 271.832031c0-102.730469 64.167968-191.195312 154.398437-227.3125-100.597656 30.386719-174.398437 124.144531-174.398437 234.3125v96.835938c5.816406-9.765625 12.527343-18.941407 20-27.433594zm0 0" fill="#4b98d4"/><path d="m340.203125 285.964844h-175.238281c-66.585938 0-125.136719 36.105468-157.066406 89.703125v98.914062.660157c.066406 24.175781 27.9375 38.097656 47.214843 23.507812 30.625-23.183594 68.707031-36.96875 109.851563-36.96875h175.238281c41.144531 0 79.222656 13.785156 109.847656 36.96875 19.277344 14.589844 47.152344.667969 47.214844-23.507812.003906-.222657.003906-.441407.003906-.660157v-98.914062c-31.933593-53.597657-90.484375-89.703125-157.066406-89.703125zm0 0" fill="#e4e3e1"/><path d="m27.902344 475.078125c-.003906-.21875-.003906-.441406-.003906-.660156v-126.347657c-7.472657 8.492188-14.183594 17.667969-20 27.433594v98.914063.660156c.058593 21.15625 21.414062 34.460937 39.664062 27.675781-10.980469-3.960937-19.625-14.226562-19.660156-27.675781zm0 0" fill="#d1d0cf"/><path d="m470.054688 498.585938c-30.628907-23.179688-68.707032-36.96875-109.851563-36.96875h-20c41.144531 0 79.222656 13.785156 109.847656 36.96875 8.554688 6.472656 18.796875 7.324218 27.554688 4.167968-2.605469-.96875-5.144531-2.34375-7.550781-4.167968zm0 0" fill="#d1d0cf"/><path d="m129.613281 137.039062v152.394532c11.445313-2.265625 23.265625-3.472656 35.351563-3.472656h175.238281c12.085937 0 23.902344 1.207031 35.351563 3.472656v-152.394532c0-43.980468-27.972657-81.730468-67-96.378906-36.726563-8.679687-75.183594-8.6875-111.941407 0-39.027343 14.648438-67 52.398438-67 96.378906zm0 0" fill="#4b98d4"/><path d="m149.613281 137.039062c0-43.980468 27.972657-81.730468 67-96.378906 14.859375-3.511718 30.230469-5.640625 45.972657-6.285156-21.992188-.898438-43.910157 1.070312-65.972657 6.285156-39.027343 14.648438-67 52.398438-67 96.378906v152.394532c6.550781-1.296875 13.226563-2.234375 20-2.808594zm0 0" fill="#2472b2"/><path d="m317.464844 194.722656h-129.761719c-7.601563 0-13.820313 6.21875-13.820313 13.820313v25.339843c0 7.601563 6.21875 13.820313 13.820313 13.820313h129.761719c7.601562 0 13.820312-6.21875 13.820312-13.820313v-25.339843c0-7.601563-6.21875-13.820313-13.820312-13.820313zm0 0" fill="#e4e3e1"/><path d="m317.464844 227.703125h-129.761719c-7.601563 0-13.820313-6.21875-13.820313-13.820313v20c0 7.601563 6.21875 13.820313 13.820313 13.820313h129.761719c7.601562 0 13.820312-6.21875 13.820312-13.820313v-20c0 7.601563-6.21875 13.820313-13.820312 13.820313zm0 0" fill="#d1d0cf"/><path d="m340.203125 285.964844h-175.238281c-42.074219 0-80.925782 14.425781-111.894532 38.558594v99.976562c0 9.605469 9.910157 16.050781 18.660157 12.089844 29.085937-13.160156 60.640625-19.980469 93.234375-19.980469h175.238281c32.414063 0 63.804687 6.746094 92.761719 19.769531 8.980468 4.035156 19.128906-2.546875 19.128906-12.394531v-99.460937c-30.964844-24.132813-69.820312-38.558594-111.890625-38.558594zm0 0" fill="#d1d0cf"/><path d="m73.070312 424.5v-113.542969c-6.96875 4.089844-13.652343 8.621094-20 13.566407v99.976562c0 9.605469 9.910157 16.050781 18.660157 12.089844 1.832031-.828125 3.679687-1.632813 5.53125-2.410156-2.542969-2.375-4.191407-5.765626-4.191407-9.679688zm0 0" fill="#c1c1c1"/><path d="m187.804688 254.996094h129.761718c11.757813 0 21.320313-9.5625 21.320313-21.320313v-25.339843c0-11.753907-9.5625-21.320313-21.320313-21.320313h-47.378906c-4.144531 0-7.503906 3.359375-7.503906 7.5 0 4.144531 3.359375 7.5 7.503906 7.5h47.378906c3.484375 0 6.320313 2.835937 6.320313 6.320313v25.339843c0 3.484375-2.835938 6.320313-6.320313 6.320313h-129.761718c-3.484376 0-6.320313-2.835938-6.320313-6.320313v-25.339843c0-3.484376 2.835937-6.320313 6.320313-6.320313h47.378906c4.144531 0 7.5-3.355469 7.5-7.5 0-4.140625-3.355469-7.5-7.5-7.5h-47.378906c-11.757813 0-21.320313 9.566406-21.320313 21.320313v25.339843c0 11.757813 9.5625 21.320313 21.320313 21.320313zm0 0"/><path d="m497.371094 422.109375c4.140625 0 7.5-3.359375 7.5-7.503906 0-5.703125 0-129.15625 0-135.980469 0-67.089844-26.308594-130.347656-74.074219-178.113281-40.515625-40.515625-92.171875-65.582031-147.863281-72.261719v-.304688c0-15.410156-12.535156-27.945312-27.945313-27.945312h-4.605469c-15.40625 0-27.945312 12.535156-27.945312 27.945312v.304688c-55.6875 6.679688-107.347656 31.746094-147.863281 72.261719-47.769531 47.765625-74.074219 111.023437-74.074219 178.113281v196.429688c.082031 30.433593 35.125 47.722656 59.242188 29.46875 30.636718-23.191407 67.058593-35.449219 105.324218-35.449219h175.238282c38.265624 0 74.683593 12.257812 105.324218 35.449219 24.203125 18.320312 59.15625.851562 59.238282-29.457032l.003906-25.457031c0-4.144531-3.359375-7.5-7.503906-7.5-4.140626 0-7.5 3.355469-7.5 7.5v25.40625c-.050782 18.046875-20.828126 28.414063-35.1875 17.546875-33.265626-25.179688-72.816407-38.488281-114.375-38.488281h-175.238282c-41.5625 0-81.113281 13.308593-114.378906 38.488281-14.375 10.882812-35.136719.472656-35.1875-17.527344v-97.445312c8.175781-13.375 18.199219-25.78125 30.171875-36.929688v83.632813c0 15.046875 15.546875 25.125 29.25 18.921875 28.328125-12.816406 58.65625-19.3125 90.144531-19.3125h175.238282c31.3125 0 61.488281 6.429687 89.683593 19.109375 13.9375 6.265625 29.707031-3.949219 29.707031-19.234375v-83.117188c11.808594 10.996094 21.785157 23.21875 30.171876 36.929688v37.015625c.003906 4.144531 3.359374 7.503906 7.503906 7.503906zm-246.988282-407.109375h4.605469c6.789063 0 12.375 5.253906 12.902344 11.910156-9.863281-.625-20.15625-.613281-30.410156 0 .527343-6.65625 6.113281-11.910156 12.902343-11.910156zm-51.472656 32.640625c35.3125-8.265625 72.628906-8.175781 107.550782 0 36.921874 14.066406 61.695312 49.847656 61.695312 89.191406v143.449219c-9.453125-1.386719-18.992188-2.027344-27.851562-2.027344h-175.238282c-8.785156 0-18.359375.632813-27.851562 2.027344v-143.449219c0-39.339843 24.773437-75.125 61.695312-89.191406zm-183.410156 303.675781v-72.691406c0-93.457031 54.339844-174.449219 133.074219-213.078125-16.597657 19.582031-26.359375 44.726563-26.359375 71.285156v146.277344c-42.753906 9.890625-80.390625 34.707031-106.714844 68.207031zm429.195312 72.460938c0 4.402344-4.53125 7.363281-8.554687 5.550781-30.140625-13.554687-62.386719-20.425781-95.835937-20.425781h-175.238282c-33.632812 0-66.042968 6.945312-96.324218 20.648437-3.769532 1.707031-8.070313-1.085937-8.070313-5.257812v-96.152344c30.347656-22.585937 67.167969-34.886719 104.394531-34.886719h175.238282c37.160156 0 74.011718 12.277344 104.394531 34.886719v95.636719zm-61.539062-140.667969v-146.273437c0-26.5625-9.761719-51.707032-26.359375-71.289063 78.734375 38.628906 133.074219 119.621094 133.074219 213.078125v72.691406c-26.179688-33.304687-63.644532-58.242187-106.714844-68.207031zm0 0"/></svg>