<svg height="511pt" viewBox="1 -111 511.999 511" width="511pt" xmlns="http://www.w3.org/2000/svg"><path d="m190.183594 160.933594c57.949218-21.242188 74.054687-47.855469 88.582031-57.496094 1.015625-.507812 8.242187-5.96875 20.324219-7.332031 10.082031-1.136719 19.738281.902343 25.183594 9.421875 7.558593 11.824218 17.121093 24.042968 28.539062 32.304687 8.320312 6.015625 17.71875 10 28.101562 10 16.304688 0 25.28125-3.195312 32.300782-7.554687v-89.476563c0-13.089843-15.480469-22.273437-30.40625-18.089843-30.433594 8.527343-26.644532 27.523437-66.386719 27.523437-25.097656 0-44.457031-23.238281-56.644531-42.308594-5.789063-9.058593-16.027344-10.453125-25.183594-9.417969-9.957031 1.121094-19.03125 5.355469-25.730469 11.582032l-8.652343 8.042968c-27.683594 25.71875-62.964844 44.992188-102.359376 55.902344l-14.289062 3.960938c-37.777344 10.464844-63.257812 13.789062-63.257812 72.9375zm0 0" fill="#4b98d4"/><path d="m66.25 92.78125c-28.046875 8.21875-45.945312 18.578125-45.945312 68.152344h20c0-41.070313 9.679687-58.253906 25.945312-68.152344zm0 0" fill="#2472b2"/><path d="m190.183594 160.933594c76.203125-27.9375 74.585937-60.957032 108.90625-64.828125 10.085937-1.136719 19.738281.902343 25.183594 9.421875 7.542968 11.792968 17.105468 24.035156 28.539062 32.304687 8.320312 6.015625 17.71875 10 28.101562 10 16.304688 0 25.28125-3.195312 32.300782-7.554687v-28.902344c-10.628906 8.011719-13.347656 12.457031-32.300782 12.457031-15.410156 0-30.144531-17.988281-39.789062-33.078125-5.238281-8.191406-17.957031-21.496094-44.277344-18.523437-13.957031 1.574219-27.132812 7.542969-37.105468 16.804687l-8.65625 8.042969c-25.296876 23.507813-57.828126 41.238281-94.082032 51.28125l-14.289062 3.957031c-2.125.589844-4.210938 1.15625-6.253906 1.710938-7.664063 2.078125-15.378907 4.171875-22.765626 6.90625zm0 0" fill="#2472b2"/><path d="m97.085938 119.171875h-9.695313c-15.019531 0-29.382813-7.421875-37.996094-20.308594-18.160156 8.539063-29.089843 23.328125-29.089843 62.070313h140.210937c-10.902344-25.34375-35.839844-41.761719-63.429687-41.761719zm0 0" fill="#d1d0cf"/><path d="m40.304688 160.933594c0-28.765625 4.753906-45.804688 13.1875-56.839844-1.476563-1.632812-2.855469-3.371094-4.097657-5.230469-24.5625 11.164063-29.089843 35.007813-29.089843 62.070313zm0 0" fill="#c1c1c1"/><path d="m160.515625 160.933594c-1.796875-4.171875-3.976563-8.09375-6.480469-11.75l-11.320312 3.132812c-2.125.589844-4.210938 1.15625-6.253906 1.710938-7.664063 2.078125-15.378907 4.171875-22.765626 6.90625zm0 0" fill="#c1c1c1"/><path d="m256.761719 70.042969c3.71875 2.984375 9.078125 2.730469 12.445312-.648438l19.113281-19.164062c-11.785156-8.523438-21.398437-21.128907-28.542968-32.304688-5.789063-9.058593-16.027344-10.453125-25.183594-9.417969-7.484375.84375-14.46875 3.445313-20.320312 7.332032 8.933593 16.8125 23.082031 38.609375 42.488281 54.203125zm0 0" fill="#d1d0cf"/><path d="m379.785156 110.316406h-36.285156c-5.066406 0-9.953125.757813-14.570312 2.148438 6.582031 9.324218 14.554687 18.621094 23.882812 25.367187 3.0625 2.214844 6.273438 4.152344 9.625 5.71875 17.675781 5.945313 38.21875 3.523438 50.777344-4.273437v-45.378906c-7.871094 10.226562-20.179688 16.417968-33.429688 16.417968zm0 0" fill="#72bdf6"/><path d="m352.8125 137.832031c3.0625 2.214844 6.273438 4.148438 9.625 5.714844 17.675781 5.949219 38.21875 3.527344 50.777344-4.269531v-27.902344c-10.628906 8.011719-13.34375 12.457031-32.300782 12.457031-8.730468 0-17.238281-5.773437-24.726562-13.515625h-12.6875c-5.066406 0-9.953125.757813-14.570312 2.148438 6.582031 9.324218 14.554687 18.621094 23.882812 25.367187zm0 0" fill="#4b98d4"/><path d="m123.886719 182.464844c9.566406-4.5 21.136719-8.261719 34.167969-11.871094l14.292968-3.957031c7.085938-1.964844 14.035156-4.207031 20.835938-6.703125h-172.878906c-7.097657 0-12.90625 5.808594-12.90625 12.90625v13.015625c0 7.097656 5.808593 12.90625 12.90625 12.90625h84.199218c4.761719-7.445313 11.210938-12.453125 19.382813-16.296875zm0 0" fill="#e4e3e1"/><path d="m131.117188 159.933594h-14.625c-11.105469 3.84375-21.585938 8.9375-30.167969 17.335937-1.359375 1.328125-3.179688 2.078125-5.078125 2.078125h-60.941406c-5.992188 0-11.050782-4.148437-12.484376-9.707031-.265624 1.027344-.421874 2.09375-.421874 3.199219v13.015625c0 7.097656 5.808593 12.90625 12.90625 12.90625h84.199218s.003906-.003907.007813-.003907c10.308593-16.132812 33.558593-22.628906 53.542969-28.164062l14.292968-3.960938c7.085938-1.960937 14.035156-4.207031 20.835938-6.699218zm0 0" fill="#d1d0cf"/><path d="m84.796875 244.535156c0-59.152344 25.480469-62.476562 63.257813-72.941406l14.292968-3.957031c39.390625-10.914063 74.671875-30.183594 102.355469-55.90625 9.453125-8.78125 17.199219-17.683594 34.386719-19.625 9.152344-1.03125 19.390625.363281 25.179687 9.417969 12.191407 19.070312 31.550781 42.308593 56.644531 42.308593 39.742188 0 35.953126-18.996093 66.386719-27.523437 14.929688-4.183594 30.40625 5 30.40625 18.089844v110.132812h-392.910156zm0 0" fill="#4b98d4"/><path d="m134.464844 175.316406c-30.171875 8.453125-49.667969 17.476563-49.667969 69.21875h20c0-44.203125 11.207031-60.007812 29.667969-69.21875zm0 0" fill="#2472b2"/><path d="m444.277344 193.914062h-32.285156c-27.953126 0-50.617188 22.664063-50.617188 50.621094h116.332031v-67.039062c-7.871093 10.226562-20.179687 16.417968-33.429687 16.417968zm0 0" fill="#72bdf6"/><path d="m431.996094 193.914062h-20.003906c-27.953126 0-50.617188 22.664063-50.617188 50.621094h20.003906c0-27.957031 22.660156-50.621094 50.617188-50.621094zm0 0" fill="#2472b2"/><path d="m161.582031 202.769531h-9.699219c-15.019531 0-29.382812-7.417969-37.996093-20.304687-18.15625 8.535156-29.089844 23.328125-29.089844 62.070312h140.210937c-10.902343-25.34375-35.839843-41.765625-63.425781-41.765625zm0 0" fill="#d1d0cf"/><path d="m104.796875 244.535156c0-29.085937 4.855469-45.871094 13.429687-56.578125-1.566406-1.710937-3.03125-3.535156-4.339843-5.492187-8.144531 3.824218-14.605469 8.828125-19.371094 16.277344-8.167969 12.769531-9.71875 30.640624-9.71875 45.792968zm0 0" fill="#c1c1c1"/><path d="m321.253906 153.640625c3.71875 2.988281 9.078125 2.730469 12.445313-.644531l19.113281-19.164063c-11.78125-8.523437-21.394531-21.128906-28.539062-32.308593-5.792969-9.054688-16.03125-10.449219-25.183594-9.417969-7.484375.84375-14.472656 3.449219-20.324219 7.332031 8.933594 16.8125 23.082031 38.609375 42.488281 54.203125zm0 0" fill="#d1d0cf"/><path d="m240.652344 12.09375c2.511718-1.09375 5.15625-1.980469 7.898437-2.625-4.453125-1.382812-9.34375-1.480469-13.957031-.960938-7.484375.84375-14.46875 3.445313-20.324219 7.332032 8.9375 16.8125 23.085938 38.613281 42.5 54.207031 3.714844 2.984375 9.070313 2.722656 12.4375-.652344l2.871094-2.882812c-14.945313-13.183594-26.519531-29.828125-34.730469-44.164063-2.132812-3.726562-.632812-8.539062 3.304688-10.253906zm0 0" fill="#c1c1c1"/><path d="m302.914062 107.796875c-2.84375-4.859375-.644531-11.117187 4.640626-13.074219 1.777343-.65625 3.609374-1.210937 5.492187-1.65625-4.457031-1.378906-9.34375-1.480468-13.957031-.960937-7.484375.84375-14.46875 3.449219-20.324219 7.332031 8.933594 16.816406 23.085937 38.617188 42.496094 54.210938 3.714843 2.984374 9.074219 2.71875 12.4375-.652344l2.875-2.882813c-14.308594-12.621093-25.523438-28.410156-33.660157-42.316406zm0 0" fill="#c1c1c1"/><path d="m477.707031 242.535156h-392.910156c-7.097656 0-12.90625 5.804688-12.90625 12.90625v14.015625c0 7.097657 5.808594 12.902344 12.90625 12.902344h392.910156c7.097657 0 12.90625-5.804687 12.90625-12.902344v-14.015625c0-7.101562-5.808593-12.90625-12.90625-12.90625zm0 0" fill="#e4e3e1"/><path d="m477.707031 262.445312h-392.910156c-6.082031 0-11.207031-4.265624-12.550781-9.953124-.222656.949218-.355469 1.929687-.355469 2.949218v14.015625c0 7.097657 5.808594 12.902344 12.90625 12.902344h392.910156c7.097657 0 12.90625-5.804687 12.90625-12.902344v-14.015625c0-1.015625-.132812-2-.355469-2.949218-1.34375 5.6875-6.46875 9.953124-12.550781 9.953124zm0 0" fill="#d1d0cf"/><path d="m484.421875 127.828125c-5.078125-18.121094-31.371094-31.03125-63.605469-6.664063 0-16.597656 0-24.988281 0-37.230468 13.441406 3.9375 26.6875-6.230469 26.6875-19.996094 0-11.492188-9.351562-20.84375-20.84375-20.84375-2.359375 0-4.617187.410156-6.734375 1.136719-4.136719-14.777344-21.808593-23.777344-39.039062-18.949219-32.894531 9.214844-27.394531 27.242188-64.363281 27.242188-8.710938 0-16.589844-3.433594-23.707032-8.578126-27.617187-19.972656-23.347656-42.359374-51.390625-43.40625-24.972656-.933593-38.601562 14.8125-46.21875 21.890626-2.933593 2.726562-5.976562 5.363281-9.085937 7.941406-2.441406-.980469-5.324219-.648438-7.515625 1.121094-2.113281 1.707031-3.050781 4.328124-2.710938 6.839843-3.320312 2.433594-6.71875 4.78125-10.195312 7.050781-2.398438-2.980468-6.710938-3.703124-9.964844-1.558593-3.101563 2.042969-4.183594 5.988281-2.734375 9.273437-3.191406 1.804688-6.417969 3.558594-9.710938 5.226563-2.148437-3.464844-6.683593-4.59375-10.203124-2.5-3.089844 1.835937-4.378907 5.546875-3.28125 8.824219-3.195313 1.386718-6.441407 2.695312-9.714844 3.957031-2.144532-2.566407-5.824219-3.464844-8.980469-1.957031-2.652344 1.269531-4.210937 3.894531-4.257813 6.648437-38.707031 12.550781-67.230468 13.617187-82.546874 36.765625-7.183594 10.691406-10.714844 25.070312-11.304688 44.574219-7.597656 2.976562-13 10.359375-13 18.996093v12.015626c0 11.25 9.152344 20.40625 20.40625 20.40625h62.25c-3.121094 8.789062-4.777344 19.382812-5.164062 32.183593-7.597657 2.972657-13 10.355469-13 18.992188v12.015625c0 11.253906 9.152343 20.40625 20.40625 20.40625h196.453124c4.144532 0 7.5-3.355469 7.5-7.5 0-4.140625-3.355468-7.5-7.5-7.5h-196.453124c-2.976563 0-5.402344-2.425782-5.402344-5.40625v-12.015625c0-2.980469 2.425781-5.402344 5.402344-5.402344h392.910156c2.980468 0 5.40625 2.421875 5.40625 5.402344v12.015625c0 2.980468-2.425782 5.40625-5.40625 5.40625h-161.453125c-4.140625 0-7.5 3.359375-7.5 7.5 0 4.144531 3.359375 7.5 7.5 7.5h161.453125c11.253906 0 20.40625-9.152344 20.40625-20.40625v-12.015625c0-8.601563-5.359375-15.960938-12.90625-18.957031v-70.738282c13.441406 3.9375 26.691406-6.234375 26.691406-19.996094 0-14.164062-13.972656-24.371093-27.578125-19.710937zm-57.761719-69.734375c3.222656 0 5.84375 2.625 5.84375 5.847656s-2.621094 5.84375-5.84375 5.84375-5.84375-2.621094-5.84375-5.84375 2.621094-5.847656 5.84375-5.847656zm-173.070312-36.289062c6.570312 10.273437 14.5 20.601562 23.652344 28.808593l-13.246094 13.277344c-.644532.652344-1.691406.695313-2.4375.097656h.003906c-16.222656-13.03125-28.632812-30.855469-36.96875-45.363281 9.289062-3.945312 23.414062-5.472656 28.996094 3.179688zm-140.96875 65.390624 2.941406 6.152344c1.789062 3.738282 6.265625 5.316406 10.003906 3.527344 3.738282-1.785156 5.316406-6.265625 3.53125-10l-2.289062-4.785156c3.558594-1.394532 7.085937-2.84375 10.558594-4.378906l2.554687 4.300781c1.402344 2.363281 3.894531 3.671875 6.453125 3.671875 5.78125 0 9.417969-6.328125 6.441406-11.332032l-1.847656-3.109374c3.457031-1.769532 6.851562-3.625 10.199219-5.535157l2.609375 3.960938c1.441406 2.1875 3.832031 3.375 6.269531 3.375 5.925781 0 9.550781-6.628907 6.257813-11.628907l-2.324219-3.527343c3.566406-2.328125 7.058593-4.734375 10.46875-7.226563l4.664062 5.773438c1.484375 1.835937 3.652344 2.789062 5.839844 2.789062 6.261719 0 9.796875-7.304687 5.828125-12.214844l-4.503906-5.578124c3.121094-2.605469 6.183594-5.261719 9.140625-8.011719l6.777343-6.292969c9.03125 15.535156 22.378907 34.421875 39.972657 48.558594 6.726562 5.40625 16.378906 4.890625 22.453125-1.199219l14.800781-14.839844c8.804687 5.238281 17.851563 7.882813 27.101563 7.882813 25.945312 0 35.824218-7.777344 45.375-15.300782 6.132812-4.828124 11.921874-9.386718 23.035156-12.5 10.304687-2.886718 20.882812 3.070313 20.882812 10.867188v40.386719c-6.519531 7.316406-16.035156 11.628906-25.929687 11.628906-34.902344 0-36.800781-.378906-44.703125 1.347656-5.542969-7.851562-11.171875-21.324219-34.378906-19.726562-24.636719 1.632812-32.132813 14.789062-50.191407 29.742187-2.4375-.980468-5.320312-.652344-7.511719 1.121094-2.117187 1.707031-3.050781 4.328125-2.714843 6.839844-3.316407 2.433594-6.714844 4.78125-10.195313 7.050781-5.460937-6.796875-16.199218-.234375-12.699218 7.71875-3.1875 1.800781-6.414063 3.554687-9.710938 5.222656-2.144531-3.464843-6.679688-4.59375-10.203125-2.5-3.089844 1.835938-4.378906 5.550781-3.277344 8.824219-5.503906 2.386719-8.714843 3.574219-9.714843 3.957031-3.339844-3.992187-9.617188-3.4375-12.21875 1.019531h-7c-13.007813-25.523437-39.242188-41.761718-68.175782-41.761718-10.59375 0-22.878906 1.257812-35.144531-9.707032 11.839844-3.941406 33.820313-9.046874 50.574219-14.5625zm293.195312 23.09375v21.351563c-6.367187 3.082031-13.308594 4.097656-20.429687 4.394531-16.214844.683594-27.40625-5.898437-39.160157-18.402344 28.363282-.90625 42.023438 3.355469 59.589844-7.34375zm-64.082031 23.925782-13.242187 13.277344c-.648438.648437-1.695313.691406-2.4375.097656-16.222657-13.035156-28.628907-30.855469-36.964844-45.363282 8.070312-3.414062 23.148437-5.96875 28.964844 3.132813 6.648437 10.394531 14.515624 20.660156 23.679687 28.855469zm-294.308594-25.945313c17.101563 19.601563 37.976563 18.191407 49.761719 18.191407 20.578125 0 39.457031 10.207031 50.78125 26.765624h-119.914062c.75-18.183593 4.015624-35.4375 19.371093-44.957031zm-27.019531 82.785157c-2.980469 0-5.40625-2.425782-5.40625-5.40625v-12.015626c0-2.980468 2.425781-5.40625 5.40625-5.40625h110.925781c-16.332031 4.648438-30.871093 9.957032-40.683593 22.828126zm72.140625 45.773437c.753906-18.238281 3.925781-35.320313 19.382813-44.945313 17.417968 19.949219 38.980468 18.179688 49.753906 18.179688 20.574218 0 39.457031 10.207031 50.78125 26.765625zm277.085937 0c3.558594-20.214844 21.246094-35.621094 42.464844-35.621094 33.84375 0 43.457032 1.671875 58.210938-7.316406v42.9375zm100.675782-62.25c-6.519532 7.316406-16.035156 11.628906-25.929688 11.628906h-32.28125c-29.503906 0-53.925781 22.105469-57.621094 50.621094h-124.617187c-13.007813-25.527344-39.242187-41.765625-68.175781-41.765625-10.519532 0-22.863282 1.261719-35.128906-9.695312 12.066406-4.042969 33.9375-9.089844 50.5625-14.566407l2.9375 6.144531c1.789062 3.738282 6.261718 5.320313 10.003906 3.53125 3.734375-1.789062 5.316406-6.265624 3.527344-10.003906l-2.28125-4.765625c2.324218-.910156 6.765624-2.726562 10.554687-4.390625l2.554687 4.296875c1.402344 2.359375 3.894532 3.671875 6.453126 3.671875 5.78125 0 9.417968-6.328125 6.441406-11.332031l-1.832032-3.085937c3.460938-1.769532 6.871094-3.601563 10.21875-5.507813l2.574219 3.910156c1.441407 2.1875 3.832031 3.375 6.269531 3.375 5.925782 0 9.550782-6.628906 6.257813-11.628906l-2.300781-3.488281c3.566406-2.332032 7.054687-4.746094 10.464844-7.242188l4.644531 5.75c2.605469 3.222656 7.324219 3.726563 10.546875 1.121094 3.226562-2.601562 3.726562-7.324219 1.121094-10.546875l-4.484376-5.550781c5.785157-4.835938 9.980469-8.835938 15.898438-14.332032 9.03125 15.535157 22.375 34.421876 39.96875 48.558594h.003906c6.734375 5.40625 16.386719 4.886719 22.453125-1.199218l14.796875-14.839844c11.570313 6.882812 24.15625 9.878906 42.910156 6.695312 27.121094-4.515625 28.484376-19.855468 52.605469-26.617187 10.3125-2.886719 20.882813 3.078125 20.882813 10.871093zm20.84375-21.195313c-3.222656 0-5.84375-2.621093-5.84375-5.84375 0-3.222656 2.621094-5.84375 5.84375-5.84375s5.847656 2.621094 5.847656 5.84375c0 3.222657-2.625 5.84375-5.847656 5.84375zm0 0"/></svg>