<svg height="511pt" viewBox="-21 0 511 511.998" width="511pt" xmlns="http://www.w3.org/2000/svg"><path d="m216.117188 289.78125v84.253906h38.003906v-84.253906c-12.421875 2.121094-25.324219 2.164062-38.003906 0zm0 0" fill="#f3a334"/><path d="m236.117188 291.367188c-6.738282.058593-13.171876-.421876-20-1.585938v84.253906h20zm0 0" fill="#e87e04"/><path d="m122.300781 219.414062c-94.03125-36.296874-91.773437-138.515624-63.777343-151.269531 10.480468-4.773437 23.644531 1.453125 32.84375 7.519531 6.886718 4.539063 13.882812 8.722657 20.976562 12.5625v-36.714843c-1.183594-.75-2.363281-1.507813-3.539062-2.285157-28.75-18.960937-50.351563-15.847656-63.410157-9.902343-61.289062 27.921875-51.953125 188.316406 97.964844 219.09375 1.925781.394531 3.136719.324219 5.550781.324219-11.210937-11.207032-20.292968-24.535157-26.609375-39.328126zm0 0" fill="#f3a334"/><path d="m65.394531 39.324219c3.296875-1.5 7.140625-2.820313 11.503907-3.652344-13.25-2.339844-23.847657.164063-31.503907 3.652344-61.296875 27.925781-51.949219 188.316406 97.964844 219.09375 1.925781.394531 3.136719.324219 5.550781.324219-1.695312-1.695313-3.335937-3.445313-4.933594-5.234376-130.957031-39.8125-137.257812-187.449218-78.582031-214.183593zm0 0" fill="#e87e04"/><path d="m424.84375 39.324219c-13.054688-5.949219-34.660156-9.0625-63.410156 9.902343-1.175782.777344-2.355469 1.535157-3.535156 2.285157v36.714843c7.089843-3.839843 14.089843-8.023437 20.976562-12.5625 9.195312-6.070312 22.359375-12.292968 32.839844-7.523437 27.984375 12.75 30.285156 114.960937-63.78125 151.273437-6.3125 14.792969-15.394532 28.121094-26.605469 39.324219 2.460937 0 3.644531.070313 5.550781-.324219 149.914063-30.773437 159.25-191.171874 97.964844-219.089843zm0 0" fill="#f3a334"/><path d="m379.898438 74.996094v-19.28125c0-2.609375 1.324218-5.027344 3.503906-6.464844.011718-.007812.023437-.015625.035156-.023438 11.449219-7.550781 21.761719-11.59375 30.855469-13.359374-13.007813-2.734376-30.832031-1.167969-52.859375 13.359374-1.175782.777344-2.355469 1.535157-3.539063 2.285157v36.714843c7.09375-3.839843 14.09375-8.023437 20.976563-12.5625.335937-.222656.679687-.445312 1.027344-.667968zm0 0" fill="#e87e04"/><path d="m433.714844 68.144531c-6.296875-2.871093-13.566406-1.761719-20.363282.894531 26.722657 16.6875 26.21875 115.003907-65.417968 150.375-6.3125 14.796876-15.394532 28.125-26.605469 39.328126 2.417969 0 3.640625.066406 5.492187-.3125 7.796876-1.597657 15.191407-3.546876 22.214844-5.792969 12.480469-14.257813 17.351563-29.105469 41.289063-42.925781 73.476562-42.417969 68.964843-129.917969 43.390625-141.566407zm0 0" fill="#e87e04"/><path d="m348.074219 7.707031h-225.910157c-6.53125 0-11.824218 5.292969-11.824218 11.824219v150.957031c0 68.914063 55.867187 124.777344 124.777344 124.777344 68.914062 0 124.777343-55.863281 124.777343-124.777344v-150.957031c.003907-6.53125-5.289062-11.824219-11.820312-11.824219zm0 0" fill="#ffc964"/><path d="m130.21875 170.488281v-150.957031c0-6.53125 5.292969-11.824219 11.824219-11.824219h-19.878907c-6.53125 0-11.824218 5.292969-11.824218 11.824219v150.957031c0 72.546875 61.769531 130.132813 134.71875 124.382813-64.265625-5.066406-114.839844-58.816406-114.839844-124.382813zm0 0" fill="#f3a334"/><path d="m323.328125 465.015625v-80.652344c0-8.363281-6.839844-15.203125-15.199219-15.203125h-146.019531c-8.359375 0-15.199219 6.839844-15.199219 15.203125v80.652344zm0 0" fill="#a5490a"/><path d="m182.113281 369.160156h-20.003906c-8.359375 0-15.199219 6.839844-15.199219 15.203125v80.652344h20v-80.652344c0-8.363281 6.839844-15.203125 15.203125-15.203125zm0 0" fill="#8f3f08"/><path d="m282.398438 401.675781h-94.558594c-5.414063 0-9.84375 4.429688-9.84375 9.84375v53.496094h114.246094v-53.496094c0-5.414062-4.429688-9.84375-9.84375-9.84375zm0 0" fill="#8f3f08"/><path d="m207.84375 401.675781h-20.003906c-5.414063 0-9.84375 4.429688-9.84375 9.84375v53.496094h20v-53.496094c.003906-5.414062 4.433594-9.84375 9.847656-9.84375zm0 0" fill="#843a08"/><path d="m348.074219 464.015625h-225.910157c-6.53125 0-11.824218 5.292969-11.824218 11.820313v27.871093h249.554687v-27.871093c.003907-6.527344-5.289062-11.820313-11.820312-11.820313zm0 0" fill="#ba5a19"/><path d="m142.164062 464.015625h-20c-6.53125 0-11.824218 5.292969-11.824218 11.820313v27.871093h20.003906v-27.871093c0-6.527344 5.292969-11.820313 11.820312-11.820313zm0 0" fill="#a5490a"/><path d="m348.074219 7.707031h-225.910157c-6.53125 0-11.824218 5.292969-11.824218 11.824219v27.867188h249.554687v-27.867188c.003907-6.53125-5.289062-11.824219-11.820312-11.824219zm0 0" fill="#ffe183"/><path d="m130.21875 19.53125c0-6.53125 5.292969-11.824219 11.824219-11.824219-20.546875 0-23.128907-.824219-27.398438 2.699219-2.628906 2.167969-4.300781 5.453125-4.300781 9.125v27.867188h19.875zm0 0" fill="#ffc964"/><path d="m281.574219 110.898438c-25.65625-25.660157-67.257813-25.660157-92.914063 0-25.660156 25.65625-25.660156 67.257812 0 92.914062 25.65625 25.660156 67.257813 25.660156 92.914063 0 25.660156-25.65625 25.660156-67.257812 0-92.914062zm0 0" fill="#e4e3e1"/><path d="m208.539062 203.8125c-38.160156-38.160156-16.351562-103.347656 36.519532-111.398438-19.953125-3.035156-41.03125 3.117188-56.398438 18.484376-25.65625 25.65625-25.65625 67.257812 0 92.914062 15.367188 15.367188 36.449219 21.519531 56.398438 18.484375-13.367188-2.035156-26.226563-8.191406-36.519532-18.484375zm0 0" fill="#d1d0cf"/><path d="m1.402344 125.757812c6.222656 55.109376 45.890625 120.773438 138.550781 139.800782 1.339844.273437 2.710937.421875 4.078125.460937 17.648438 16.8125 39.921875 28.8125 64.6875 33.871094v61.5625h-46.503906c-12.519532 0-22.703125 10.183594-22.703125 22.699219v73.152344h-17.242188c-10.65625 0-19.324219 8.667968-19.324219 19.324218v20.367188h-5.167968c-4.144532 0-7.5 3.359375-7.5 7.5 0 4.144531 3.355468 7.5 7.5 7.5h274.890625c4.144531 0 7.5-3.355469 7.5-7.5 0-4.140625-3.355469-7.5-7.5-7.5h-5.167969v-20.367188c0-10.65625-8.667969-19.324218-19.324219-19.324218h-17.242187v-73.152344c0-12.515625-10.1875-22.699219-22.703125-22.699219h-46.503907v-61.5625c24.765626-5.058594 47.039063-17.058594 64.683594-33.875 5.1875-.136719 62.1875-9.421875 102.722656-53.480469 26.09375-28.363281 35.582032-59.054687 38.945313-79.804687.664063-4.089844-2.113281-7.941407-6.203125-8.605469-4.097656-.664062-7.941406 2.117188-8.601562 6.203125-3.53125 21.769531-21.746094 91.664063-110.34375 116.773437 4.9375-6.910156 9.191406-14.277343 12.730468-22.058593 48.671875-19.863281 77.078125-60.042969 81.914063-102.84375 4.585937-40.609375-14.078125-83.789063-60.726563-53.007813-3.0625 2.019532-6.183594 3.988282-9.347656 5.894532v-19.695313c44.660156-29.382813 80.910156-7.640625 86.691406 42.007813.480469 4.113281 4.214844 7.054687 8.316406 6.582031 4.117188-.480469 7.0625-4.203125 6.582032-8.320313-6.667969-57.292968-51.019532-85.730468-101.589844-57.796875v-18.539062c0-10.65625-8.667969-19.324219-19.324219-19.324219h-225.910156c-10.652344 0-19.320313 8.667969-19.320313 19.324219v18.539062c-61.386718-33.902343-109.710937 15.621094-101.542968 87.894531zm366.097656 44.523438v-77.851562c5.992188-3.367188 11.902344-6.953126 17.605469-10.710938 6.234375-4.113281 17.847656-10.492188 25.601562-6.957031 19.375 8.828125 24.574219 91.949219-47.882812 130.398437 3.042969-11.117187 4.675781-22.808594 4.675781-34.878906zm-19.324219 302.027344c2.382813 0 4.324219 1.9375 4.324219 4.320312v20.371094h-234.554688v-20.371094c0-2.382812 1.9375-4.320312 4.320313-4.320312zm-162.578125-15v-45.996094c0-1.269531 1.074219-2.34375 2.34375-2.34375h94.558594c1.269531 0 2.34375 1.074219 2.34375 2.34375v45.996094zm122.632813-80.855469c4.246093 0 7.699219 3.457031 7.699219 7.703125v73.148438h-16.085938v-45.992188c0-9.5625-7.78125-17.34375-17.34375-17.34375h-94.558594c-9.5625 0-17.34375 7.777344-17.34375 17.34375v45.992188h-16.085937v-73.148438c0-4.246094 3.457031-7.703125 7.703125-7.703125zm-84.507813-15v-59.390625c7.652344.660156 15.597656.640625 23 0v59.390625zm-105.777344-342.128906c0-2.382813 1.9375-4.324219 4.320313-4.324219h225.910156c2.382813 0 4.324219 1.941406 4.324219 4.324219v20.367187h-234.554688zm0 35.367187h234.554688v115.589844c0 70.832031-62.894531 126.363281-134.238281 116.046875-56.660157-8.246094-100.316407-57.140625-100.316407-116.046875 0-11.21875 0-103.945312 0-115.589844zm-10.324218 150.46875c-72.1875-38.304687-67.515625-121.457031-47.886719-130.398437 7.75-3.527344 19.371094 2.84375 25.605469 6.957031 5.699218 3.757812 11.609375 7.34375 17.605468 10.710938 0 82.535156-1.359374 90.675781 4.675782 112.730468zm-4.675782-149.769531v19.699219c-10.15625-6.125-30.746093-22.484375-49.429687-13.980469-13.019531 5.933594-24.292969 28.820313-20.644531 61.09375 4.839844 42.859375 33.292968 83 81.910156 102.839844 3.535156 7.773437 7.785156 15.132812 12.714844 22.035156-161.484375-46.179687-129.210938-260.539063-24.550782-191.6875zm0 0"/><path d="m215.800781 186.535156c0 4.132813 3.351563 7.5 7.5 7.5 4.007813 0 7.5-3.277344 7.5-7.5 0-3.242187-2.203125-6.558594-6.039062-7.359375-4.558594-.914062-8.960938 2.554688-8.960938 7.359375zm0 0"/><path d="m242.949219 171.636719c4.089843 0 7.503906-3.332031 7.503906-7.5 0-3.667969-2.664063-6.714844-6.042969-7.351563-4.496094-.9375-8.960937 2.523438-8.960937 7.351563 0 4.113281 3.347656 7.5 7.5 7.5zm0 0"/><path d="m249.5 183.648438c-5.820312 1.113281-8.078125 8.429687-3.828125 12.648437 1.285156 1.324219 3.277344 2.199219 5.300781 2.199219 4.007813 0 7.5-3.246094 7.5-7.5 0-4.730469-4.371094-8.300782-8.972656-7.347656zm0 0"/><path d="m263.121094 168.605469c0 4.058593 3.289062 7.492187 7.5 7.492187 4.15625 0 7.503906-3.367187 7.503906-7.492187 0-4.824219-4.433594-8.269531-8.960938-7.359375-3.679687.765625-6.042968 3.933594-6.042968 7.359375zm0 0"/><path d="m264.074219 134.382812c-4.769531-.933593-8.972657 2.742188-8.972657 7.351563 0 4.191406 3.414063 7.5 7.5 7.5 4.125 0 7.5-3.339844 7.5-7.5 0-3.476563-2.382812-6.574219-6.027343-7.351563zm0 0"/><path d="m235.222656 230.316406c64.8125 0 97.957032-78.734375 51.761719-124.929687-8.941406-8.941407-20.101563-15.441407-32.269531-18.792969-3.996094-1.097656-8.125 1.246094-9.222656 5.242188-1.101563 3.992187 1.246093 8.121093 5.238281 9.222656 9.667969 2.660156 18.539062 7.824218 25.644531 14.933594 36.742188 36.738281 10.363281 99.332031-41.152344 99.328124-51.710937-.003906-77.710937-62.773437-41.15625-99.328124 7.109375-7.105469 15.976563-12.273438 25.644532-14.933594 3.996093-1.101563 6.34375-5.230469 5.242187-9.226563-1.101563-3.992187-5.226563-6.339843-9.222656-5.238281-12.167969 3.351562-23.328125 9.851562-32.273438 18.792969-45.96875 45.96875-13.277343 124.929687 51.765625 124.929687zm0 0"/></svg>