<svg height="512pt" viewBox="-30 0 512 512.00127" width="512pt" xmlns="http://www.w3.org/2000/svg"><g fill="#e4e3e1"><path d="m225.582031 7.746094c-7.625 0-13.808593 6.183594-13.808593 13.808594v35.5c9.421874-.582032 18.183593-.582032 27.617187 0v-35.5c0-7.625-6.179687-13.808594-13.808594-13.808594zm0 0"/><path d="m184.316406 507.28125c-33.414062 0-60.601562-27.1875-60.601562-60.601562v-12.285157c0-10.675781 8.65625-19.332031 19.332031-19.332031s19.332031 8.652344 19.332031 19.332031v12.285157c0 12.097656 9.839844 21.9375 21.9375 21.9375s21.9375-9.839844 21.9375-21.9375v-53.175782c0-10.675781 8.65625-19.332031 19.332032-19.332031 10.675781 0 19.332031 8.65625 19.332031 19.332031v53.175782c-.003907 33.414062-27.1875 60.601562-60.601563 60.601562zm0 0"/><path d="m184.316406 507.28125c-33.414062 0-60.601562-27.1875-60.601562-60.601562v-12.285157c0-10.675781 8.65625-19.332031 19.332031-19.332031s19.332031 8.652344 19.332031 19.332031v12.285157c0 12.097656 9.839844 21.9375 21.9375 21.9375s21.9375-9.839844 21.9375-21.9375v-53.175782c0-10.675781 8.65625-19.332031 19.332032-19.332031 10.675781 0 19.332031 8.65625 19.332031 19.332031v53.175782c-.003907 33.414062-27.1875 60.601562-60.601563 60.601562zm0 0"/></g><path d="m143.816406 446.679688v-12.285157c0-6.992187 3.722656-13.09375 9.28125-16.492187-2.929687-1.789063-6.363281-2.839844-10.050781-2.839844-10.675781 0-19.332031 8.652344-19.332031 19.332031v12.285157c0 37.28125 33.5625 65.972656 70.652344 59.75-28.644532-4.804688-50.550782-29.757813-50.550782-59.75zm0 0" fill="#d1d0cf"/><path d="m226.355469 446.679688v-53.175782c0-6.988281 3.722656-13.09375 9.277343-16.488281-2.929687-1.792969-6.363281-2.84375-10.050781-2.84375-10.675781 0-19.332031 8.65625-19.332031 19.332031v53.175782c0 8.476562-4.832031 15.835937-11.882812 19.488281 14.574218 7.550781 31.988281-3.121094 31.988281-19.488281zm0 0" fill="#d1d0cf"/><path d="m225.582031 377.1875c5.414063 0 10.300781 2.230469 13.808594 5.8125v-165.625c-4.492187-.738281-9.101563-1.136719-13.808594-1.136719-4.703125 0-9.3125.398438-13.808593 1.136719v165.625c3.511718-3.582031 8.398437-5.8125 13.808593-5.8125zm0 0" fill="#525468"/><path d="m231.375 22.820312c0-4.132812 1.667969-7.875 4.363281-10.597656-2.523437-2.746094-6.132812-4.476562-10.15625-4.476562-7.625 0-13.808593 6.183594-13.808593 13.808594v35.5c7.207031-.445313 13.382812-.519532 19.601562-.351563zm0 0" fill="#d1d0cf"/><path d="m231.375 216.457031c-1.914062-.132812-3.84375-.21875-5.792969-.21875-4.703125 0-9.3125.398438-13.808593 1.136719v165.625c3.511718-3.582031 8.398437-5.8125 13.808593-5.8125 2.019531 0 3.964844.3125 5.792969.886719zm0 0" fill="#3e4151"/><path d="m225.582031 374.171875c-10.675781 0-19.332031 8.652344-19.332031 19.332031v16.878906h38.664062v-16.878906c0-10.675781-8.652343-19.332031-19.332031-19.332031zm0 0" fill="#d1d0cf"/><path d="m226.355469 393.503906c0-6.988281 3.722656-13.09375 9.277343-16.492187-2.398437-1.464844-5.238281-2.472657-8.316406-2.753907-.570312-.050781-1.148437-.085937-1.734375-.085937-10.417969 0-19.332031 8.417969-19.332031 19.332031v16.878906h20.105469zm0 0" fill="#c1c1c1"/><path d="m443.675781 238.40625c-17.300781-104.839844-108.351562-184.804688-218.09375-184.804688-109.738281 0-200.792969 79.964844-218.09375 184.804688-.472656 2.863281 2.917969 4.707031 5.070313 2.757812 15.003906-13.609374 34.90625-21.910156 56.761718-21.910156 32.933594 0 61.457032 18.835938 75.414063 46.320313 1.132813 2.234375 4.300781 2.234375 5.4375 0 13.953125-27.484375 42.480469-46.316407 75.414063-46.316407 32.929687 0 61.457031 18.835938 75.410156 46.316407 1.136718 2.234375 4.300781 2.234375 5.4375 0 13.957031-27.484375 42.480468-46.320313 75.414062-46.320313 21.851563 0 41.757813 8.300782 56.761719 21.910156 2.148437 1.949219 5.539063.105469 5.066406-2.757812zm0 0" fill="#72bdf6"/><path d="m210.324219 54.121094c-102.832031 7.007812-186.34375 84.34375-202.835938 184.285156-.472656 2.863281 2.917969 4.707031 5.070313 2.757812 5.027344-4.5625 10.617187-8.511718 16.636718-11.765624 18.398438-90.207032 90.554688-160.558594 181.128907-175.277344zm0 0" fill="#4b98d4"/><path d="m213.0625 53.964844c-42.78125 25.742187-65.695312 74.441406-65.695312 124.570312v88.703125c1.101562.03125 2.21875-.519531 2.800781-1.667969 13.957031-27.480468 42.480469-46.316406 75.414062-46.316406 32.933594 0 61.457031 18.835938 75.414063 46.316406.582031 1.148438 1.699218 1.699219 2.804687 1.667969v-88.703125c0-50.132812-22.914062-98.828125-65.695312-124.570312-8.601563-.480469-16.335938-.488282-25.042969 0zm0 0" fill="#4b98d4"/><path d="m167.46875 178.792969c0-50.050781 22.539062-98.679688 64.628906-125.085938-5.964844-.183593-11.910156-.140625-19.035156.257813-42.78125 25.742187-65.695312 74.441406-65.695312 124.570312v88.703125c1.101562.03125 2.21875-.519531 2.800781-1.667969 4.414062-8.691406 10.292969-16.515624 17.300781-23.15625zm0 0" fill="#2472b2"/><path d="m239.492188 289.359375c4.164062 0 7.539062-3.375 7.539062-7.535156v-52.253907c20.558594 5.886719 37.605469 20.027344 47.347656 39.210938 3.898438 7.734375 14.976563 7.675781 18.878906-.003906 23.3125-45.902344 83.242188-55.933594 120.390626-22.238282 7.421874 6.730469 19.195312.304688 17.570312-9.570312-16.757812-101.539062-100.269531-180.355469-204.1875-190.105469v-25.515625c0-11.773437-9.574219-21.347656-21.347656-21.347656-11.769532 0-21.34375 9.574219-21.34375 21.347656v25.515625c-103.859375 9.746094-187.421875 88.519531-204.1875 190.105469-1.632813 9.890625 10.164062 16.292969 17.574218 9.570312 37.167969-33.714843 97.089844-23.632812 120.386719 22.242188 3.964844 7.800781 15.007813 7.632812 18.878907-.003906 9.886718-19.460938 27.101562-33.410156 47.347656-39.207032v147.429688c-3.460938 4.523438-5.523438 10.171875-5.523438 16.292969v53.175781c0 7.941406-6.457031 14.402344-14.398437 14.402344-7.941407 0-14.398438-6.460938-14.398438-14.402344v-12.285156c0-14.816406-12.054687-26.871094-26.871093-26.871094-14.816407 0-26.867188 12.054688-26.867188 26.871094v12.285156c0 29.738281 19.882812 56.546875 48.355469 65.203125 3.980469 1.210937 8.195312-1.039063 9.402343-5.023437 1.210938-3.980469-1.035156-8.191407-5.019531-9.402344-22.175781-6.742188-37.664062-27.621094-37.664062-50.777344v-12.285156c0-6.503906 5.292969-11.792969 11.792969-11.792969s11.792968 5.289063 11.792968 11.792969v12.285156c0 16.253906 13.222656 29.476562 29.476563 29.476562 16.253906 0 29.476562-13.222656 29.476562-29.476562v-28.753906h23.582031v28.757812c0 23.15625-15.484374 44.035156-37.660156 50.773438-3.984375 1.210937-6.234375 5.421875-5.023437 9.40625 1.214843 3.992187 5.433593 6.230468 9.40625 5.019531 28.46875-8.652344 48.355469-35.464844 48.355469-65.199219 0-49.699218 0-24.15625 0-53.175781 0-6.121094-2.0625-11.769531-5.523438-16.292969v-60c0-4.164062-3.375-7.539062-7.539062-7.539062-4.164063 0-7.539063 3.375-7.539063 7.539062v50.152344c-1.746094-.414062-4.097656-.730469-6.269531-.730469-2.109375 0-4.464844.300781-6.265625.730469v-140.308594c4.554687-.351562 8.332031-.335937 12.535156 0v54.976563c0 4.160156 3.375 7.535156 7.539063 7.535156zm194.582031-61.671875c-38.726563-26.648438-92.050781-19.890625-122.632813 16.648438v-66.007813c0-42.800781-15.945312-84.839844-46.746094-113.863281 83.46875 15.257812 150.628907 78.722656 169.378907 163.222656zm-214.65625-206.339844c0-3.457031 2.8125-6.269531 6.265625-6.269531 3.457031 0 6.269531 2.8125 6.269531 6.269531v24.597656c-3.734375-.109374-8.332031-.125-12.539063 0v-24.597656zm-79.488281 156.980469v66.011719c-30.601563-36.5625-83.925782-43.285156-122.632813-16.652344 18.75-84.5 85.910156-147.964844 169.378906-163.222656-30.839843 29.058594-46.746093 71.128906-46.746093 113.863281zm85.753906 203.175781c6.480468 0 11.792968 5.28125 11.792968 11.789063v9.34375h-23.582031v-9.34375c0-6.503907 5.308594-11.789063 11.789063-11.789063zm0-169.996094c-27.019532 0-52.929688 11.71875-70.675782 33.015626v-66.195313c0-49.140625 23.121094-93.832031 60.464844-117.144531 7.207032-.347656 13.855469-.316406 20.429688 0 37.339844 23.3125 60.460937 68.003906 60.460937 117.144531v66.195313c-17.335937-20.839844-43.097656-33.015626-70.679687-33.015626zm0 0"/></svg>