<svg height="512pt" viewBox="0 -91 512.002 512" width="512pt" xmlns="http://www.w3.org/2000/svg"><g fill="#3e4151"><path d="m77.433594 141.285156 53.417968-101.234375h39.507813c8.929687 0 16.167969-7.238281 16.167969-16.171875 0-8.929687-7.238282-16.167968-16.167969-16.167968h-44.742187c-6.449219 0-12.28125 3.828124-14.839844 9.746093l-69.710938 126.433594c13.070313-1.65625 25.144532-2.464844 36.367188-2.605469zm0 0"/><path d="m341.4375 40.050781h39.507812l53.417969 101.238281c11.226563.136719 23.296875.949219 36.367188 2.601563l-69.710938-126.433594c-2.558593-5.917969-8.394531-9.75-14.839843-9.75h-44.742188c-8.929688 0-16.171875 7.242188-16.171875 16.171875 0 8.929688 7.242187 16.171875 16.171875 16.171875zm0 0"/><path d="m341.4375 40.050781h39.507812l53.417969 101.238281c11.226563.136719 23.296875.949219 36.367188 2.601563l-69.710938-126.433594c-2.558593-5.917969-8.394531-9.75-14.839843-9.75h-44.742188c-8.929688 0-16.171875 7.242188-16.171875 16.171875 0 8.929688 7.242187 16.171875 16.171875 16.171875zm0 0"/></g><path d="m130.777344 17.457031c2.5625-5.917969 8.390625-9.75 14.839844-9.75h-20c-6.449219 0-12.28125 3.832031-14.84375 9.75l-69.707032 126.433594c7.347656-.929687 14.367188-1.585937 21.109375-2.011719zm0 0" fill="#353744"/><path d="m404.386719 46.570312c-2.117188-4.007812-6.277344-6.519531-10.8125-6.519531h-12.628907l53.417969 101.238281c6.53125.078126 13.359375.394532 20.496094.964844zm0 0" fill="#353744"/><path d="m345.265625 23.878906c0-8.929687 7.242187-16.171875 16.171875-16.171875h-20c-8.933594 0-16.171875 7.242188-16.171875 16.171875 0 8.929688 7.242187 16.171875 16.171875 16.171875h20c-8.929688 0-16.171875-7.238281-16.171875-16.171875zm0 0" fill="#353744"/><path d="m497.988281 146.316406c-129.199219-25.441406-168.953125 26.144532-242.089843 26.144532-73.222657 0-112.847657-51.59375-242.09375-26.144532-3.726563.734375-6.40625 4.003906-6.40625 7.804688v28.9375c0 3.605468 2.421874 6.757812 5.90625 7.6875 6.355468 1.695312 11.332031 6.640625 13.066406 12.984375l20.082031 73.519531c3.566406 13.042969 13.253906 23.539062 25.972656 28.132812 39.941407 14.421876 37.691407 13.640626 38.371094 13.804688 41.265625 10.03125 66.347656.515625 78.800781-7.320312 5.566406-3.5 10.007813-8.519532 12.878906-14.433594l38.308594-78.984375c1.332032-2.742188 4.109375-4.480469 7.15625-4.480469h15.910156c3.046876 0 5.824219 1.738281 7.15625 4.480469l38.308594 78.984375c2.871094 5.914062 7.3125 10.933594 12.878906 14.433594 12.453126 7.835937 37.535157 17.351562 78.800782 7.320312.679687-.164062 37.714844-13.566406 38.371094-13.804688 12.71875-4.59375 22.40625-15.085937 25.972656-28.132812l20.082031-73.519531c1.734375-6.34375 6.710937-11.289063 13.066406-12.984375 3.484375-.929688 5.90625-4.082032 5.90625-7.6875v-28.9375c.003907-3.800782-2.675781-7.070313-6.40625-7.804688zm0 0" fill="#525468"/><path d="m110.796875 319.1875c.007813 0 .015625.003906.023437.003906 1.183594.289063 2.355469.558594 3.511719.8125 16.421875 3.632813 31.542969 4.113282 39.902344 3.066406-11.921875-.988281-23.109375-3.714843-24.300781-4.144531l-37.507813-13.542969c-12.71875-4.59375-22.40625-15.089843-25.972656-28.132812l-20.082031-73.519531c-1.734375-6.34375-6.710938-11.289063-13.066406-12.988281-3.484376-.925782-5.90625-4.082032-5.90625-7.683594v-32.941406c0-2.902344 1.566406-5.492188 3.96875-6.878907-5.667969.863281-11.515626 1.886719-17.5625 3.078125-3.726563.734375-6.402344 4-6.40625 7.796875v28.945313c0 3.601562 2.421874 6.757812 5.90625 7.683594 6.355468 1.695312 11.332031 6.644531 13.066406 12.988281l11.476562 42.011719 8.605469 31.507812c1.5625 5.707031 4.292969 10.925781 7.9375 15.375 4.601563 5.621094 10.761719 10.132812 18.035156 12.757812 39.9375 14.421876 37.695313 13.640626 38.371094 13.804688zm0 0" fill="#3e4151"/><path d="m329.320312 297.433594-38.3125-78.984375c-1.328124-2.742188-4.109374-4.484375-7.15625-4.484375-17.535156 0-16.582031-.085938-17.953124.277344 2.203124.589843 4.085937 2.097656 5.109374 4.207031l38.3125 78.984375c10.695313 22.054687 43.652344 27.679687 68.242188 25.636718-18.375-1.671874-40.109375-8.871093-48.242188-25.636718zm0 0" fill="#3e4151"/><path d="m202.253906 188.9375c-39.710937-10.382812-70.683594-24.941406-115.464844-25.429688-26.007812-.285156-38.949218 26.777344-32.347656 50.933594l15.414063 56.414063c1.480469 5.425781 5.523437 9.800781 10.808593 11.710937l36.683594 13.246094c32.957032 7.824219 51.308594.574219 59.339844-4.480469 1.679688-1.058593 3.054688-2.609375 3.964844-4.484375l32.941406-67.917968c5.605469-11.558594 1.644531-26.597657-11.339844-29.992188zm0 0" fill="#72bdf6"/><path d="m309.542969 188.9375c28.675781-7.5 55.917969-18.378906 87.015625-23.238281 9.265625-1.445313 18.929687-2.085938 28.445312-2.191407 26.011719-.285156 38.949219 26.777344 32.351563 50.933594l-15.414063 56.414063c-1.480468 5.425781-5.523437 9.800781-10.8125 11.710937l-36.679687 13.246094c-32.960938 7.824219-51.308594.574219-59.339844-4.480469-3.554687-2.234375-1.21875 1.183594-36.910156-72.402343-5.605469-11.558594-1.640625-26.597657 11.34375-29.992188zm0 0" fill="#72bdf6"/><path d="m89.855469 278.859375-15.410157-60.621094c-5.652343-22.226562 2.828126-49.679687 26.25-54.164062-4.628906-.335938-9.285156-.515625-13.902343-.566407-26.011719-.28125-38.949219 26.777344-32.351563 50.933594l15.414063 56.414063c1.480469 5.425781 5.523437 9.804687 10.808593 11.710937l14.257813 5.148438c-2.40625-2.34375-4.1875-5.398438-5.066406-8.855469zm0 0" fill="#4b98d4"/><path d="m355.109375 290.820312c-3.550781-2.378906-1.214844 1.261719-36.90625-77.097656-4.1875-9.191406-3.402344-21.804687 4.886719-28.574218-4.480469 1.316406-8.988282 2.597656-13.550782 3.789062-12.929687 3.382812-16.96875 18.386719-11.339843 29.992188 35.707031 73.613281 33.363281 70.171874 36.910156 72.40625 6.566406 4.132812 20.042969 9.726562 42.761719 7.351562-11.054688-1.371094-18.417969-4.957031-22.761719-7.867188zm0 0" fill="#4b98d4"/><path d="m204.253906 181.472656c-39.363281-10.292968-71.242187-25.167968-117.277344-25.671875-16.246093-.15625-30.828124 9.304688-37.175781 24.15625-4.878906 11.410157-5.761719 24.285157-2.492187 36.253907l15.414062 56.414062c2.121094 7.777344 7.914063 14.050781 15.496094 16.789062.621094.226563 36.855469 13.339844 37.496094 13.492188 31.070312 7.371094 52.539062 2.453125 65.066406-5.429688 5.855469-3.6875 3.683594-1.296874 39.664062-75.480468 7.6875-15.855469 1.5-35.898438-16.191406-40.523438zm2.695313 33.976563c-35.445313 73.074219-33.058594 68.640625-34.15625 69.328125-6.972657 4.390625-23.140625 10.671875-53.203125 3.628906l-36.273438-13.097656c-2.996094-1.085938-5.285156-3.5625-6.125-6.636719l-15.410156-56.414063c-2.382812-8.714843-1.738281-18.09375 1.8125-26.40625 3.957031-9.253906 13.089844-15.148437 23.21875-15.050781 43.484375.472657 73.929688 14.800781 113.648438 25.1875 8.296874 2.167969 9.996093 12.21875 6.488281 19.460938zm0 0"/><path d="m331.214844 297.476562c12.5 7.863282 33.953125 12.8125 65.066406 5.429688.277344-.066406.550781-.148438.816406-.246094l36.679688-13.246094c7.582031-2.734374 13.375-9.011718 15.5-16.789062l15.410156-56.414062c7.867188-28.78125-8.273438-60.671876-39.664062-60.410157-46.054688.503907-77.832032 15.359375-117.277344 25.671875-17.773438 4.648438-23.792969 24.855469-16.191406 40.523438 35.964843 74.148437 33.804687 71.796875 39.660156 75.480468zm-19.675782-101.488281c38.3125-10.015625 72.007813-25.1875 113.929688-25.1875 20.992188 0 29.894531 22.640625 24.75 41.457031l-15.414062 56.417969c-.835938 3.070313-3.125 5.550781-6.121094 6.632813l-36.273438 13.097656c-30.066406 7.042969-46.230468.761719-53.203125-3.625-1.109375-.695312 1.234375 3.632812-34.15625-69.332031-3.59375-7.40625-1.671875-17.328125 6.488281-19.460938zm0 0"/><path d="m31.757812 160.707031c-4.144531 0-7.5 3.359375-7.5 7.503907 0 4.140624 3.355469 7.5 7.5 7.5h3.503907c4.144531 0 7.5-3.359376 7.5-7.5 0-4.144532-3.355469-7.503907-7.5-7.503907zm0 0"/><path d="m480.242188 175.710938c4.144531 0 7.5-3.359376 7.5-7.5 0-4.144532-3.355469-7.503907-7.5-7.503907h-3.503907c-4.144531 0-7.5 3.359375-7.5 7.503907 0 4.140624 3.355469 7.5 7.5 7.5zm0 0"/><path d="m499.542969 138.75c-8.359375-1.648438-16.339844-2.960938-24.003907-4.011719l-25.066406-44.742187c-2.023437-3.613282-6.59375-4.902344-10.210937-2.878906-3.609375 2.023437-4.898438 6.597656-2.875 10.210937l19.8125 35.367187c-5.085938-.429687-11.8125-.847656-18.203125-1.023437l-51.34375-95.382813c-1.308594-2.429687-3.84375-3.945312-6.601563-3.945312h-39.511719c-4.777343 0-8.667968-3.890625-8.667968-8.667969 0-4.78125 3.890625-8.671875 8.667968-8.671875h44.742188c5.902344 0 7.738281 4.914063 8.296875 5.914063l25.683594 45.839843c2.023437 3.613282 6.59375 4.902344 10.207031 2.875 3.613281-2.023437 4.902344-6.59375 2.878906-10.207031l-25.511718-45.535156c-3.835938-8.449219-12.25-13.88671875-21.554688-13.88671875h-44.742188c-13.050781 0-23.667968 10.61718775-23.667968 23.67187475 0 13.050781 10.617187 23.671875 23.667968 23.671875h35.027344l45.40625 84.351563c-66.464844 2.09375-103.292968 26.976562-149.304687 32.113281-4.113281.457031-7.078125 4.167969-6.621094 8.285156.460937 4.117188 4.175781 7.089844 8.285156 6.625 63.925781-7.136718 106.042969-48.148437 222.3125-25.253906.207031.042969.355469.226562.355469.445312v28.941407c0 .203125-.140625.382812-.339844.4375-8.902344 2.375-15.941406 9.371093-18.367187 18.257812l-20.085938 73.515625c-2.917969 10.679688-10.871093 19.296875-21.339843 23.078125-16.753907 6.0625-35.367188 12.773438-37.820313 13.617188-39.296875 9.480469-62.445313.039062-72.757813-6.449219-4.339843-2.730469-7.839843-6.660156-10.121093-11.359375l-38.308594-78.980469c-2.566406-5.292968-8.023437-8.710937-13.90625-8.710937h-15.90625c-5.882813 0-11.34375 3.417969-13.90625 8.710937l-38.3125 78.980469c-2.277344 4.703125-5.777344 8.628906-10.121094 11.363281-10.335937 6.5-33.570312 15.972656-73.125 6.351563l-37.507812-13.542969c-10.410157-3.761719-18.367188-12.378906-21.28125-23.054688l-20.085938-73.519531c-2.429687-8.886719-9.464843-15.882812-18.371093-18.257812-.195313-.054688-.335938-.234375-.335938-.441407v-28.9375c0-.222656.148438-.40625.355469-.445312 116.324219-22.910156 158.3125 18.117188 222.3125 25.25 4.109375.460938 7.824219-2.503906 8.285156-6.621094.457031-4.117187-2.507813-7.828125-6.625-8.285156-46.042969-5.132812-82.832031-30.027344-149.300781-32.117188l45.402344-84.351562h35.027343c13.054688 0 23.671875-10.621094 23.671875-23.671875s-10.617187-23.671875-23.671875-23.671875h-44.738281c-9.308594 0-17.722656 5.4375-21.554688 13.886719l-67.703124 120.851562c-7.664063 1.046875-15.640626 2.363281-24 4.011719-7.222657 1.421875-12.460938 7.796875-12.460938 15.164062v28.9375c0 6.992188 4.71875 13.132813 11.472656 14.933594 3.761719 1.003906 6.738282 3.960938 7.765625 7.714844l20.082031 73.519531c4.203126 15.378907 15.664063 27.796875 30.660157 33.210938 40.445312 14.605469 37.960937 13.75 39.148437 14.039062 28.59375 6.949219 59.878906 7.269531 84.566406-8.261719 6.722657-4.226562 12.128907-10.28125 15.632813-17.507812l38.3125-78.988281c.074219-.15625.230469-.253907.40625-.253907h15.910156c.171875 0 .332031.101563.40625.257813l38.308594 78.984375c3.507813 7.230469 8.914063 13.285156 15.632813 17.511719 15.074218 9.480469 41.980468 18.609375 84.570312 8.257812.523438-.128906 1.0625-.261719 39.144531-14.039062 14.996094-5.414063 26.457031-17.828125 30.660157-33.210938l20.085937-73.515625c1.023437-3.757812 4-6.714844 7.765625-7.71875 6.753906-1.800781 11.472656-7.941406 11.472656-14.933594v-28.9375c-.003906-7.367187-5.246094-13.742187-12.460937-15.164062zm-381.78125-118.519531c1.375-3.175781 4.496093-5.230469 7.957031-5.230469h44.742188c4.777343 0 8.667968 3.890625 8.667968 8.671875s-3.890625 8.671875-8.667968 8.671875h-39.511719c-2.757813 0-5.292969 1.511719-6.601563 3.945312l-51.339844 95.375c-6.230468.171876-12.984374.582032-18.207031 1.027344.289063-.515625 62.722657-111.917968 62.960938-112.460937zm0 0"/></svg>