<svg height="511pt" viewBox="0 -56 511.99765 511" width="511pt" xmlns="http://www.w3.org/2000/svg"><path d="m196.761719 270.550781c13.636719-.640625 16.679687 3.386719 20.40625-1.175781 8.84375-10.84375 22.308593-17.773438 37.398437-17.773438 3.441406 0 6.792969.363282 10.023438 1.050782 2.929687.621094 5.835937-1.144532 6.699218-4.011719 7.046876-23.394531 24.460938-42.28125 46.898438-51.351563-.429688-.023437-.855469-.058593-1.285156-.074218-6.050782-.207032-11.898438.488281-17.4375 1.953125-1.277344.339843-2.496094-.640625-2.492188-1.960938 0-.007812 0-.019531 0-.027343 0-44.417969-36.011718-80.429688-80.429687-80.429688-36.339844 0-67.027344 24.105469-76.996094 57.191406-.867187 2.867188-3.769531 4.632813-6.699219 4.011719-3.230468-.6875-6.582031-1.050781-10.023437-1.050781-15.089844 0-28.554688 6.929687-37.398438 17.773437-3.722656 4.5625-6.792969.539063-20.40625 1.175781-30.949219 1.453126-56.070312 26.558594-57.523437 57.511719-1.632813 34.734375 26.050781 63.414063 60.425781 63.414063h72.933594c6.199219-25.570313 28.820312-44.957032 55.90625-46.226563zm0 0" fill="#2472b2"/><g fill="#1c5d9f"><path d="m142.902344 176.898438c3.441406 0 6.792968.367187 10.023437 1.054687 2.929688.621094 5.835938-1.144531 6.699219-4.011719 9.027344-29.960937 35.042969-52.554687 66.863281-56.558594-3.261719-.402343-6.574219-.632812-9.945312-.632812-36.339844 0-67.027344 24.105469-76.996094 57.191406-.4375 1.449219-1.402344 2.617188-2.625 3.335938 1.964844-.242188 3.957031-.378906 5.980469-.378906zm0 0"/><path d="m99.347656 196.84375c2.304688.4375 4.671875-.351562 6.15625-2.167969 6.832032-8.378906 16.429688-14.40625 27.398438-16.71875-3.324219-.671875-6.402344-1.058593-10.078125-1.058593-25.039063 0-36.871094 17.765624-38.808594 19.027343 5.167969-.335937 10.15625-.0625 15.332031.917969zm0 0"/><path d="m27.574219 253.359375c1.339843-28.527344 22.789062-52.070313 50.375-56.726563-4.183594-.695312-8.5-.988281-12.929688-.78125-30.949219 1.453126-56.070312 26.558594-57.523437 57.511719-1.632813 34.734375 26.050781 63.414063 60.425781 63.414063h20.082031c-34.378906 0-62.0625-28.679688-60.429687-63.417969zm0 0"/></g><path d="m421.273438 84.441406c0 22.644532-18.359376 41-41 41-22.644532 0-41-18.355468-41-41 0-22.640625 18.355468-41 41-41 22.640624 0 41 18.359375 41 41zm0 0" fill="#ffc964"/><path d="m506.28125 328.636719c-1.453125-30.972657-26.800781-55.976563-57.789062-57.039063-6.0625-.207031-11.929688.488282-17.480469 1.960938-1.28125.335937-2.5-.644532-2.5-1.96875 0-.007813 0-.015625 0-.027344 0-44.53125-36.105469-80.640625-80.640625-80.640625-36.4375 0-67.207032 24.167969-77.203125 57.339844-.867188 2.878906-3.777344 4.644531-6.714844 4.023437-3.242187-.6875-6.601563-1.054687-10.046875-1.054687-15.132812 0-28.632812 6.949219-37.503906 17.824219-3.730469 4.574218-6.808594.535156-20.457032 1.175781-31.03125 1.457031-56.21875 26.628906-57.675781 57.664062-1.636719 34.828125 26.117188 63.582031 60.585938 63.582031h247.539062c34.066407 0 61.5-28.414062 59.886719-62.839843zm0 0" fill="#72bdf6"/><path d="m359.351562 84.441406c0-19.179687 13.171876-35.277344 30.960938-39.753906-3.214844-.8125-6.574219-1.246094-10.039062-1.246094-22.644532 0-41 18.355469-41 41 0 22.644532 18.355468 41 41 41 3.464843 0 6.824218-.433594 10.039062-1.242187-17.789062-4.480469-30.960938-20.578125-30.960938-39.757813zm0 0" fill="#f3a334"/><path d="m284.03125 252.285156c2.9375.621094 5.851562-1.148437 6.714844-4.023437 9.054687-30.046875 35.152344-52.707031 67.066406-56.707031-3.261719-.402344-6.574219-.632813-9.941406-.632813-36.4375 0-67.207032 24.167969-77.203125 57.339844-.433594 1.449219-1.390625 2.613281-2.605469 3.335937 5.433594-.664062 10.765625-.417968 15.96875.6875zm0 0" fill="#4b98d4"/><path d="m158.347656 327.894531c1.34375-28.613281 22.863282-52.226562 50.53125-56.882812-4.183594-.695313-8.5-.988281-12.933594-.78125-31.03125 1.457031-56.21875 26.628906-57.675781 57.664062-1.636719 34.824219 26.117188 63.582031 60.585938 63.582031h20.078125c-34.46875 0-62.222656-28.757812-60.585938-63.582031zm0 0" fill="#4b98d4"/><path d="m230.3125 271.226562c2.308594.441407 4.683594-.351562 6.167969-2.175781 6.859375-8.40625 16.488281-14.449219 27.492187-16.765625-.007812 0-.011718 0-.019531 0-3.242187-.691406-6.601563-1.054687-10.050781-1.054687-25.085938 0-36.972656 17.808593-38.902344 19.074219 5.101562-.328126 10.089844-.066407 15.3125.921874zm0 0" fill="#4b98d4"/><path d="m428.902344 84.234375c0-26.757813-21.769532-48.527344-48.527344-48.527344s-48.53125 21.769531-48.53125 48.527344 21.773438 48.527344 48.53125 48.527344 48.527344-21.769531 48.527344-48.527344zm-48.527344 33.46875c-18.457031 0-33.472656-15.011719-33.472656-33.46875 0-18.453125 15.015625-33.46875 33.472656-33.46875 18.453125 0 33.46875 15.015625 33.46875 33.46875 0 18.457031-15.015625 33.46875-33.46875 33.46875zm0 0"/><path d="m387.902344 16.855469v-8.828125c0-4.15625-3.367188-7.527344-7.527344-7.527344s-7.53125 3.371094-7.53125 7.527344v8.828125c0 4.160156 3.371094 7.53125 7.53125 7.53125s7.527344-3.371094 7.527344-7.53125zm0 0"/><path d="m372.84375 151.613281v8.828125c0 4.15625 3.371094 7.527344 7.53125 7.527344s7.527344-3.371094 7.527344-7.527344v-8.828125c0-4.160156-3.367188-7.53125-7.527344-7.53125s-7.53125 3.371094-7.53125 7.53125zm0 0"/><path d="m433.34375 41.914062 6.242188-6.242187c2.941406-2.9375 2.941406-7.707031 0-10.648437-2.941407-2.9375-7.707032-2.9375-10.648438 0l-6.242188 6.242187c-4.757812 4.761719-1.324218 12.855469 5.324219 12.855469 1.925781 0 3.851563-.734375 5.324219-2.207032zm0 0"/><path d="m331.8125 143.445312 6.242188-6.242187c2.941406-2.941406 2.941406-7.710937 0-10.648437-2.9375-2.941407-7.707032-2.941407-10.648438 0l-6.242188 6.242187c-2.941406 2.9375-2.941406 7.707031 0 10.648437 2.9375 2.9375 7.707032 2.941407 10.648438 0zm0 0"/><path d="m447.753906 91.765625h8.828125c4.15625 0 7.527344-3.371094 7.527344-7.53125 0-4.15625-3.371094-7.527344-7.527344-7.527344h-8.828125c-4.160156 0-7.53125 3.371094-7.53125 7.527344 0 4.160156 3.371094 7.53125 7.53125 7.53125zm0 0"/><path d="m312.996094 76.707031h-8.828125c-4.15625 0-7.527344 3.371094-7.527344 7.527344 0 4.160156 3.371094 7.53125 7.527344 7.53125h8.828125c4.160156 0 7.53125-3.371094 7.53125-7.53125 0-4.15625-3.371094-7.527344-7.53125-7.527344zm0 0"/><path d="m428.9375 143.445312c2.941406 2.941407 7.707031 2.9375 10.644531 0 2.941407-2.941406 2.941407-7.710937.003907-10.648437l-6.242188-6.242187c-2.941406-2.941407-7.710938-2.941407-10.648438 0-2.941406 2.9375-2.941406 7.707031-.003906 10.648437zm0 0"/><path d="m327.40625 41.914062c2.945312 2.945313 7.710938 2.941407 10.648438 0 2.941406-2.9375 2.941406-7.707031 0-10.648437l-6.242188-6.242187c-2.941406-2.9375-7.707031-2.9375-10.648438 0-2.941406 2.941406-2.941406 7.710937 0 10.648437zm0 0"/><path d="m209.710938 278.734375c5.0625.964844 10.191406-.882813 13.394531-4.808594 9.835937-12.058593 25.304687-17.238281 40.027343-14.117187 6.695313 1.421875 13.484376-2.625 15.46875-9.203125 9.105469-30.226563 37.632813-51.832031 69.785157-51.832031 40.199219 0 72.902343 32.703124 72.902343 72.917968-.003906 6.277344 5.898438 10.847656 11.949219 9.246094 28.648438-7.582031 56.796875 10.226562 63.949219 37.234375 1.0625 4.019531 5.183594 6.417969 9.207031 5.351563 4.019531-1.0625 6.414063-5.1875 5.351563-9.207032-8.546875-32.273437-40.683594-54.875-75.652344-49.347656-3.4375-45.382812-41.460938-81.257812-87.707031-81.257812-10.90625 0-21.503907 1.964843-31.425781 5.765624-4.242188-.125-8.460938.136719-12.613282.792969-1.355468-17.582031-8.007812-34.519531-19.074218-48.300781-12.269532-15.28125-29.480469-26.152344-48.464844-30.605469-4.039063-.953125-8.097656 1.558594-9.050782 5.609375-.949218 4.046875 1.5625 8.101563 5.609376 9.050782 33.078124 7.765624 56.179687 36.9375 56.179687 70.964843-.003906 2.617188 1.03125 5.058594 2.871094 6.851563-12.660157 10.484375-22.613281 24.882812-27.769531 40.921875-19.355469-3.511719-39.546876 3.328125-52.734376 19.066406-33.90625-6.113281-66.054687 14.117187-76.605468 45.210937h-67.285156c-30.078126 0-54.339844-25.007812-52.90625-55.53125 1.457031-31.019531 30.488281-55.597656 62.851562-49.46875 5.066406.960938 10.191406-.882812 13.390625-4.808593 9.984375-12.242188 25.539063-17.195313 40.03125-14.121094 6.695313 1.421875 13.484375-2.621094 15.46875-9.203125 7.683594-25.503906 28.625-44.761719 54.648437-50.257812 4.070313-.859376 6.671876-4.851563 5.808594-8.921876-.859375-4.070312-4.851562-6.667968-8.921875-5.8125-30.898437 6.527344-55.859375 29.117188-65.488281 59.148438-19.355469-3.511719-39.542969 3.328125-52.734375 19.066406-41.269531-7.4375-78.234375 23.992188-80.09375 63.671875-1.828125 38.929688 29.070313 71.296875 67.949219 71.296875h64.042968c-3.949218 40.085938 27.480469 74.699219 67.699219 74.699219h246.886719c28.480469 0 53.992188-18.042969 63.480469-44.902344 1.382812-3.921875-.671875-8.222656-4.59375-9.609375-3.917969-1.386718-8.222657.667969-9.605469 4.59375-7.367188 20.851563-27.171875 34.863282-49.28125 34.863282h-246.886719c-14.621093 0-28.230469-5.828126-38.328125-16.410157-35.480468-37.1875-1.9375-98.121093 48.269532-88.597656zm0 0"/></svg>