<svg height="512pt" viewBox="-152 0 512 512.00041" width="512pt" xmlns="http://www.w3.org/2000/svg"><path d="m187.804688 226.359375-12.566407-7.539063c-6.828125-4.097656-11.007812-11.480468-11.007812-19.445312v-17.980469c0-2.261719.972656-4.414062 2.683593-5.894531 20.605469-17.828125 33.59375-44.226562 33.371094-73.667969-.386718-52.191406-42.875-94.964843-95.058594-95.6875-53.886718-.75-97.804687 42.707031-97.804687 96.421875 0 29.378906 13.152344 55.675782 33.875 73.363282 1.402344 1.195312 2.183594 2.964843 2.183594 4.808593v18.636719c0 7.964844-4.179688 15.347656-11.007813 19.445312l-12.566406 7.539063c-3.675781 2.207031-5.777344 6.308594-5.417969 10.578125l22.289063 264.789062c.3125 3.75 5.695312 4.03125 6.402344.339844l41.933593-218.867187c1.246094-6.519531 6.949219-11.230469 13.582031-11.234375h10.324219c6.632813.003906 12.335938 4.714844 13.582031 11.234375l41.933594 218.867187c.707032 3.691406 6.085938 3.410156 6.402344-.339844l22.285156-264.789062c.359375-4.269531-1.742187-8.371094-5.417968-10.578125zm-85.5-68.976563c-30.742188 0-55.75-25.007812-55.75-55.75 0-30.742187 25.007812-55.75 55.75-55.75 30.742187 0 55.75 25.007813 55.75 55.75 0 30.742188-25.007813 55.75-55.75 55.75zm0 0" fill="#f75757"/><g fill="#ea3f3f"><path d="m142.664062 283.199219c-1.246093-6.519531-6.949218-11.230469-13.582031-11.234375-2.839843 0-7.484375 0-10.320312 0-1.707031 0-3.351563.320312-4.875.894531 4.402343 1.65625 7.789062 5.496094 8.714843 10.339844l41.933594 218.867187c.707032 3.691406 6.085938 3.410156 6.402344-.339844l4.148438-49.308593zm0 0"/><path d="m34.554688 236.9375c-.363282-4.269531 1.742187-8.375 5.414062-10.578125l12.566406-7.539063c6.832032-4.097656 11.011719-11.480468 11.011719-19.445312v-18.636719c0-1.84375-.785156-3.613281-2.1875-4.808593-64.171875-54.769532-31.722656-160.542969 52.507813-169.269532-2.847657-.296875-5.730469-.476562-8.640626-.515625-53.886718-.75-97.804687 42.707031-97.804687 96.421875 0 29.378906 13.152344 55.675782 33.875 73.363282 1.402344 1.195312 2.183594 2.964843 2.183594 4.808593v18.636719c0 7.964844-4.179688 15.347656-11.007813 19.445312l-12.566406 7.539063c-3.675781 2.207031-5.777344 6.308594-5.417969 10.578125l22.289063 264.789062c.3125 3.75 5.695312 4.03125 6.402344.339844l9.511718-49.648437zm0 0"/><path d="m103.855469 161.082031c-32.78125 0-59.449219-26.667969-59.449219-59.449219s26.667969-59.449218 59.449219-59.449218 59.453125 26.667968 59.453125 59.449218-26.671875 59.449219-59.453125 59.449219zm0-93.820312c-18.953125 0-34.371094 15.417969-34.371094 34.371093 0 18.953126 15.417969 34.371094 34.371094 34.371094s34.371093-15.417968 34.371093-34.371094c0-18.953124-15.417968-34.371093-34.371093-34.371093zm0 0"/></g><path d="m64.46875 101.632812c0-29.359374 21.402344-53.804687 49.417969-58.585937-36.449219-6.226563-69.480469 21.957031-69.480469 58.585937 0 36.566407 32.96875 64.820313 69.480469 58.585938-28.015625-4.785156-49.417969-29.226562-49.417969-58.585938zm0 0" fill="#d4352f"/><path d="m36.984375 101.425781c0 36.929688 30.042969 66.972657 66.972656 66.972657 36.929688 0 66.976563-30.042969 66.976563-66.972657 0-36.929687-30.046875-66.976562-66.976563-66.976562-36.929687 0-66.972656 30.046875-66.972656 66.976562zm118.898437 0c0 28.632813-23.292968 51.925781-51.925781 51.925781-28.632812 0-51.925781-23.292968-51.925781-51.925781 0-28.632812 23.292969-51.929687 51.925781-51.929687 28.632813 0 51.925781 23.296875 51.925781 51.929687zm0 0"/><path d="m62.0625 101.425781c0 23.097657 18.792969 41.894531 41.894531 41.894531 23.101563 0 41.894531-18.796874 41.894531-41.894531 0-23.101562-18.792968-41.894531-41.894531-41.894531-23.101562 0-41.894531 18.792969-41.894531 41.894531zm68.742188 0c0 14.800781-12.042969 26.84375-26.847657 26.84375-14.800781 0-26.847656-12.042969-26.847656-26.84375 0-14.804687 12.046875-26.847656 26.847656-26.847656 14.804688 0 26.847657 12.042969 26.847657 26.847656zm0 0"/><path d="m207.914062 102.359375c0-50.175781-35.761718-93.167969-85.039062-102.234375-4.085938-.75-8.007812 1.953125-8.761719 6.039062-.75 4.085938 1.953125 8.007813 6.039063 8.761719 42.132812 7.75 72.714844 44.519531 72.714844 87.433594 0 27.054687-12.121094 52.316406-33.25 69.308594-1.777344 1.429687-2.8125 3.585937-2.8125 5.863281v21.632812c0 10.550782 5.621093 20.472657 14.667968 25.898438l12.5625 7.542969c1.207032.722656 1.90625 2.09375 1.789063 3.496093l-5.679688 67.519532c-.351562 4.136718 2.722657 7.777344 6.863281 8.128906.214844.015625.429688.027344.640626.027344 3.871093 0 7.160156-2.96875 7.488281-6.894532l5.683593-67.519531c.597657-7.078125-2.953124-14.007812-9.042968-17.664062l-12.566406-7.539063c-4.535157-2.722656-7.355469-7.703125-7.355469-12.996094v-18.109374c22.964843-19.804688 36.058593-48.277344 36.058593-78.695313zm0 0"/><path d="m85.042969.125c-49.277344 9.066406-85.042969 52.058594-85.042969 102.234375 0 30.417969 13.097656 58.890625 36.058594 78.695313v18.109374c0 5.292969-2.820313 10.273438-7.355469 12.996094l-12.566406 7.539063c-6.089844 3.65625-9.640625 10.585937-9.042969 17.664062l22.285156 264.789063c1.042969 12.398437 18.941406 13.378906 21.289063 1.121094l41.933593-218.867188c.570313-2.96875 3.175782-5.121094 6.199219-5.121094h10.316407c3.023437 0 5.628906 2.152344 6.195312 5.121094l41.933594 218.867188c2.351562 12.289062 20.246094 11.3125 21.289062-1.121094l13.648438-162.160156c.351562-4.140626-2.726563-7.777344-6.867188-8.128907-4.140625-.355469-7.78125 2.726563-8.128906 6.867188l-11.03125 131.078125-36.0625-188.234375c-1.925781-10.046875-10.746094-17.339844-20.976562-17.339844h-10.316407c-10.230469 0-19.050781 7.292969-20.976562 17.339844l-36.0625 188.234375-19.671875-233.707032c-.117188-1.402343.585937-2.773437 1.789062-3.496093l12.566406-7.542969c9.046876-5.425781 14.664063-15.347656 14.664063-25.898438v-21.632812c0-2.277344-1.03125-4.433594-2.808594-5.863281-21.132812-16.992188-33.253906-42.253907-33.253906-69.308594 0-42.914063 30.582031-79.683594 72.714844-87.433594 4.085937-.753906 6.792969-4.675781 6.039062-8.761719-.75-4.085937-4.675781-6.785156-8.757812-6.039062zm0 0"/></svg>