<svg height="512pt" viewBox="-123 0 512 512" width="512pt" xmlns="http://www.w3.org/2000/svg"><path d="m124.769531 7.707031h-6.234375c-6.859375 0-12.46875 5.613281-12.46875 12.472657v17.316406h31.175782v-17.316406c0-6.859376-5.613282-12.472657-12.472657-12.472657zm0 0" fill="#525468"/><path d="m131.488281 9.699219c-1.941406-1.253907-4.246093-1.992188-6.71875-1.992188h-6.234375c-6.859375 0-12.46875 5.613281-12.46875 12.472657v17.316406h19.671875v-17.316406c0-4.390626 2.300781-8.257813 5.75-10.480469zm0 0" fill="#3e4151"/><path d="m214.855469 421.894531c-6.519531-5.296875-10.304688-13.257812-10.304688-21.660156v-110.488281c0-11.109375 4.566407-21.832032 12.882813-29.203125 11.359375-10.074219 17.949218-22.050781 17.949218-34.902344 0-18.285156-13.328124-34.800781-34.761718-46.578125-4.117188-2.261719-6.722656-6.535156-6.722656-11.230469v-16.472656h-144.96875v16.472656c0 4.695313-2.601563 8.96875-6.71875 11.230469-40.90625 22.480469-44.617188 56.824219-16.8125 81.480469 8.3125 7.371093 12.882812 18.09375 12.882812 29.203125v110.488281c0 8.402344-3.785156 16.363281-10.304688 21.660156-28.199218 22.902344-27.472656 53.875 2.878907 76.414063 5.65625 4.203125 12.5625 6.398437 19.609375 6.398437h141.734375c7.15625 0 14.171875-2.214843 19.910156-6.496093 30.210937-22.527344 30.910156-53.441407 2.746094-76.316407zm0 0" fill="#b4e1f9"/><path d="m47.640625 421.894531c6.523437-5.296875 10.304687-13.257812 10.304687-21.660156v-110.488281c0-11.109375-4.566406-21.832032-12.882812-29.203125-28.054688-24.882813-23.746094-59.191407 16.816406-81.480469 4.113282-2.261719 6.71875-6.535156 6.71875-11.230469v-16.472656h-19.667968v16.472656c0 4.695313-2.605469 8.96875-6.71875 11.230469-40.910157 22.480469-44.617188 56.824219-16.816407 81.480469 8.316407 7.371093 12.882813 18.09375 12.882813 29.203125v110.488281c0 8.402344-3.78125 16.363281-10.304688 21.660156-28.167968 22.878907-27.5 53.851563 2.878906 76.414063 5.660157 4.203125 12.5625 6.398437 19.613282 6.398437h19.667968c-7.046874 0-13.953124-2.195312-19.613281-6.398437-30.394531-22.574219-31.023437-53.550782-2.878906-76.414063zm0 0" fill="#72bdf6"/><path d="m198.316406 130.191406c-166.078125 0-155.535156.546875-159.257812-1.28125v17.378906c0 4.988282 4.082031 9.070313 9.070312 9.070313h146.570313c4.988281 0 9.074219-4.082031 9.074219-9.070313v-17.378906c-1.652344.8125-3.503907 1.28125-5.457032 1.28125zm0 0" fill="#3e4151"/><path d="m59.058594 146.289062v-16.097656c-15.589844 0-16.652344.363282-20-1.28125v17.378906c0 4.988282 4.082031 9.070313 9.070312 9.070313h20c-4.988281.003906-9.070312-4.082031-9.070312-9.070313zm0 0" fill="#353744"/><path d="m146.1875 34.492188h-49.070312c-19.210938 0-34.929688 15.71875-34.929688 34.929687v21.738281h118.929688v-21.738281c0-19.210937-15.71875-34.929687-34.929688-34.929687zm0 0" fill="#3e4151"/><path d="m117.117188 34.492188h-20c-19.210938 0-34.929688 15.71875-34.929688 34.929687v21.738281h20.003906v-21.738281c-.003906-19.210937 15.714844-34.929687 34.925782-34.929687zm0 0" fill="#353744"/><path d="m25.398438 260.542969c8.3125 7.371093 12.878906 18.09375 12.878906 29.203125v110.488281c0 8.402344-3.78125 16.363281-10.304688 21.660156-28.195312 22.902344-27.46875 53.875 2.882813 76.414063 5.65625 4.203125 12.5625 6.398437 19.609375 6.398437h141.734375c7.15625 0 14.171875-2.214843 19.910156-6.496093 30.210937-22.527344 30.910156-53.441407 2.746094-76.316407-6.519531-5.296875-10.304688-13.257812-10.304688-21.660156v-110.488281c0-11.109375 4.566407-21.832032 12.882813-29.203125 11.359375-10.074219 17.945312-22.050781 17.945312-34.902344 0 0-53.609375 23.851563-113.726562 0-60.117188-23.851563-114.203125 0-114.203125 0 0 12.851563 6.585937 24.828125 17.949219 34.902344zm0 0" fill="#72bdf6"/><path d="m47.640625 421.894531c6.523437-5.296875 10.304687-13.257812 10.304687-21.660156v-110.488281c0-11.109375-4.566406-21.832032-12.882812-29.203125-12.253906-10.867188-20.128906-25.09375-17.410156-41.171875-12.628906 2.929687-20.203125 6.269531-20.203125 6.269531 0 13.792969 7.535156 25.667969 17.945312 34.902344 8.402344 7.445312 12.882813 18.21875 12.882813 29.203125v110.488281c0 8.226563-3.648438 16.253906-10.304688 21.660156-12.933594 10.503907-20.523437 23.292969-20.523437 37.085938 0 21.238281 18.941406 37.527343 27.863281 42.101562 4.660156 2.390625 9.867188 3.625 15.152344 3.625h19.667968c-7.046874 0-13.953124-2.195312-19.613281-6.398437-30.394531-22.574219-31.023437-53.550782-2.878906-76.414063zm0 0" fill="#4b98d4"/><path d="m204.582031 288.496094h-166.335937c.054687 1.753906.050781 111.808594-.003906 113.003906h166.34375c-.015626-.417969-.035157-.839844-.035157-1.265625v-110.488281c0-.417969.019531-.835938.03125-1.25zm0 0" fill="#9ad14b"/><path d="m57.914062 288.496094h-19.660156c.03125 1.023437.050782 111.589844-.011718 113.003906h19.667968c.054688-1.167969.058594-111.203125.003906-113.003906zm0 0" fill="#76ab29"/><path d="m198.316406 88.160156h-153.800781c-6.859375 0-12.472656 5.609375-12.472656 12.46875v20.09375c0 6.855469 5.613281 12.46875 12.472656 12.46875h153.800781c6.855469 0 12.46875-5.609375 12.46875-12.46875v-20.09375c0-6.859375-5.609375-12.46875-12.46875-12.46875zm0 0" fill="#525468"/><path d="m52.042969 120.71875v-20.089844c0-6.859375 5.613281-12.46875 12.472656-12.46875h-20c-6.859375 0-12.472656 5.609375-12.472656 12.46875v20.089844c0 6.859375 5.613281 12.472656 12.472656 12.472656h20c-6.859375 0-12.472656-5.613281-12.472656-12.472656zm0 0" fill="#3e4151"/><path d="m23.347656 415.863281c-31.59375 25.664063-31.675781 62.40625 3.136719 88.261719 6.835937 5.078125 15.390625 7.875 24.082031 7.875h141.738282c8.824218 0 17.488281-2.835938 24.390624-7.980469 34.722657-25.890625 34.472657-62.585937 2.992188-88.15625-4.527344-3.675781-7.222656-9.039062-7.503906-14.832031 0-.023438 0-.042969 0-.066406-.015625-.3125-.027344-.621094-.027344-.9375v-37.734375c0-4.144531-3.359375-7.5-7.5-7.5-4.144531 0-7.503906 3.355469-7.503906 7.5v31.5h-151.269532v-98.003907h151.269532v31.5c0 4.144532 3.359375 7.5 7.5 7.5 4.144531 0 7.5-3.355468 7.5-7.5 0-42.535156-.007813-37.304687.023437-38.503906.003907-.226562.003907-.101562.007813-.3125.28125-8.753906 4.003906-16.917968 10.328125-22.527344 13.394531-11.875 20.472656-25.886718 20.472656-40.511718 0-20.582032-13.726563-39.457032-38.648437-53.152344-1.746094-.957031-2.832032-2.742188-2.832032-4.65625v-6.398438c5.808594-2.578124 9.871094-8.390624 9.871094-15.144531v-10.402343c4.285156-3.664063 7.015625-9.097657 7.015625-15.167969v-2.976563c26.773437-3.265625 47.542969-25.265625 47.542969-51.855468 0-28.832032-24.417969-52.285157-54.4375-52.285157h-67.789063c-2.726562-7.785156-10.128906-13.394531-18.835937-13.394531h-6.234375c-11.011719 0-19.96875 8.957031-19.96875 19.972656v6.8125h-1.449219c-23.394531 0-42.429688 19.035156-42.429688 42.429688v11.238281h-10.171874c-11.015626 0-19.972657 8.957031-19.972657 19.96875v20.09375c0 6.066406 2.730469 11.5 7.015625 15.167969v10.398437c0 6.753907 4.0625 12.566407 9.871094 15.144531v6.398438c0 1.914062-1.085938 3.699219-2.832031 4.660156-24.921875 13.691406-38.6484378 32.566406-38.6484378 53.148438 0 14.625 7.0781248 28.636718 20.4726568 40.511718 6.804687 6.039063 10.355468 14.796876 10.355468 23.597657 0 117.667969.015625 110.160156-.027344 111.488281-.28125 5.792969-2.980468 11.15625-7.503906 14.832031zm188.144532-387.46875c21.746093 0 39.4375 16.726563 39.4375 37.289063 0 18.332031-14.074219 33.609375-32.542969 36.703125v-1.964844c0-11.011719-8.957031-19.96875-19.96875-19.96875h-9.699219v-11.238281c0-19.394532-13.085938-35.78125-30.890625-40.820313zm-97.824219-8.421875c0-2.695312 2.273437-4.972656 4.96875-4.972656h6.234375c2.695312 0 4.972656 2.277344 4.972656 4.972656v6.8125h-16.175781zm-43.878907 49.242188c0-15.125 12.304688-27.425782 27.429688-27.425782h49.074219c15.121093 0 27.425781 12.300782 27.425781 27.425782v11.238281h-103.929688zm-30.144531 51.296875v-20.089844c0-2.695313 2.277344-4.96875 4.972657-4.96875h153.800781c2.695312 0 4.96875 2.273437 4.96875 4.96875v20.089844c0 2.714843-2.324219 4.972656-4.96875 4.972656h-153.800781c-2.617188 0-4.972657-2.230469-4.972657-4.972656zm156.730469 19.972656v5.597656c0 .851563-.722656 1.570313-1.574219 1.570313-6.691406 0-139.832031 0-146.570312 0-.851563 0-1.570313-.71875-1.570313-1.570313v-5.597656zm-165.898438 114.238281c-7.199218-6.382812-13.347656-14.65625-14.988281-24.261718 12.507813-4.269532 47.324219-13.742188 86.878907-3.480469 4.015624 1.042969 8.105468-1.367188 9.144531-5.375 1.042969-4.011719-1.367188-8.105469-5.375-9.144531-38.078125-9.878907-71.53125-3.417969-88.941407 1.683593 4.09375-10.660156 13.941407-20.589843 28.726563-28.714843 6.546875-3.597657 10.609375-10.417969 10.609375-17.804688v-4.972656h129.96875v4.972656c0 7.386719 4.0625 14.207031 10.609375 17.804688 17.660156 9.703124 28.273437 21.980468 30.445313 35-12.359376 4.28125-46.761719 13.757812-86.414063 3.457031-4.007813-1.042969-8.105469 1.367187-9.144531 5.375-1.042969 4.007812 1.363281 8.105469 5.371094 9.144531 37.910156 9.847656 71.085937 3.453125 88.421874-1.644531-2.707031 6.933593-7.707031 13.058593-13.230468 17.960937-7.632813 6.765625-12.710938 15.96875-14.585938 26.0625h-152.914062c-1.875-10.09375-6.953125-19.296875-14.582032-26.0625zm2.328126 172.785156c5.984374-4.859374 10.121093-11.421874 11.972656-18.714843h153.480468c1.851563 7.292969 5.984376 13.855469 11.972657 18.714843 24.371093 19.796876 23.773437 44.890626-2.503907 64.484376-4.328124 3.230468-9.808593 5.007812-15.425781 5.007812h-141.734375c-5.492187 0-10.871094-1.746094-15.140625-4.917969-26.359375-19.582031-27.0625-44.722656-2.621093-64.574219zm0 0"/></svg>