<svg height="512pt" viewBox="-11 0 512 512.002" width="512pt" xmlns="http://www.w3.org/2000/svg"><path d="m130.898438 314.929688v-49.269532h-76.449219c-8.914063 0-16.207031 7.292969-16.207031 16.207032v33.0625zm0 0" fill="#d1d0cf"/><path d="m74.449219 265.660156h-20c-8.914063 0-16.207031 7.292969-16.207031 16.207032v33.0625h20v-33.0625c0-8.914063 7.292968-16.207032 16.207031-16.207032zm0 0" fill="#c1c1c1"/><path d="m183.328125 416.050781h40.902344v-51.265625c0-6.761718-5.535157-12.292968-12.296875-12.292968h-28.605469zm0 0" fill="#525468"/><path d="m183.328125 352.492188h22.003906v63.558593h-22.003906zm0 0" fill="#3e4151"/><path d="m165.480469 314.929688v-81.34375c0-5.035157-4.082031-9.117188-9.117188-9.117188h-18.351562c-5.035157 0-9.117188 4.082031-9.117188 9.117188v81.34375zm0 0" fill="#525468"/><path d="m157.1875 224.511719c-.269531-.023438-.542969-.042969-.820312-.042969h-18.355469c-5.03125 0-9.113281 4.082031-9.113281 9.117188v81.34375h20v-81.34375c0-4.757813 3.644531-8.65625 8.289062-9.074219zm0 0" fill="#3e4151"/><path d="m98.679688 354.492188c40.09375 0 74.15625 25.722656 86.648437 61.558593v-92.21875c0-6.019531-4.878906-10.902343-10.902344-10.902343h-151.527343c-6.019532 0-10.902344 4.878906-10.902344 10.902343v92.242188c12.488281-35.851563 46.574218-61.582031 86.683594-61.582031zm0 0" fill="#e4e3e1"/><path d="m31.996094 323.832031c0-6.019531 4.882812-10.902343 10.90625-10.902343h-20.003906c-6.019532 0-10.902344 4.878906-10.902344 10.902343v92.242188c4.308594-12.371094 11.191406-23.53125 20-32.851563zm0 0" fill="#d1d0cf"/><path d="m391.640625 354.492188c34.648437 0 64.792969 19.210937 80.410156 47.554687v-62.105469c0-45.871094-37.183593-83.058594-83.054687-83.058594h-40.375c-5.144532 0-9.3125 4.167969-9.3125 9.3125v104.703126c14.839844-10.335938 32.871094-16.40625 52.332031-16.40625zm0 0" fill="#72bdf6"/><path d="m359.308594 266.195312c0-5.144531 4.171875-9.3125 9.3125-9.3125h-20c-5.144532 0-9.3125 4.167969-9.3125 9.3125v104.703126c6.15625-4.289063 12.871094-7.828126 20-10.519532zm0 0" fill="#4b98d4"/><path d="m390.855469 7.707031h-335.027344c-8.914063 0-16.203125 7.292969-16.203125 16.207031v17.40625h367.4375v-17.40625c0-8.914062-7.292969-16.207031-16.207031-16.207031zm0 0" fill="#3e4151"/><path d="m40.644531 18.316406c-.648437 1.75-1.019531 3.628906-1.019531 5.597656v17.40625h367.4375v-17.40625c0-1.964843-.375-3.847656-1.023438-5.59375h-365.394531zm0 0" fill="#353744"/><path d="m482.863281 434.125c-5.046875-45.914062-43.964843-81.632812-91.222656-81.632812-40.097656 0-74.160156 25.722656-86.652344 61.558593h34.320313c10.453125-18.058593 29.964844-30.21875 52.332031-30.21875 33.378906 0 60.4375 27.058594 60.4375 60.4375h21.617187c5.453126 0 9.765626-4.722656 9.167969-10.144531zm0 0" fill="#4b98d4"/><path d="m401.507812 353.035156c-3.242187-.347656-6.53125-.542968-9.867187-.542968-40.097656 0-74.160156 25.722656-86.652344 61.558593h19.761719c11.449219-32.847656 41.027344-57.179687 76.757812-61.015625zm0 0" fill="#2472b2"/><path d="m151.007812 414.050781h34.320313c-12.492187-35.835937-46.554687-61.558593-86.648437-61.558593-47.261719 0-86.175782 35.71875-91.226563 81.632812-.59375 5.421875 3.714844 10.144531 9.171875 10.144531h21.617188c0-33.378906 27.058593-60.4375 60.4375-60.4375 22.363281 0 41.878906 12.160157 52.328124 30.21875zm0 0" fill="#4b98d4"/><path d="m27.503906 434.125c4.6875-42.628906 38.574219-76.449219 81.226563-81.074219-51.03125-5.566406-95.816407 31.410157-101.273438 81.074219-.597656 5.421875 3.714844 10.144531 9.167969 10.144531h20.050781c-5.457031 0-9.769531-4.722656-9.171875-10.144531zm0 0" fill="#2472b2"/><path d="m334.125 462.839844c-5.125-15.882813-3.582031-33.644532 5.183594-48.789063h-188.300782c8.761719 15.140625 10.3125 32.898438 5.1875 48.789063zm0 0" fill="#3e4151"/><path d="m172.34375 414.050781h-21.332031c8.757812 15.136719 10.3125 32.898438 5.183593 48.789063h21.335938c5.117188-15.859375 3.589844-33.625-5.1875-48.789063zm0 0" fill="#353744"/><path d="m418.480469 38.320312h-390.277344c-8.914063 0-16.207031 7.292969-16.207031 16.207032v14.40625c0 8.914062 7.292968 16.207031 16.207031 16.207031h390.277344c8.914062 0 16.207031-7.292969 16.207031-16.207031v-14.40625c0-8.914063-7.292969-16.207032-16.207031-16.207032zm0 0" fill="#525468"/><path d="m418.480469 65.136719h-390.277344c-7.960937 0-14.609375-5.816407-15.945313-13.410157-.160156.914063-.261718 1.84375-.261718 2.800782v14.40625c0 8.914062 7.292968 16.207031 16.207031 16.207031h390.277344c8.914062 0 16.207031-7.292969 16.207031-16.207031v-14.40625c0-.957032-.097656-1.886719-.257812-2.800782-1.339844 7.59375-7.988282 13.410157-15.949219 13.410157zm0 0" fill="#3e4151"/><path d="m98.679688 382.832031c-33.878907 0-61.4375 27.5625-61.4375 61.4375 0 33.878907 27.558593 61.4375 61.4375 61.4375 33.875 0 61.433593-27.558593 61.433593-61.4375.003907-33.875-27.558593-61.4375-61.433593-61.4375zm0 0" fill="#525468"/><path d="m57.242188 444.269531c0-30.46875 22.300781-55.816406 51.4375-60.609375-37.703126-6.199218-71.4375 23.054688-71.4375 60.609375 0 33.878907 27.558593 61.4375 61.4375 61.4375 3.40625 0 6.742187-.289062 10-.828125-29.136719-4.789062-51.4375-30.136718-51.4375-60.609375zm0 0" fill="#3e4151"/><path d="m128.898438 444.269531c0 16.691407-13.53125 30.21875-30.21875 30.21875-16.691407 0-30.222657-13.527343-30.222657-30.21875 0-16.6875 13.53125-30.21875 30.222657-30.21875 16.6875 0 30.21875 13.53125 30.21875 30.21875zm0 0" fill="#e4e3e1"/><path d="m108.679688 415.753906c-19.625-6.882812-40.222657 7.695313-40.222657 28.515625 0 16.6875 13.53125 30.21875 30.222657 30.21875 3.503906 0 6.867187-.605469 10-1.703125-26.898438-9.433594-26.871094-47.609375 0-57.03125zm0 0" fill="#d1d0cf"/><path d="m391.640625 382.832031c-33.878906 0-61.4375 27.5625-61.4375 61.4375 0 33.878907 27.5625 61.4375 61.4375 61.4375s61.4375-27.558593 61.4375-61.4375c0-33.875-27.5625-61.4375-61.4375-61.4375zm0 0" fill="#525468"/><path d="m350.203125 444.269531c0-30.46875 22.300781-55.816406 51.4375-60.609375-3.257813-.535156-6.59375-.828125-10-.828125-33.878906 0-61.4375 27.5625-61.4375 61.4375 0 33.878907 27.558594 61.4375 61.4375 61.4375 3.40625 0 6.742187-.289062 10-.828125-29.136719-4.789062-51.4375-30.136718-51.4375-60.609375zm0 0" fill="#3e4151"/><path d="m421.859375 444.269531c0 16.691407-13.53125 30.21875-30.21875 30.21875-16.691406 0-30.21875-13.527343-30.21875-30.21875 0-16.6875 13.527344-30.21875 30.21875-30.21875 16.6875 0 30.21875 13.53125 30.21875 30.21875zm0 0" fill="#e4e3e1"/><path d="m401.640625 415.753906c-3.128906-1.097656-6.492187-1.703125-10-1.703125-16.6875 0-30.21875 13.527344-30.21875 30.21875 0 16.6875 13.527344 30.21875 30.21875 30.21875 3.507813 0 6.871094-.605469 10-1.703125-26.898437-9.433594-26.867187-47.609375 0-57.03125zm0 0" fill="#d1d0cf"/><path d="m391.742188 406.34375c-20.800782 0-37.71875 16.921875-37.71875 37.71875s16.917968 37.71875 37.71875 37.71875c20.796874 0 37.71875-16.921875 37.71875-37.71875s-16.921876-37.71875-37.71875-37.71875zm0 60.4375c-12.527344 0-22.71875-10.191406-22.71875-22.71875s10.191406-22.71875 22.71875-22.71875c12.527343 0 22.71875 10.191406 22.71875 22.71875s-10.191407 22.71875-22.71875 22.71875zm0 0"/><path d="m98.78125 406.34375c-20.800781 0-37.71875 16.921875-37.71875 37.71875s16.917969 37.71875 37.71875 37.71875c20.796875 0 37.71875-16.921875 37.71875-37.71875s-16.921875-37.71875-37.71875-37.71875zm0 60.4375c-12.527344 0-22.71875-10.191406-22.71875-22.71875s10.191406-22.71875 22.71875-22.71875c12.523438 0 22.71875 10.191406 22.71875 22.71875s-10.195312 22.71875-22.71875 22.71875zm0 0"/><path d="m479.65625 397.796875v-41.96875c0-4.144531-3.359375-7.5-7.5-7.5-4.144531 0-7.5 3.355469-7.5 7.5v20.761719c-19.003906-20.519532-45.53125-31.804688-72.914062-31.804688-15.25 0-30.632813 3.476563-44.832032 10.695313v-89.492188c0-1 .816406-1.8125 1.8125-1.8125 1.003906 0 41.667969 0 40.394532 0 35.304687.007813 65.546874 24 73.546874 58.351563.9375 4.03125 4.972657 6.539062 9.007813 5.601562 4.03125-.9375 6.542969-4.972656 5.601563-9.003906-8.855469-38.019531-41.714844-67.054688-82.25-69.734375l-38.878907-156.960937h62.441407c13.074218 0 23.707031-10.632813 23.707031-23.707032v-14.402344c0-13.074218-10.632813-23.707031-23.707031-23.707031h-3.917969v-6.90625c-.003907-13.074219-10.636719-23.707031-23.710938-23.707031h-335.027343c-13.070313 0-23.707032 10.632812-23.707032 23.707031v6.90625h-3.917968c-13.070313 0-23.707032 10.632813-23.707032 23.707031v14.40625c0 13.070313 10.636719 23.707032 23.707032 23.707032h47.863281v165.523437h-21.617188c-13.074219 0-23.707031 10.632813-23.707031 23.703125v23.5625h-7.839844c-10.148437 0-18.40625 8.257813-18.40625 18.40625v88.960938c-2.171875 6.542968-3.714844 13.398437-4.496094 20.507812-1.082031 9.832032 6.683594 18.464844 16.625 18.464844h14.542969c3.746094 33.945312 32.585938 60.441406 67.511719 60.441406 28.226562 0 52.484375-17.3125 62.726562-41.871094h66.253907c4.144531 0 7.5-3.355468 7.5-7.5 0-4.140624-3.355469-7.5-7.5-7.5h-61.949219c.539062-3.277343.90625-7.378906.90625-11.066406 0-7.910156-1.449219-15.78125-3.917969-22.71875h164.917969c-2.457031 6.921875-3.914062 14.816406-3.914062 22.71875 0 3.699219.363281 7.761719.90625 11.066406h-61.949219c-4.144531 0-7.5 3.359376-7.5 7.5 0 4.144532 3.355469 7.5 7.5 7.5h66.253906c10.242187 24.558594 34.5 41.871094 62.726563 41.871094 34.921874 0 63.765624-26.496094 67.511718-60.441406h14.542969c9.929687 0 17.707031-8.621094 16.625-18.460938-1.394531-12.695312-5.140625-24.597656-10.765625-35.304687zm-432.429688-374.089844c0-4.800781 3.902344-8.707031 8.703126-8.707031h335.027343c4.800781 0 8.707031 3.90625 8.707031 8.707031v6.90625h-352.4375zm-18.921874 53.722657c-4.800782 0-8.707032-3.902344-8.707032-8.707032v-14.402344c0-4.800781 3.90625-8.707031 8.707032-8.707031h378.859374 11.421876c4.796874 0 8.703124 3.90625 8.703124 8.707031v14.40625c0 4.800782-3.90625 8.707032-8.703124 8.707032h-390.28125zm62.867187 195.523437h30.328125v32.269531h-30.328125zm-45.328125 8.707031c0-4.800781 3.90625-8.707031 8.707031-8.707031h21.617188v32.269531h-30.324219zm52.9375 215.339844c-29.191406 0-52.9375-23.75-52.9375-52.9375 0-29.191406 23.746094-52.9375 52.9375-52.9375 28.785156 0 52.9375 23.40625 52.9375 52.9375 0 29.027344-23.613281 52.9375-52.9375 52.9375zm56.488281-90.65625c-12.148437-18.148438-33.101562-30.21875-56.488281-30.21875-35.003906 0-63.796875 26.613281-67.527344 60.4375h-14.527344c-.992187 0-1.824218-.839844-1.714843-1.824219 4.71875-42.933593 41.238281-74.953125 83.769531-74.953125 31.785156 0 61.058594 18.015625 75.34375 46.558594zm22.664063-22.191406c-18.695313-24.675782-48.019532-39.367188-79.152344-39.367188-30.648438 0-60.117188 14.140625-79.179688 39.296875v-60.457031c0-1.875 1.523438-3.402344 3.402344-3.402344h151.527344c1.875 0 3.402344 1.527344 3.402344 3.402344zm-41.433594-78.929688c0-6.851562 0-64.578125 0-71.84375 0-.890625.722656-1.617187 1.613281-1.617187h18.355469c.890625 0 1.613281.726562 1.613281 1.617187v71.84375zm80.332031 101.121094h-23.898437v-46.558594h19.105468c2.597657 0 4.792969 2.195313 4.792969 4.792969zm83.101563 0h-68.101563v-41.765625c0-10.914063-8.878906-19.792969-19.796875-19.792969h-19.101562v-21.160156c0-10.148438-8.257813-18.402344-18.402344-18.402344h-1.445312v-71.84375c0-9.164062-7.457032-16.617187-16.617188-16.617187h-18.355469c-9.160156 0-16.613281 7.453125-16.613281 16.617187v24.574219h-30.328125v-165.523437h249.515625l38.824219 156.746093h-30.789063c-9.269531 0-16.8125 7.539063-16.8125 16.8125v40.039063l-41.113281-30.140625 4.519531-5.84375c2.53125-3.277344 1.929688-7.984375-1.347656-10.519531-3.273438-2.535157-7.984375-1.9375-10.519531 1.34375l-18.457031 23.855468c-2.535157 3.277344-1.933594 7.988282 1.34375 10.523438 3.273437 2.53125 7.984374 1.933594 10.523437-1.34375l4.753906-6.148438 50.296875 36.871094v40.257812c-13.921875 10.519532-25.097656 24.710938-31.976562 41.460938zm91.808594 90.65625c-29.023438 0-52.9375-23.582031-52.9375-52.9375 0-29.484375 24.105468-52.9375 52.9375-52.9375 29.1875 0 52.9375 23.746094 52.9375 52.9375 0 29.1875-23.75 52.9375-52.9375 52.9375zm82.054687-60.4375h-14.527344c-3.765625-34.109375-32.8125-60.4375-67.527343-60.4375-22.480469 0-43.828126 11.304688-56.488282 30.21875h-18.871094c14.117188-28.207031 43.214844-46.558594 75.359376-46.558594 42.84375 0 79.085937 32.363282 83.769531 74.953125.105469.984375-.726563 1.824219-1.714844 1.824219zm0 0"/></svg>