<svg height="512pt" viewBox="0 -8 512 512" width="512pt" xmlns="http://www.w3.org/2000/svg"><path d="m281.804688 119.773438h-51.8125c-7.597657 0-13.816407 6.214843-13.816407 13.816406v13.511718h79.441407v-13.511718c0-7.601563-6.214844-13.816406-13.8125-13.816406zm0 0" fill="#525468"/><path d="m249.992188 119.773438h-20c-7.597657 0-13.816407 6.214843-13.816407 13.816406v13.511718h20v-13.511718c0-7.601563 6.21875-13.816406 13.816407-13.816406zm0 0" fill="#3e4151"/><path d="m194.570312 145.101562h122.65625v155.816407h-122.65625zm0 0" fill="#525468"/><path d="m194.570312 251.792969h122.65625v49.125h-122.65625zm0 0" fill="#66697f"/><path d="m194.570312 251.792969h22.035157v49.125h-22.035157zm0 0" fill="#3e4151"/><path d="m194.570312 145.101562h61.328126v106.691407h-61.328126zm0 0" fill="#3e4151"/><path d="m194.570312 145.101562h22.035157v106.691407h-22.035157zm0 0" fill="#353744"/><path d="m425.144531 126.425781h-87.5v-77.503906h87.5zm0 0" fill="#d1d0cf"/><path d="m357.644531 126.425781h-20v-77.503906h20zm0 0" fill="#c1c1c1"/><path d="m322.964844 7.707031h116.859375c4.292969 0 7.773437 3.480469 7.773437 7.773438v32.8125c0 4.292969-3.480468 7.769531-7.773437 7.769531h-116.859375c-4.292969 0-7.773438-3.476562-7.773438-7.769531v-32.8125c0-4.292969 3.480469-7.773438 7.773438-7.773438zm0 0" fill="#e4e3e1"/><path d="m335.191406 48.292969v-32.8125c0-4.292969 3.480469-7.773438 7.773438-7.773438h-20c-4.292969 0-7.773438 3.480469-7.773438 7.773438v32.8125c0 4.292969 3.480469 7.769531 7.773438 7.769531h20c-4.292969 0-7.773438-3.476562-7.773438-7.769531zm0 0" fill="#d1d0cf"/><path d="m425.144531 126.425781h-87.5v-77.503906h87.5zm0 0" fill="#d1d0cf"/><path d="m357.644531 126.425781h-20v-77.503906h20zm0 0" fill="#c1c1c1"/><path d="m322.964844 7.707031h116.859375c4.292969 0 7.773437 3.480469 7.773437 7.773438v32.8125c0 4.292969-3.480468 7.769531-7.773437 7.769531h-116.859375c-4.292969 0-7.773438-3.476562-7.773438-7.769531v-32.8125c0-4.292969 3.480469-7.773438 7.773438-7.773438zm0 0" fill="#e4e3e1"/><path d="m335.191406 48.292969v-32.8125c0-4.292969 3.480469-7.773438 7.773438-7.773438h-20c-4.292969 0-7.773438 3.480469-7.773438 7.773438v32.8125c0 4.292969 3.480469 7.769531 7.773438 7.769531h20c-4.292969 0-7.773438-3.476562-7.773438-7.769531zm0 0" fill="#d1d0cf"/><path d="m448.992188 131.828125c-.796876-6.871094-6.613282-12.054687-13.53125-12.054687h-106.644532c-7.523437 0-13.625 6.097656-13.625 13.621093v331.015625h172.320313zm0 0" fill="#72bdf6"/><path d="m348.816406 119.773438h-20c-7.523437 0-13.625 6.097656-13.625 13.621093v331.015625h20v-331.015625c0-7.523437 6.101563-13.621093 13.625-13.621093zm0 0" fill="#4b98d4"/><path d="m315.191406 464.410156h172.320313l-18.933594-163.492187h-153.386719zm0 0" fill="#4b98d4"/><path d="m315.191406 300.917969h20v163.492187h-20zm0 0" fill="#2472b2"/><path d="m315.191406 464.410156h172.320313l-2.890625-24.945312h-169.429688zm0 0" fill="#72bdf6"/><path d="m315.191406 439.464844h20v24.945312h-20zm0 0" fill="#4b98d4"/><path d="m492.308594 462.777344h-181.144532c-6.652343 0-12.089843 5.808594-12.089843 12.90625s5.441406 12.902344 12.089843 12.902344h181.144532c6.648437 0 12.089844-5.808594 12.089844-12.902344 0-7.097656-5.441407-12.90625-12.089844-12.90625zm0 0" fill="#525468"/><path d="m319.074219 475.683594c0-7.097656 5.441406-12.90625 12.089843-12.90625h-20.003906c-6.648437 0-12.085937 5.808594-12.085937 12.90625 0 7.09375 5.4375 12.902344 12.085937 12.902344h20.003906c-6.648437 0-12.089843-5.804688-12.089843-12.902344zm0 0" fill="#3e4151"/><path d="m174.152344 126.425781h-87.503906v-77.503906h87.503906zm0 0" fill="#d1d0cf"/><path d="m106.652344 126.425781h-20.003906v-77.503906h20.003906zm0 0" fill="#c1c1c1"/><path d="m71.96875 7.707031h116.863281c4.292969 0 7.769531 3.480469 7.769531 7.773438v32.8125c0 4.292969-3.476562 7.769531-7.769531 7.769531h-116.863281c-4.289062 0-7.769531-3.476562-7.769531-7.769531v-32.8125c0-4.292969 3.480469-7.773438 7.769531-7.773438zm0 0" fill="#e4e3e1"/><path d="m84.199219 48.292969v-32.8125c0-4.292969 3.480469-7.773438 7.773437-7.773438h-20.003906c-4.289062 0-7.769531 3.480469-7.769531 7.773438v32.8125c0 4.292969 3.480469 7.769531 7.769531 7.769531h20.003906c-4.292968 0-7.773437-3.476562-7.773437-7.769531zm0 0" fill="#d1d0cf"/><path d="m174.152344 126.425781h-87.503906v-77.503906h87.503906zm0 0" fill="#d1d0cf"/><path d="m106.652344 126.425781h-20.003906v-77.503906h20.003906zm0 0" fill="#c1c1c1"/><path d="m71.96875 7.707031h116.863281c4.292969 0 7.769531 3.480469 7.769531 7.773438v32.8125c0 4.292969-3.476562 7.769531-7.769531 7.769531h-116.863281c-4.289062 0-7.769531-3.476562-7.769531-7.769531v-32.8125c0-4.292969 3.480469-7.773438 7.769531-7.773438zm0 0" fill="#e4e3e1"/><path d="m84.199219 48.292969v-32.8125c0-4.292969 3.480469-7.773438 7.773437-7.773438h-20.003906c-4.289062 0-7.769531 3.480469-7.769531 7.773438v32.8125c0 4.292969 3.480469 7.769531 7.769531 7.769531h20.003906c-4.292968 0-7.773437-3.476562-7.773437-7.769531zm0 0" fill="#d1d0cf"/><path d="m62.800781 131.828125c.796875-6.871094 6.617188-12.054687 13.535157-12.054687h106.644531c7.523437 0 13.625 6.097656 13.625 13.621093v331.015625h-172.320313zm0 0" fill="#72bdf6"/><path d="m96.335938 119.773438h-20c-6.917969 0-12.738282 5.183593-13.535157 12.054687l-38.515625 332.582031h20l38.519532-332.582031c.792968-6.871094 6.613281-12.054687 13.53125-12.054687zm0 0" fill="#4b98d4"/><path d="m196.605469 464.410156h-172.320313l18.933594-163.492187h153.386719zm0 0" fill="#4b98d4"/><path d="m43.21875 300.917969-1.777344 15.363281-17.15625 148.128906h20l18.9375-163.492187zm0 0" fill="#2472b2"/><path d="m196.605469 464.410156h-172.320313l2.890625-24.945312h169.429688zm0 0" fill="#72bdf6"/><path d="m27.175781 439.464844-2.890625 24.945312h20l2.890625-24.945312zm0 0" fill="#4b98d4"/><path d="m19.488281 462.777344h181.144531c6.648438 0 12.089844 5.808594 12.089844 12.90625s-5.441406 12.902344-12.089844 12.902344h-181.144531c-6.652343 0-12.089843-5.808594-12.089843-12.902344 0-7.097656 5.441406-12.90625 12.089843-12.90625zm0 0" fill="#525468"/><path d="m27.398438 475.683594c0-7.097656 5.441406-12.90625 12.089843-12.90625h-20c-6.648437 0-12.089843 5.808594-12.089843 12.90625 0 7.09375 5.441406 12.902344 12.089843 12.902344h20c-6.648437 0-12.089843-5.804688-12.089843-12.902344zm0 0" fill="#3e4151"/><path d="m494.304688 456.796875c-1.542969-13.34375-25.011719-215.992187-26.601563-229.703125-.476563-4.117188-4.195313-7.070312-8.3125-6.585938-4.113281.476563-7.0625 4.195313-6.589844 8.3125l7.460938 64.390626h-137.46875c0-7.378907 0-152.621094 0-160.023438 0-3.375 2.75-6.121094 6.125-6.121094h106.644531c3.109375 0 5.726562 2.328125 6.082031 5.417969l7.105469 61.332031c.472656 4.117188 4.199219 7.066406 8.3125 6.589844s7.0625-4.199219 6.585938-8.316406l-7.101563-61.332032c-1.234375-10.65625-10.257813-18.695312-20.984375-18.695312h-2.8125v-48.703125h7.179688c8.417968 0 15.269531-6.851563 15.269531-15.273437v-32.8125c0-8.421876-6.851563-15.273438-15.269531-15.273438h-40.929688c-4.144531 0-7.503906 3.359375-7.503906 7.5 0 4.144531 3.359375 7.5 7.503906 7.5h40.929688c.148437 0 .269531.121094.269531.273438v32.8125c0 .410156-117.132813.269531-117.132813.269531-.148437 0-.269531-.121094-.269531-.269531v-32.8125c0-.152344.121094-.273438.269531-.273438h40.929688c4.144531 0 7.5-3.355469 7.5-7.5 0-4.140625-3.355469-7.5-7.5-7.5h-40.929688c-8.421875 0-15.273437 6.851562-15.273437 15.273438v32.8125c0 8.421874 6.851562 15.273437 15.273437 15.273437h7.179688v48.707031h-1.328125c-11.644531 0-21.121094 9.476563-21.121094 21.125v4.203125h-4.574219v-4.011719c0-11.753906-9.5625-21.316406-21.316406-21.316406h-51.8125c-11.753906 0-21.316406 9.5625-21.316406 21.316406v4.011719h-4.570313v-4.203125c0-11.648437-9.476562-21.125-21.125-21.125h-1.328125v-48.707031h7.179688c8.421875 0 15.273437-6.851563 15.273437-15.273437v-32.8125c0-8.421876-6.851562-15.273438-15.273437-15.273438h-116.863282c-8.417968 0-15.269531 6.851562-15.269531 15.273438v32.8125c0 8.421874 6.851563 15.273437 15.269531 15.273437h7.179688v48.707031h-2.8125c-10.730469 0-19.75 8.035156-20.984375 18.695313-.382813 3.296875-37.308594 322.152343-37.757813 326.035156-9.914062.957031-17.695312 9.332031-17.695312 19.492187 0 10.804688 8.789062 19.59375 19.589844 19.59375h181.144531c10.804687 0 19.589844-8.789062 19.589844-19.59375 0-9.613281-6.96875-17.617187-16.117188-19.261718 0-4.453125 0-141.109375 0-148.816406h103.585938v148.816406c-9.148438 1.644531-16.117188 9.648437-16.117188 19.265625 0 10.800781 8.789063 19.589843 19.589844 19.589843h181.144531c10.800782 0 19.589844-8.789062 19.589844-19.589843 0-10.164063-7.78125-18.539063-17.695312-19.496094zm-149.058594-393.4375h72.5v48.707031h-72.5zm-273.175782-15.003906c-.148437 0-.269531-.121094-.269531-.269531v-32.8125c0-.152344.121094-.273438.269531-.273438h116.863282c.148437 0 .269531.121094.269531.273438v32.8125c0 .410156-116.71875.269531-117.132813.269531zm94.683594 15.003906v48.707031h-72.503906v-48.707031zm-96.398437 69.125c.355469-3.089844 2.972656-5.417969 6.082031-5.417969h106.644531c3.375 0 6.121094 2.746094 6.121094 6.125v160.019532h-137.460937zm-20.351563 175.726563h139.199219v123.542968h-153.507813zm-16.046875 138.546874h155.246094v9.945313h-156.394531zm171.367188 29.53125c0 2.488282-2.101563 4.589844-4.589844 4.589844h-181.144531c-2.488282 0-4.589844-2.101562-4.589844-4.589844 0-2.484374 2.101562-4.585937 4.589844-4.585937h181.144531c2.488281 0 4.589844 2.097656 4.589844 4.585937zm117.46875-168.078124h139.203125l14.308594 123.542968h-153.511719zm0 138.546874h155.246093l1.152344 9.945313h-156.398437zm-15-294.363281v91.691407h-44.292969v-91.691407zm-84.015625-19.011719c0-3.484374 2.835937-6.316406 6.316406-6.316406h51.8125c3.480469 0 6.3125 2.832032 6.3125 6.316406v4.011719h-64.441406zm-19.570313 19.011719h44.292969v91.691407h-44.292969zm0 140.816407v-34.125h103.585938v34.125zm288.203125 187.667968h-181.144531c-2.488281 0-4.589844-2.101562-4.589844-4.589844 0-2.484374 2.101563-4.585937 4.589844-4.585937h181.144531c2.488282 0 4.589844 2.101563 4.589844 4.585937 0 2.488282-2.101562 4.589844-4.589844 4.589844zm0 0"/></svg>