<svg height="511.999pt" viewBox="1 1 511.999 511.999" width="511.999pt" xmlns="http://www.w3.org/2000/svg"><path d="m206.777344 71.46875-108.863282-44.910156v95.890625l108.863282-44.910157c3.03125-1.25 3.03125-4.820312 0-6.070312zm0 0" fill="#ea3f3f"/><path d="m119.621094 35.511719-21.707032-8.953125v95.890625l21.707032-8.957031zm0 0" fill="#d4352f"/><path d="m495.464844 286.179688c-61.085938 4.324218-121.316406 17.367187-178.828125 38.847656-19.777344 7.386718-40.097657 13.09375-60.738281 17.125 2.378906.84375 4.757812 1.6875 7.125 2.570312 33.058593 12.347656 68.066406 18.671875 103.355468 18.671875h127.011719c6.078125 0 11.007813 4.925781 11.007813 11.003907v-79.933594c0-4.832032-4.113282-8.625-8.933594-8.285156zm0 0" fill="#76ab29"/><path d="m493.53125 342.414062h-125.394531c-24.859375 0-49.375-3.378906-73.15625-10.039062-12.859375 3.9375-25.902344 7.203125-39.082031 9.777344 2.378906.84375 4.757812 1.6875 7.125 2.570312 33.058593 12.347656 68.066406 18.671875 103.355468 18.671875h127.011719c6.078125 0 11.007813 4.925781 11.007813 11.003907v-30.003907c-3.382813-1.277343-7.042969-1.980469-10.867188-1.980469zm0 0" fill="#6c9b1b"/><path d="m493.53125 362.414062h-125.394531c-34.84375 0-69.40625-6.242187-102.042969-18.433593-91.253906-34.085938-154.742188-30.773438-245.386719-30.773438-7.351562 0-13.308593 5.957031-13.308593 13.300781v165.785157c0 6.855469 5.5625 12.414062 12.417968 12.414062h469.5c8.328125 0 15.082032-6.746093 15.082032-15.070312v-116.363281c0-6-4.867188-10.859376-10.867188-10.859376zm0 0" fill="#9ad14b"/><path d="m27.398438 492.292969v-165.785157c0-7.34375 5.957031-13.300781 13.308593-13.300781 10.683594 0 20.980469-.042969 30.996094-.070312-16.222656-.054688-33.074219.070312-51 .070312-7.347656 0-13.304687 5.957031-13.304687 13.300781v165.785157c0 6.855469 5.558593 12.414062 12.417968 12.414062h20.003906c-6.859374 0-12.421874-5.558593-12.421874-12.414062zm0 0" fill="#76ab29"/><path d="m504.398438 412.265625h-229.367188c-10.015625 0-18.132812 8.113281-18.132812 18.121094 0 10.007812 8.117187 18.121093 18.132812 18.121093h229.367188zm0 0" fill="#e4e3e1"/><path d="m259.914062 420.382812c-1.902343 2.867188-3.015624 6.304688-3.015624 10.003907 0 10.007812 8.117187 18.121093 18.132812 18.121093h229.367188v-20.003906h-229.367188c-6.316406 0-11.871094-3.226562-15.117188-8.121094zm0 0" fill="#d1d0cf"/><path d="m99.621094 445.765625v-424.757813c0-7.347656-5.957032-13.300781-13.308594-13.300781-7.347656 0-13.304688 5.953125-13.304688 13.300781v416.792969c5.5 3.769531 15.050782 6.667969 26.613282 7.964844zm0 0" fill="#e4e3e1"/><path d="m93.007812 21.503906c0-3.492187 1.308594-6.667968 3.445313-9.097656-2.441406-2.871094-6.074219-4.699219-10.140625-4.699219-7.347656 0-13.304688 5.953125-13.304688 13.296875v416.796875c4.410157 3.023438 11.433594 5.484375 20 7.007813zm0 0" fill="#d1d0cf"/><path d="m73.007812 422.96875c-3.242187 2.21875-5.085937 4.738281-5.085937 7.417969 0 2.671875 1.839844 5.195312 5.085937 7.414062zm0 0" fill="#353744"/><path d="m113.292969 414.257812c-4.765625 0-9.355469.261719-13.671875.746094v30.761719c4.316406.484375 8.90625.746094 13.671875.746094 25.058593 0 45.375-7.21875 45.375-16.125 0-8.910157-20.316407-16.128907-45.375-16.128907zm0 0" fill="#3e4151"/><path d="m119.621094 414.417969c-2.066406-.105469-4.179688-.160157-6.328125-.160157-4.765625 0-9.355469.261719-13.671875.746094v30.761719c4.316406.484375 8.90625.746094 13.671875.746094 2.148437 0 4.261719-.054688 6.328125-.160157zm0 0" fill="#353744"/><path d="m495.148438 278.492188c-61.191407 4.328124-121.296876 17.386718-178.644532 38.808593-18.332031 6.84375-37.421875 12.265625-56.773437 16.15625-49.121094-17.269531-100.34375-26.601562-152.507813-27.789062v-179.140625l102.550782-42.308594c9.160156-3.777344 9.144531-16.070312.003906-19.84375l-102.554688-42.308594c0-13.816406-10.007812-22.066406-20.804687-22.066406-11.476563 0-20.808594 9.332031-20.808594 20.800781v284.703125h-44.804687c-11.472657-.003906-20.804688 9.328125-20.804688 20.796875v165.785157c0 10.980468 8.9375 19.914062 19.917969 19.914062h218.582031c4.140625 0 7.5-3.359375 7.5-7.5 0-4.144531-3.359375-7.5-7.5-7.5h-218.582031c-2.710938 0-4.917969-2.203125-4.917969-4.914062v-165.785157c0-3.195312 2.605469-5.796875 5.808594-5.796875h44.800781v98.707032c-4.117187 3.964843-5.085937 8.027343-5.085937 10.96875 0 31.40625 105.746093 31.585937 105.746093 0 0-19.503907-37.351562-24.46875-59.046875-23.480469v-86.035157c134.308594 3.15625 158.902344 49.042969 261.015625 49.042969h125.394531c1.855469 0 3.367188 1.507813 3.367188 3.359375v31.488282h-221.867188c-14.136718 0-25.632812 11.496093-25.632812 25.621093 0 14.128907 11.496094 25.621094 25.632812 25.621094h221.867188v33.628906c0 4.175781-3.402344 7.570313-7.582031 7.570313h-215.917969c-4.144531 0-7.5 3.359375-7.5 7.5 0 4.144531 3.355469 7.5 7.5 7.5h215.917969c12.453125 0 22.582031-10.125 22.582031-22.570313 0-5.746093 0-142.097656 0-147.921875 0-4.140625-3.359375-7.5-7.5-7.5-4.144531 0-7.5 3.359375-7.5 7.5v13.507813c-1.074219-.195313-2.316406-.308594-3.367188-.308594-138.46875 0-157.902343 2.824219-207.289062-12.054687 41.644531-11.117188 100.96875-41.488282 209.863281-49.195313.410157-.039063.792969.269531.792969.695313v12.355468c0 4.140625 3.355469 7.5 7.5 7.5 4.140625 0 7.5-3.359375 7.5-7.5v-12.355468c0-9.160157-7.832031-16.3125-16.851562-15.65625zm-387.925782-240.199219 87.269532 36.003906-87.269532 36zm-15 376.503906v21.996094c-4.550781-.9375-8.542968-2.164063-11.613281-3.578125 0-2.730469 0-409.699219 0-412.417969 0-3.195313 2.605469-5.796875 5.808594-5.796875s5.804687 2.601562 5.804687 5.796875zm58.777344 15.382813c-3.195312 3.601562-19.582031 9.710937-43.777344 8.46875v-16.941407c23.613282-1.210937 40.394532 4.652344 43.777344 8.472657zm346 10.617187h-221.867188c-5.863281 0-10.632812-4.761719-10.632812-10.617187 0-5.855469 4.769531-10.621094 10.632812-10.621094h221.867188zm0 0"/></svg>