<svg height="512pt" viewBox="-83 0 512 512.001" width="512pt" xmlns="http://www.w3.org/2000/svg"><path d="m310.753906 504.707031h-275.378906c-15.425781 0-27.976562-12.550781-27.976562-27.976562v-441.046875c0-15.425782 12.550781-27.976563 27.976562-27.976563h275.378906c15.425782 0 27.976563 12.550781 27.976563 27.976563v441.046875c0 15.425781-12.550781 27.976562-27.976563 27.976562zm0 0" fill="#6c9b1b"/><path d="m27.402344 476.730469v-441.046875c0-15.425782 12.550781-27.976563 27.976562-27.976563h-20.003906c-15.425781 0-27.976562 12.550781-27.976562 27.976563v441.046875c0 15.425781 12.550781 27.976562 27.976562 27.976562h20.003906c-15.429687 0-27.976562-12.550781-27.976562-27.976562zm0 0" fill="#618912"/><path d="m37.023438 37.332031h272.085937v437.75h-272.085937zm0 0" fill="#9ad14b"/><path d="m37.023438 37.332031h20.167968v437.75h-20.167968zm0 0" fill="#76ab29"/><path d="m211.191406 109.445312c0 21.054688-17.070312 38.125-38.125 38.125-21.054687 0-38.125-17.070312-38.125-38.125 0-21.058593 17.070313-38.128906 38.125-38.128906 21.054688 0 38.125 17.070313 38.125 38.128906zm0 0" fill="#525468"/><path d="m154.941406 109.445312c0-17.597656 11.921875-32.398437 28.125-36.792968-3.1875-.863282-6.539062-1.335938-10-1.335938-21.058594 0-38.125 17.070313-38.125 38.128906 0 21.054688 17.066406 38.125 38.125 38.125 3.460938 0 6.8125-.472656 10-1.335937-16.203125-4.394531-28.125-19.195313-28.125-36.789063zm0 0" fill="#3e4151"/><path d="m192.921875 378.65625c-14.972656-10.957031-35.992187-7.703125-46.953125 7.269531-10.957031 14.972657-7.703125 35.996094 7.269531 46.953125 14.976563 10.957032 35.996094 7.703125 46.953125-7.269531 10.960938-14.972656 7.703125-35.996094-7.269531-46.953125zm0 0" fill="#e4e3e1"/><path d="m192.921875 378.65625c-14.972656-10.957031-35.992187-7.703125-46.953125 7.269531-10.957031 14.972657-7.703125 35.996094 7.269531 46.953125 14.976563 10.957032 35.996094 7.703125 46.953125-7.269531 10.960938-14.972656 7.703125-35.996094-7.269531-46.953125zm0 0" fill="#e4e3e1"/><path d="m183.066406 373.71875c-13.332031-4.160156-28.398437.328125-37.109375 12.226562-19.152343 26.164063 6.394531 61.464844 37.109375 51.914063-31.320312-9.765625-31.339844-54.394531 0-64.140625zm0 0" fill="#d1d0cf"/><path d="m310.5625 7.707031h-275.378906c-8.484375 0-16.09375 3.800781-21.230469 9.785157l22.875 19.839843h272.089844l23.261719-19.386719c-5.136719-6.246093-12.917969-10.238281-21.617188-10.238281zm0 0" fill="#76ab29"/><path d="m14.0625 17.589844 13.984375 12.125c2.742187-12.566406 13.953125-22.007813 27.332031-22.007813h-20.003906c-8.527344 0-16.175781 3.84375-21.3125 9.882813zm0 0" fill="#6c9b1b"/><path d="m35.570312 504.707031h275.378907c8.484375 0 16.09375-3.800781 21.226562-9.785156l-22.875-19.839844h-272.085937l-23.261719 19.386719c5.136719 6.246094 12.917969 10.238281 21.617187 10.238281zm0 0" fill="#76ab29"/><path d="m28.054688 482.71875-14.101563 11.75c5.136719 6.246094 12.917969 10.238281 21.617187 10.238281h19.804688c-13.367188 0-24.570312-9.429687-27.320312-21.988281zm0 0" fill="#6c9b1b"/><path d="m197.441406 372.417969c-29.648437-21.703125-70.4375 3.578125-64.886718 39.449219 3.488281 22.511718 24.535156 37.78125 46.898437 34.324218 36.046875-5.582031 47.449219-52.207031 17.988281-73.773437zm-3.214844 48.574219c-13.683593 18.695312-43.304687 11.476562-46.847656-11.417969-3.5625-23.019531 22.554688-38.695313 41.199219-25.050781 11.613281 8.5 14.144531 24.859374 5.648437 36.46875zm0 0"/><path d="m164.765625 404.105469c-4.59375-.945313-8.960937 2.59375-8.960937 7.351562 0 4.144531 3.367187 7.5 7.5 7.5 4.15625 0 7.488281-3.378906 7.488281-7.5 0-3.648437-2.644531-6.714843-6.027344-7.351562zm0 0"/><path d="m183.953125 404.226562c-4.480469-.925781-8.96875 2.523438-8.96875 7.351563 0 4.035156 3.253906 7.5 7.5 7.5 3.6875 0 6.722656-2.691406 7.351563-6.03125.8125-3.957031-1.707032-7.953125-5.882813-8.820313zm0 0"/><path d="m181.746094 394.246094c0-8.039063-11.175782-10.542969-14.421875-2.871094-.785157 1.910156-.734375 4.003906 0 5.742188 1.257812 2.976562 4.023437 4.628906 6.921875 4.628906 4.132812 0 7.5-3.339844 7.5-7.5zm0 0"/><path d="m173.167969 356.007812c4.140625 0 7.5-3.359374 7.5-7.5v-178.34375c0-4.144531-3.359375-7.503906-7.5-7.503906-4.144531 0-7.5 3.359375-7.5 7.503906v178.34375c0 4.140626 3.355469 7.5 7.5 7.5zm0 0"/><path d="m127.542969 109.234375c0 17.117187 9.453125 32.648437 24.675781 40.53125 3.675781 1.902344 8.203125.464844 10.109375-3.214844 1.902344-3.675781.464844-8.203125-3.214844-10.109375-10.222656-5.292968-16.570312-15.71875-16.570312-27.207031 0-16.886719 13.738281-30.621094 30.625-30.621094s30.625 13.734375 30.625 30.621094c0 11.488281-6.351563 21.914063-16.574219 27.207031-3.679688 1.90625-5.113281 6.433594-3.210938 10.109375 1.898438 3.671875 6.417969 5.121094 10.109376 3.214844 15.21875-7.882813 24.675781-23.410156 24.675781-40.53125 0-25.15625-20.46875-45.625-45.625-45.625-25.160157 0-45.625 20.46875-45.625 45.625zm0 0"/><path d="m338.835938 246c4.140624 0 7.5-3.359375 7.5-7.5v-203.023438c0-19.5625-15.917969-35.476562-35.480469-35.476562h-275.570313c-20.234375 0-35.285156 16.644531-35.285156 35.476562v441.046876c0 19.222656 15.503906 35.476562 35.671875 35.476562h275.378906c19.113281 0 35.28125-15.277344 35.28125-35.476562v-203.023438c0-4.140625-3.355469-7.5-7.5-7.5-4.140625 0-7.5 3.359375-7.5 7.5v203.023438c0 2.277343-.386719 4.460937-1.078125 6.507812l-13.542968-11.746094v-430.8125l13.605468-11.335937c.652344 2 1.015625 4.125 1.015625 6.339843v203.023438c0 4.140625 3.359375 7.5 7.503907 7.5zm-323.835938 230.523438v-441.046876c0-2.277343.390625-4.460937 1.078125-6.507812l13.546875 11.746094v430.808594l-13.605469 11.339843c-.652343-2-1.019531-4.125-1.019531-6.339843zm305.609375 18c-2.898437 1.578124-6.222656 2.476562-9.753906 2.476562h-275.183594c-3.410156 0-6.921875-.875-10.027344-2.628906l14.390625-11.992188h266.570313zm-147.441406-438.367188c4.140625 0 7.5-3.359375 7.5-7.5v-4.03125h121.042969v422.75h-121.042969v-4.03125c0-4.140625-3.359375-7.5-7.5-7.5-4.144531 0-7.5 3.359375-7.5 7.5v4.03125h-121.042969v-422.75h121.042969v4.03125c0 4.140625 3.355469 7.5 7.5 7.5zm133.132812-26.535156h-266.570312l-14.007813-12.144532c2.902344-1.578124 6.226563-2.476562 9.757813-2.476562h275.183593c3.414063 0 6.921876.875 10.027344 2.628906zm0 0"/></svg>