<svg height="512pt" viewBox="-57 0 512 512" width="512pt" xmlns="http://www.w3.org/2000/svg"><path d="m199.238281 125.023438c7.628907 0 15.148438.460937 22.542969 1.328124v-36.710937h-45.082031v36.707031c7.394531-.863281 14.914062-1.324218 22.539062-1.324218zm0 0" fill="#3e4151"/><path d="m196.699219 89.640625h-20v36.707031c6.570312-.769531 13.246093-1.195312 20-1.285156zm0 0" fill="#353744"/><path d="m317.597656 162.875 16.429688-23.945312-16.578125-11.300782-16.265625 23.707032c5.675781 3.570312 11.15625 7.414062 16.414062 11.539062zm0 0" fill="#525468"/><path d="m97.296875 151.335938-16.269531-23.707032-16.574219 11.300782 16.429687 23.945312c5.253907-4.125 10.738282-7.96875 16.414063-11.539062zm0 0" fill="#525468"/><path d="m338.34375 142.554688-27.585938-18.808594c-4.578124-3.121094-5.757812-9.363282-2.636718-13.9375 3.121094-4.582032 9.363281-5.757813 13.9375-2.640625l27.585937 18.8125c4.578125 3.121093 5.761719 9.359375 2.640625 13.9375-3.121094 4.574219-9.359375 5.761719-13.941406 2.636719zm0 0" fill="#3e4151"/><path d="m60.132812 142.554688 27.589844-18.808594c4.574219-3.121094 5.757813-9.363282 2.636719-13.9375-3.121094-4.582032-9.363281-5.757813-13.941406-2.640625l-27.585938 18.8125c-4.578125 3.121093-5.757812 9.359375-2.636719 13.9375 3.117188 4.574219 9.355469 5.761719 13.9375 2.636719zm0 0" fill="#3e4151"/><path d="m391.082031 312.863281c0 105.953125-85.890625 191.84375-191.84375 191.84375-105.949219 0-191.839843-85.890625-191.839843-191.84375 0-105.949219 85.890624-191.839843 191.839843-191.839843 105.953125 0 191.84375 85.890624 191.84375 191.839843zm0 0" fill="#e4e3e1"/><path d="m27.398438 312.863281c0-102.59375 80.539062-186.378906 181.839843-191.582031-3.3125-.167969-6.644531-.257812-10-.257812-105.949219 0-191.839843 85.890624-191.839843 191.839843s85.890624 191.839844 191.839843 191.839844c3.355469 0 6.6875-.085937 10-.257813-101.300781-5.199218-181.839843-88.984374-181.839843-191.582031zm0 0" fill="#d1d0cf"/><path d="m343.714844 312.863281c0 79.792969-64.683594 144.476563-144.476563 144.476563-79.789062 0-144.472656-64.683594-144.472656-144.476563 0-79.789062 64.683594-144.472656 144.472656-144.472656 79.792969 0 144.476563 64.683594 144.476563 144.472656zm0 0" fill="#72bdf6"/><path d="m82.5 312.863281c0-75.109375 57.324219-136.828125 130.605469-143.804687-85.105469-8.109375-158.339844 58.679687-158.339844 143.804687 0 84.898438 73.007813 151.9375 158.339844 143.808594-73.28125-6.980469-130.605469-68.695313-130.605469-143.808594zm0 0" fill="#4b98d4"/><path d="m232.515625 59.703125h-66.550781c-4.183594 0-7.570313 3.390625-7.570313 7.570313v17.792968c0 4.183594 3.386719 7.574219 7.570313 7.574219h66.550781c4.179687 0 7.570313-3.390625 7.570313-7.574219v-17.792968c0-4.179688-3.390626-7.570313-7.570313-7.570313zm0 0" fill="#525468"/><path d="m178.394531 85.066406v-17.792968c0-4.179688 3.390625-7.570313 7.570313-7.570313h-20c-4.183594 0-7.570313 3.390625-7.570313 7.570313v17.792968c0 4.183594 3.386719 7.574219 7.570313 7.574219h20c-4.179688 0-7.570313-3.390625-7.570313-7.574219zm0 0" fill="#3e4151"/><path d="m218.914062 291.914062c-1.140624-1.078124-1.953124-2.449218-2.269531-3.984374l-15.527343-76.257813c-.261719-1.28125-2.089844-1.28125-2.351563 0l-15.566406 76.429687c-.285157 1.414063-1.023438 2.6875-2.078125 3.671876-5.511719 5.125-8.929688 12.46875-8.824219 20.613281.183594 14.316406 11.585937 26.335937 25.882813 27.222656 16.066406 1 29.410156-11.738281 29.410156-27.59375 0-7.921875-3.335938-15.0625-8.675782-20.101563zm0 0" fill="#f75757"/><path d="m201.125 291.769531c1.054688-.980469 1.789062-2.253906 2.078125-3.667969l6.738281-33.09375-8.824218-43.339843c-.261719-1.277344-2.089844-1.277344-2.351563 0l-15.566406 76.433593c-.285157 1.410157-1.023438 2.6875-2.078125 3.667969-5.511719 5.125-8.933594 12.46875-8.824219 20.613281.183594 14.320313 11.585937 26.339844 25.882813 27.226563 4.175781.257813 8.164062-.417969 11.785156-1.828125-18.957032-7.429688-23.8125-32.089844-8.839844-46.011719zm0 0" fill="#ea3f3f"/><path d="m199.945312 320.328125c-3.5625 0-6.617187-2.476563-7.359374-6.027344-.828126-4.050781 1.902343-8.078125 5.890624-8.824219 4.511719-.921874 8.960938 2.53125 8.960938 7.351563 0 4.128906-3.363281 7.5-7.492188 7.5zm0 0" fill="#d4352f"/><path d="m199.339844 160.683594c-83.691406 0-151.972656 68.089844-151.972656 151.976562 0 83.660156 68.054687 151.972656 151.972656 151.972656 83.671875 0 151.976562-68.0625 151.976562-151.972656 0-83.695312-68.089844-151.976562-151.976562-151.976562zm130.277344 159.476562h6.488281c-1.742188 32.125-14.605469 61.339844-34.800781 83.855469l-4.539063-4.542969c-2.929687-2.925781-7.679687-2.925781-10.609375.003906-2.929688 2.929688-2.929688 7.675782.003906 10.605469l4.539063 4.539063c-22.515625 20.195312-51.730469 33.058594-83.859375 34.800781v-6.488281c0-4.140625-3.355469-7.5-7.5-7.5-4.140625 0-7.5 3.359375-7.5 7.5v6.488281c-32.125-1.742187-61.339844-14.605469-83.855469-34.800781l4.539063-4.539063c2.929687-2.929687 2.929687-7.679687 0-10.605469-2.929688-2.929687-7.675782-2.929687-10.605469-.003906l-4.539063 4.542969c-20.195312-22.515625-33.0625-51.730469-34.804687-83.855469h6.488281c4.144531 0 7.503906-3.359375 7.503906-7.5 0-4.144531-3.359375-7.5-7.503906-7.5h-6.488281c1.742187-32.128906 14.609375-61.339844 34.800781-83.855468l4.542969 4.539062c2.929687 2.929688 7.675781 2.925781 10.605469 0 2.929687-2.929688 2.929687-7.679688 0-10.609375l-4.539063-4.539063c22.515625-20.195312 51.730469-33.058593 83.855469-34.800781v6.488281c0 4.140626 3.355468 7.5 7.5 7.5 4.144531 0 7.5-3.359374 7.5-7.5v-6.488281c32.128906 1.742188 61.339844 14.609375 83.855468 34.800781l-4.539062 4.539063c-2.929688 2.929687-2.929688 7.679687 0 10.609375s7.675781 2.925781 10.605469 0l4.542969-4.539062c20.191406 22.515624 33.058593 51.726562 34.800781 83.855468h-6.488281c-4.144532 0-7.5 3.355469-7.5 7.5 0 4.140625 3.359374 7.5 7.5 7.5zm0 0"/><path d="m224.164062 286.25c-.046874-.042969-.078124-.070312-.074218-.070312l-15.519532-76.214844c-.835937-4.097656-4.34375-6.960938-8.527343-6.960938-4.183594 0-7.6875 2.863282-8.523438 6.964844l-15.519531 76.210938c-7.1875 6.742187-11.230469 16.242187-11.101562 26.09375.398437 30.5625 37.089843 45.941406 59.214843 25.148437 7.039063-6.617187 11.078125-15.953125 11.078125-25.613281 0-9.628906-4.019531-18.941406-11.027344-25.558594zm-25.417968 45.667969c-10.433594-.648438-18.710938-9.363281-18.847656-19.839844-.074219-5.675781 2.269531-11.152344 6.433593-15.019531 2.226563-2.074219 3.71875-4.722656 4.320313-7.667969l9.390625-46.109375 9.355469 45.933594c.613281 3.019531 2.160156 5.769531 4.472656 7.945312 4.074218 3.851563 6.320312 9.050782 6.320312 14.648438 0 11.550781-9.671875 20.824218-21.445312 20.109375zm0 0"/><path d="m198.582031 305.269531c-3.308593.617188-6.042969 3.605469-6.042969 7.351563 0 4.128906 3.371094 7.5 7.503907 7.5 4.1875 0 7.5-3.414063 7.5-7.5 0-4.773438-4.382813-8.273438-8.960938-7.351563zm0 0"/><path d="m391.054688 302.628906c4.125-.375 7.167968-4.023437 6.796874-8.148437-4.628906-51.144531-28.964843-99.574219-70.066406-134.253907l8.320313-12.128906c8.011719 4.800782 18.285156 2.453125 23.480469-5.164062 5.441406-7.988282 3.375-18.914063-4.613282-24.359375l-27.585937-18.8125c-7.988281-5.445313-18.917969-3.375-24.359375 4.609375-5.324219 7.8125-3.449219 18.421875 4.105468 23.980468l-8.03125 11.703126c-21.46875-12.433594-45.085937-20.734376-69.71875-24.46875v-15.652344h3.234376c8.3125 0 15.074218-6.761719 15.074218-15.070313v-1.816406c11.136719-2.089844 19.589844-11.878906 19.589844-23.613281v-35.402344c0-13.25-10.777344-24.03125-24.03125-24.03125h-87.8125c-13.253906 0-24.035156 10.78125-24.035156 24.03125v35.402344c0 11.734375 8.457031 21.523437 19.59375 23.613281v1.8125c0 8.3125 6.761718 15.074219 15.070312 15.074219h3.234375v15.644531c-25.050781 3.804687-48.585937 12.289063-69.683593 24.527344l-8.0625-11.753907c7.550781-5.558593 9.425781-16.164062 4.101562-23.976562-5.445312-7.988281-16.371094-10.054688-24.359375-4.609375l-27.589844 18.808594c-8.003906 5.460937-10.066406 16.359375-4.605469 24.363281 5.183594 7.605469 15.453126 9.96875 23.476563 5.164062l8.371094 12.199219c-43.355469 36.597657-70.949219 91.3125-70.949219 152.359375 0 109.914063 89.425781 199.339844 199.339844 199.339844 50.074218 0 97.945312-18.640625 134.796875-52.492188 36.621093-33.640624 59.25-79.335937 63.710937-128.671874.375-4.125-2.667968-7.773438-6.792968-8.144532-4.136719-.375-7.773438 2.667969-8.148438 6.792969-8.636719 95.5-87.554688 167.515625-183.566406 167.515625-101.644532 0-184.339844-82.695312-184.339844-184.339844 0-109.925781 96.148438-195.941406 206.007812-183.066406.203126.023438.40625.027344.609376.03125 26.921874 3.1875 52.054687 12.101562 74.121093 25.542969 5.484375 3.449219 14.234375 9.550781 19.214844 13.460937 37.746094 30.238282 63.253906 75.242188 67.953125 127.203125.378906 4.128907 4.042969 7.160157 8.148438 6.796875zm-336.042969-167.476562c-1.140625.773437-2.757813.449218-3.519531-.667969-.78125-1.148437-.488282-2.726563.667968-3.515625l27.585938-18.808594c1.152344-.785156 2.730468-.488281 3.515625.664063.789062 1.152343.488281 2.730469-.664063 3.519531-22.308594 15.207031-3.988281 2.71875-27.585937 18.808594zm27.726562 15.816406-7.742187-11.285156 4.183594-2.851563 7.703124 11.226563c-1.398437.953125-2.78125 1.925781-4.144531 2.910156zm131.640625-37.082031c-9.601562-.71875-19.652344-.785157-30.078125-.003907v-13.949218h30.078125zm-48.3125-28.953125c-.039062 0-.070312-.03125-.070312-.070313l.070312-17.863281h16.476563c4.144531 0 7.5-3.359375 7.5-7.503906 0-4.140625-3.355469-7.5-7.5-7.5h-16.476563c-8.3125 0-15.070312 6.761718-15.070312 15.070312v.222656c-2.738282-1.554687-4.59375-4.488281-4.59375-7.855468v-35.402344c0-4.980469 4.054687-9.03125 9.03125-9.03125h87.816406c4.980469 0 9.03125 4.050781 9.03125 9.03125v35.402344c0 3.363281-1.855469 6.300781-4.59375 7.855468v-.222656c0-8.308594-6.761719-15.070312-15.070312-15.070312h-15.070313c-4.144531 0-7.503906 3.355468-7.503906 7.5 0 4.144531 3.359375 7.5 7.503906 7.5h15.070313c.039062 0 .070312.03125.070312.070312 0 .113282.039062 17.867188-.070312 17.867188-7.214844 0-59.316407 0-66.550782 0zm149.355469 27.890625c.785156-1.152344 2.359375-1.449219 3.515625-.664063l27.585938 18.808594c1.152343.785156 1.453124 2.363281.667968 3.515625-.796875 1.167969-2.367187 1.453125-3.519531.667969l-27.585937-18.808594c-1.152344-.785156-1.453126-2.367188-.664063-3.519531zm.523437 38.140625c-1.367187-.988282-2.75-1.953125-4.140624-2.90625l7.699218-11.226563 4.183594 2.851563zm0 0"/></svg>