<svg height="512pt" viewBox="0 -107 512 512" width="512pt" xmlns="http://www.w3.org/2000/svg"><path d="m211.863281 33.039062c-.132812 0-.261719-.003906-.394531-.003906-104.589844 0-191.757812 77.488282-191.757812 175.410156v53.957032h104.707031v-53.957032c0-96.753906 39.132812-175.207031 87.445312-175.40625zm0 0" fill="#e4e3e1"/><path d="m195.59375 36.140625c5.273438-2.003906 10.710938-3.078125 16.269531-3.101563-.132812 0-.261719-.003906-.394531-.003906-104.589844 0-191.757812 77.488282-191.757812 175.410156v53.957032h20.003906c0-10.390625 0-42.648438 0-53.957032 0-86.464843 67.96875-156.984374 155.878906-172.304687zm0 0" fill="#d1d0cf"/><path d="m212.53125 33.050781c48.171875.523438 87.140625 78.84375 87.140625 175.394531v53.957032h103.550781c0-10.316406 0-43.019532 0-53.957032.003906-95.863281-84.601562-174.871093-190.691406-175.394531zm0 0" fill="#4b98d4"/><path d="m259.457031 38.582031c-14.992187-3.527343-30.707031-5.453125-46.925781-5.53125 48.171875.523438 87.140625 78.84375 87.140625 175.394531v53.957032h25.5v-53.957032c.003906-81.730468-27.921875-150.390624-65.714844-169.863281zm0 0" fill="#2472b2"/><path d="m343.335938 192.5v14.886719c0 5.261719 4.308593 9.566406 9.570312 9.566406h50.316406c0-10.136719.261719-19.679687-2.023437-34.019531h-48.292969c-5.261719 0-9.570312 4.304687-9.570312 9.566406zm0 0" fill="#e4e3e1"/><path d="m352.90625 196.953125c-4.375 0-8.082031-2.980469-9.207031-7.011719-.230469.816406-.363281 1.671875-.363281 2.558594v14.886719c0 5.261719 4.308593 9.566406 9.570312 9.566406h50.316406c0-8.964844.085938-12.964844-.417968-20zm0 0" fill="#d1d0cf"/><path d="m211.46875 33.035156c5.371094 0 10.6875.214844 15.945312.609375v-9.992187c0-8.808594-7.136718-15.949219-15.945312-15.949219s-15.945312 7.140625-15.945312 15.949219v9.992187c5.257812-.394531 10.574218-.609375 15.945312-.609375zm0 0" fill="#525468"/><path d="m215.523438 23.652344c0-5.019532 2.324218-9.488282 5.945312-12.414063-2.734375-2.207031-6.210938-3.53125-10-3.53125-8.808594 0-15.945312 7.136719-15.945312 15.945313v9.996094c5.257812-.398438 10.574218-.613282 15.945312-.613282 1.355469 0 2.707031.015625 4.054688.042969zm0 0" fill="#3e4151"/><g fill="#525468"><path d="m19.710938 233.960938h44.296874v28.441406h-44.296874zm0 0"/><path d="m64.007812 199.941406v-16.007812c0-6.601563-5.398437-12-12-12h-28.117187c-2.105469 9.097656-3.453125 18.453125-3.949219 28.011718h44.066406zm0 0"/><path d="m19.710938 233.960938h44.296874v28.441406h-44.296874zm0 0"/></g><path d="m19.710938 233.960938v28.441406h20.003906c0-5.488282 0-17.066406 0-28.441406zm0 0" fill="#3e4151"/><path d="m19.941406 199.941406h19.996094c.496094-9.570312 1.835938-18.925781 3.933594-28.007812h-19.980469c-2.085937 9.011718-3.449219 18.417968-3.949219 28.007812zm0 0" fill="#3e4151"/><path d="m86.332031 199.941406h-71.757812c-3.945313 0-7.175781 3.230469-7.175781 7.179688v19.664062c0 3.949219 3.230468 7.179688 7.175781 7.179688h71.761719c3.945312 0 7.171874-3.230469 7.171874-7.179688v-19.664062c0-3.949219-3.226562-7.179688-7.175781-7.179688zm0 0" fill="#f75757"/><path d="m86.335938 213.960938h-71.761719c-3.890625 0-7.078125-3.140626-7.167969-7.007813 0 .054687-.007812.109375-.007812.167969v19.664062c0 3.949219 3.230468 7.175782 7.175781 7.175782h71.761719c3.945312 0 7.171874-3.226563 7.171874-7.175782v-19.664062c0-.058594-.003906-.113282-.007812-.167969-.089844 3.867187-3.277344 7.007813-7.164062 7.007813zm0 0" fill="#d4352f"/><path d="m86.332031 199.941406h-22.324219v34.019532h22.328126c3.945312 0 7.171874-3.226563 7.171874-7.175782v-19.667968c0-3.945313-3.226562-7.175782-7.175781-7.175782zm0 0" fill="#ea3f3f"/><path d="m93.5 206.953125c-.089844 3.867187-3.277344 7.007813-7.164062 7.007813h-22.328126v20h22.328126c3.945312 0 7.171874-3.226563 7.171874-7.175782v-19.664062c0-.058594-.003906-.113282-.007812-.167969zm0 0" fill="#d4352f"/><path d="m211.46875 33.035156c-51.519531 0-93.285156 78.535156-93.285156 175.410156v53.957032h186.574218v-53.957032c-.003906-96.875-41.769531-175.410156-93.289062-175.410156zm0 0" fill="#72bdf6"/><path d="m221.46875 34.042969c-3.285156-.660157-6.621094-1.007813-10-1.007813-51.519531 0-93.285156 78.535156-93.285156 175.410156v53.957032h20v-53.957032c0-90.523437 36.46875-165.019531 83.285156-174.402343zm0 0" fill="#4b98d4"/><path d="m494.828125 261.402344h-475.117187v19.25c0 5.261718 4.304687 9.566406 9.570312 9.566406h465.546875c5.265625 0 9.570313-4.304688 9.570313-9.566406v-9.683594c0-5.261719-4.304688-9.566406-9.570313-9.566406zm0 0" fill="#e4e3e1"/><path d="m39.714844 280.652344v-19.25h-20.003906v19.25c0 5.261718 4.304687 9.566406 9.570312 9.566406h20c-5.261719.003906-9.566406-4.300781-9.566406-9.566406zm0 0" fill="#d1d0cf"/><path d="m494.929688 254.695312h-84.101563v-37.949218c0-10.136719.234375-19.070313-1.769531-32.84375-11.835938-81.339844-82.789063-147.433594-174.042969-157.300782v-3.15625c0-12.925781-10.515625-23.445312-23.445313-23.445312-12.929687 0-23.445312 10.519531-23.445312 23.445312v3.140626c-91.460938 9.835937-166.695312 77.472656-175.054688 165.742187-7.339843.800781-13.070312 7.035156-13.070312 14.585937v19.664063c0 7.289063 5.34375 13.335937 12.3125 14.46875v39.398437c0 9.414063 7.65625 17.070313 17.070312 17.070313h164.6875c4.140626 0 7.5-3.359375 7.5-7.5 0-4.144531-3.359374-7.5-7.5-7.5h-164.6875c-1.121093 0-2.066406-.949219-2.066406-2.070313v-10.75h467.617188c1.121094 0 2.066406.945313 2.066406 2.066407v8.683593c0 1.121094-.945312 2.070313-2.066406 2.070313h-265.863282c-4.140624 0-7.5 3.355469-7.5 7.5 0 4.140625 3.359376 7.5 7.5 7.5h265.863282c9.410156 0 17.066406-7.65625 17.066406-17.070313v-8.683593c0-9.410157-7.65625-17.066407-17.070312-17.066407zm-291.804688-231.25c0-4.65625 3.789062-8.445312 8.445312-8.445312s8.445313 3.789062 8.445313 8.445312v2.050782c-5.636719-.21875-11.664063-.203125-16.890625 0zm-146.515625 231.25h-29.292969v-13.441406h29.292969zm0-28.441406c-24.054687 0-27.535156 0-41.609375 0v-19.015625h41.609375zm0-34.019531h-28.457031c.453125-4.347656 1.097656-8.695313 1.921875-13.007813h22.035156c2.4375 0 4.5 2.058594 4.5 4.5zm54.171875 16.003906v46.457031h-39.171875v-13.441406h14.824219c8.097656 0 14.679687-6.585937 14.679687-14.675781v-19.667969c0-8.085937-6.582031-14.675781-14.679687-14.675781h-14.824219v-8.507813c0-10.753906-8.746094-19.503906-19.5-19.503906h-18.421875c17.167969-58.085937 67.457031-103.304687 131.03125-118.433594-26.25 24.734376-53.9375 80.339844-53.9375 162.449219zm-39.171875 18.015625v-19.015625h14.5v19.015625zm324.21875 28.441406h-83.46875v-37.457031c0-4.144531-3.359375-7.5-7.5-7.5-4.144531 0-7.503906 3.355469-7.503906 7.5v37.457031h-171.570313v-46.457031c0-91.558593 38.855469-167.90625 85.785156-167.90625 41.917969 0 78.367188 61.257813 84.789063 142.492188.324219 4.132812 3.9375 7.203125 8.066406 6.886719 4.128907-.324219 7.210938-3.9375 6.886719-8.066407-4.765625-60.300781-24.953125-109.582031-52.855469-135.796875 67.5 16.195313 119.972657 66.5 133.785157 129.378906h-39.234376c-9.414062 0-17.070312 7.65625-17.070312 17.066407v14.886719c0 9.410156 7.65625 17.066406 17.070312 17.066406h42.816407v30.449218zm0-45.449218h-42.820313c-1.121093 0-2.066406-.945313-2.066406-2.066406v-14.886719c0-1.121094.945313-2.066407 2.066406-2.066407h41.757813c.839844 7.421876 1.0625 12.761719 1.0625 19.019532zm0 0"/></svg>