<svg height="511pt" viewBox="-63 0 511 511.99997" width="511pt" xmlns="http://www.w3.org/2000/svg"><path d="m193.679688 55.503906 60.742187 45.1875 16.207031-13.6875-61.667968-45.875c-6.761719-5.027344-9.410157-13.515625-7.359376-21.1875-4.644531.949219-8.972656 3.523438-12.023437 7.625-6.585937 8.847656-4.746094 21.355469 4.101563 27.9375zm0 0" fill="#f3a334"/><path d="m213.679688 55.503906c-5.667969-4.214844-8.441407-10.867187-7.984376-17.429687-4.296874-5.027344-5.773437-11.851563-4.09375-18.132813-4.644531.949219-8.972656 3.523438-12.023437 7.625-6.585937 8.847656-4.746094 21.355469 4.101563 27.9375l60.742187 45.1875 9.367187-7.910156zm0 0" fill="#e87e04"/><path d="m375.113281 476.808594-82.222656-156.683594c-.929687-1.773438-3.484375-1.730469-4.351563.074219l-16.253906 33.734375c-1.40625 2.914062-1.347656 6.316406.15625 9.179687l68.949219 131.394531c4.882813 9.308594 16.390625 12.898438 25.707031 8.011719s12.902344-16.398437 8.015625-25.710937zm0 0" fill="#ffc964"/><path d="m292.441406 363.113281c-1.5-2.863281-1.558594-6.265625-.15625-9.179687l8.785156-18.226563-8.179687-15.582031c-.929687-1.773438-3.484375-1.730469-4.351563.074219l-16.253906 33.734375c-1.402344 2.914062-1.34375 6.316406.15625 9.179687l68.949219 131.390625c5.039063 9.609375 17.261719 13.25 26.847656 7.34375-6.171875-3.8125-.976562 3.847656-75.796875-138.734375zm0 0" fill="#f3a334"/><path d="m308.332031 69.28125-77.722656-57.820312c-8.4375-6.277344-20.367187-4.523438-26.644531 3.914062-6.273438 8.4375-4.523438 20.367188 3.914062 26.644531l55.183594 41.050781c1.851562 1.378907 1.9375 4.121094.175781 5.609376l-76.277343 64.425781c-6.546876 5.53125-8.59375 14.753906-4.996094 22.535156l54.308594 117.519531-45.253907 93.921875-81.699219 85.414063c-7.269531 7.597656-7.003906 19.652344.597657 26.921875 7.601562 7.269531 19.65625 7 26.921875-.597657l83.789062-87.597656c1.378906-1.441406 2.523438-3.09375 3.390625-4.894531l50.464844-104.734375c2.46875-5.125 2.515625-11.085938.128906-16.253906l-51.992187-112.507813 86.984375-73.46875c8.964843-7.570312 9.472656-22.089843-1.273438-30.082031zm0 0" fill="#ffc964"/><path d="m129.320312 472.496094 81.703126-85.414063 45.25-93.917969-54.308594-117.523437c-3.59375-7.78125-1.550782-17.003906 5-22.535156l76.273437-64.425781c1.761719-1.488282 1.675781-4.230469-.171875-5.605469l-55.1875-41.054688c-8.4375-6.277343-10.1875-18.207031-3.910156-26.644531 1.480469-1.992188 3.285156-3.597656 5.277344-4.824219-8.320313-5.148437-19.332032-3.167969-25.28125 4.824219-6.273438 8.4375-4.523438 20.367188 3.914062 26.644531l55.183594 41.054688c1.851562 1.375 1.9375 4.117187.175781 5.605469l-76.277343 64.425781c-6.546876 5.53125-8.59375 14.753906-4.996094 22.535156l54.308594 117.523437-45.253907 93.917969-81.699219 85.414063c-7.269531 7.597656-7.003906 19.652344.597657 26.921875 6.28125 6.007812 15.761719 6.992187 23.148437 2.429687-10.394531-6.441406-12.039062-20.683594-3.746094-29.351562zm0 0" fill="#f3a334"/><path d="m186.828125 99.570312c0 15.347657-12.4375 27.789063-27.785156 27.789063-15.347657 0-27.789063-12.441406-27.789063-27.789063 0-15.347656 12.441406-27.785156 27.789063-27.785156 15.347656 0 27.785156 12.4375 27.785156 27.785156zm0 0" fill="#ffc964"/><path d="m169.042969 73.644531c-3.105469-1.195312-6.472657-1.859375-10-1.859375-15.347657 0-27.789063 12.441406-27.789063 27.785156 0 15.347657 12.441406 27.789063 27.789063 27.789063 3.527343 0 6.894531-.664063 10-1.863281-23.640625-9.125-23.675781-42.710938 0-51.851563zm0 0" fill="#f3a334"/><path d="m38.875 199.753906c1.917969 6.136719-1.894531 12.515625-8.871094 14.839844-7.949218 2.648438-16.867187-1.070312-19.230468-8.019531l-5.925782-17.417969c-2.453125-7.214844 1.097656-14.921875 8.667969-18.828125l21.867187-11.277344c-4.570312 18.058594-4.378906 15.515625 3.492188 40.703125zm0 0" fill="#e4e3e1"/><path d="m30.773438 211.65625-5.925782-17.421875c-2.335937-6.871094.785156-14.1875 7.636719-18.242187-.277344-5.578126.773437-8.554688 2.898437-16.941407l-21.867187 11.277344c-7.574219 3.90625-11.125 11.617187-8.667969 18.828125l5.925782 17.417969c2.363281 6.949219 11.28125 10.667969 19.226562 8.019531.636719-.210938 1.234375-.46875 1.8125-.742188-.414062-.691406-.773438-1.417968-1.039062-2.195312zm0 0" fill="#d1d0cf"/><path d="m354.394531 420.785156c-1.925781-3.667968-6.460937-5.082031-10.125-3.15625-3.667969 1.925782-5.082031 6.460938-3.15625 10.128906l27.460938 52.332032c2.964843 5.648437.792969 12.617187-4.855469 15.582031-5.679688 2.976563-12.632812.769531-15.585938-4.859375l-68.949218-131.390625c-.394532-.757813-.410156-1.667969-.039063-2.4375l11.886719-24.667969 33.757812 64.332032c1.925782 3.667968 6.460938 5.074218 10.128907 3.15625 3.664062-1.925782 5.078125-6.460938 3.15625-10.128907l-38.4375-73.246093c-1.757813-3.34375-5.195313-5.390626-8.972657-5.316407-3.777343.066407-7.140624 2.222657-8.78125 5.621094l-16.253906 33.734375c-2.421875 5.027344-2.320312 10.980469.273438 15.921875l68.949218 131.394531c6.847657 13.046875 22.898438 17.953125 35.835938 11.171875 12.992188-6.820312 17.988281-22.847656 11.171875-35.839843zm0 0"/><path d="m281.523438 281.988281-49.59375-107.316406 78.382812-66.207031c3.164062-2.671875 3.5625-7.402344.890625-10.570313-2.671875-3.160156-7.40625-3.5625-10.570313-.890625l-82.746093 69.894532c-2.582031 2.179687-3.386719 5.8125-1.96875 8.878906l51.988281 112.507812c1.453125 3.140625 1.425781 6.730469-.078125 9.851563l-50.460937 104.730469c-.527344 1.09375-1.21875 2.09375-2.058594 2.96875l-83.785156 87.59375c-4.492188 4.699218-11.796876 4.6875-16.320313.363281-4.609375-4.410157-4.769531-11.707031-.359375-16.316407l81.699219-85.414062c.542969-.570312.996093-1.222656 1.335937-1.929688l45.253906-93.917968c.972657-2.023438.992188-4.367188.050782-6.402344l-54.308594-117.523438c-2.171875-4.699218-.925781-10.316406 3.03125-13.660156 0 0 79.597656-67.234375 79.722656-67.335937 3.6875-3.117188 3.511719-8.867188-.363281-11.75-68.070313-50.636719-40.621094-30.21875-58.808594-43.746094-5.1875-3.859375-6.101562-11.136719-2.371093-16.148437 3.800781-5.109376 11.042968-6.171876 16.148437-2.371094l75.921875 56.476562c3.324219 2.472656 8.023438 1.78125 10.496094-1.542968 2.472656-3.320313 1.78125-8.019532-1.542969-10.492188l-75.921875-56.480469c-11.742188-8.738281-28.402344-6.289062-37.136719 5.453125-1.136719 1.523438-2.085937 3.144532-2.859375 4.832032-4.644531 1.792968-8.714844 4.84375-11.714844 8.875-7.355468 9.886718-6.78125 23.257812.589844 32.453124l-14.363281 8.839844c-3.335937-1.050781-6.882813-1.617187-10.558594-1.617187-17.5 0-32.054687 12.808593-34.8125 29.539062-111.816406 68.949219-85.261719 52.628907-111.964843 68.898438-9.5 5.789062-13.984376 17.292969-10.90625 27.980469l5.195312 18.042968c3.304688 11.46875 15.773438 17.554688 26.8125 13.207032 9.65625-3.800782 14.9375-14.234376 12.285156-24.265626l-4.421875-16.714843c-1.179687-4.457031-1.292969-9.191407-.328125-13.699219l1.097656-5.121094 83.542969-51.515625c4.652344 14.054688 17.910157 24.226563 33.503907 24.226563 19.457031 0 35.285156-15.832032 35.285156-35.289063 0-9.71875-3.949219-18.53125-10.328125-24.921875l12.136719-7.46875 43.027343 32.011719-57.042969 48.183594c-9.101562 7.683593-11.964843 20.601562-6.96875 31.410156l52.824219 114.308594-43.199219 89.660156-80.882812 84.554687c-10.140625 10.601563-9.765625 27.386719.835938 37.527344 10.410156 9.957032 27.203124 9.957032 37.527343-.832031l83.789063-87.597656c1.929687-2.019531 3.519531-4.3125 4.730468-6.824219l50.460938-104.734375c3.453125-7.167969 3.519531-15.425781.179688-22.652344zm-253.550782-74.203125c-2.851562 1.121094-6.050781-.453125-6.902344-3.402344l-5.191406-18.039062c-1.214844-4.210938.550782-8.742188 4.292969-11.019531l5.199219-3.167969c-.101563 4.1875.386718 8.390625 1.457031 12.441406l4.421875 16.714844c.707031 2.675781-.699219 5.457031-3.277344 6.472656zm131.171875-88.132812c-11.1875 0-20.285156-9.101563-20.285156-20.289063 0-11.183593 9.097656-20.285156 20.285156-20.285156s20.285157 9.101563 20.285157 20.285156c0 11.1875-9.097657 20.289063-20.285157 20.289063zm37.933594-70.804688c-3.8125-3.40625-4.886719-8.910156-2.777344-13.457031 1.417969 4.015625 3.929688 7.824219 7.160157 10.757813zm12.917969 9.664063 4.304687-2.648438 40.421875 30.070313-3.6875 3.113281zm0 0"/></svg>