<svg height="511pt" viewBox="-98 0 511 511.99983" width="511pt" xmlns="http://www.w3.org/2000/svg"><path d="m87.984375 349.996094-71.871094-85.097656 49.46875 88.222656-47.882812 125.257812c-3.824219 10.003906 1.1875 21.214844 11.191406 25.042969 1.210937.460937 2.441406.796875 3.675781 1.007813 8.9375 1.527343 18.003906-3.410157 21.367188-12.199219l5.90625-15.453125zm0 0" fill="#f3a334"/><path d="m37.699219 478.378906 47.882812-125.257812-9.953125-17.753906-59.515625-70.46875 49.46875 88.222656-47.882812 125.257812c-3.824219 10.007813 1.1875 21.21875 11.191406 25.042969 1.210937.464844 2.441406.796875 3.675781 1.007813 4.660156.796874 9.347656-.175782 13.25-2.523438-7.90625-4.753906-11.523437-14.609375-8.117187-23.527344zm0 0" fill="#e87e04"/><path d="m244.222656 451.195312c7-.03125 12.910156 5.945313 13.75 13.910157.957032 9.070312-5.109375 17.410156-13.078125 17.644531h-19.988281c-8.277344.246094-15.671875-5.589844-18.058594-14.671875l-5.796875-26.226563c16.054688 10.703126 16.363281 9.460938 43.171875 9.34375zm0 0" fill="#e4e3e1"/><path d="m224.304688 468.078125-3.796876-17.179687c-8.875-1.304688-14.582031-5.796876-19.457031-9.046876l5.796875 26.226563c2.390625 9.082031 9.785156 14.917969 18.058594 14.671875h17.457031c-8.273437.246094-15.667969-5.589844-18.058593-14.671875zm0 0" fill="#d1d0cf"/><path d="m308.753906 465.53125c0 9.390625-7.613281 17.003906-17.003906 17.003906s-17.003906-7.613281-17.003906-17.003906 7.613281-17.003906 17.003906-17.003906 17.003906 7.613281 17.003906 17.003906zm0 0" fill="#e4e3e1"/><path d="m301.75 451.796875c-2.808594-2.046875-6.257812-3.269531-10-3.269531-9.390625 0-17.003906 7.613281-17.003906 17.003906s7.613281 17.003906 17.003906 17.003906c3.742188 0 7.191406-1.222656 10-3.273437-9.339844-6.8125-9.332031-20.652344 0-27.464844zm0 0" fill="#d1d0cf"/><path d="m77.253906 504.703125c-1.238281 0-2.492187-.117187-3.75-.367187-10.390625-2.0625-17.144531-12.15625-15.082031-22.546876l25.796875-130.074218-72.066406-89.046875c-4.234375-5.234375-5.414063-12.304688-3.109375-18.632813l57.054687-156.613281c2.988282-8.203125 11.148438-13.347656 19.828125-12.53125 8.6875.824219 15.726563 7.410156 17.125 16.027344l11.027344 67.980469 51.117187 65.984374c6.484376 8.375 4.957032 20.421876-3.417968 26.910157s-20.421875 4.957031-26.90625-3.417969l-54.109375-69.84375c-1.960938-2.535156-3.257813-5.515625-3.769531-8.675781l-.03125-.191407-28.164063 77.308594 70.890625 87.597656c3.582031 4.425782 5.011719 10.210938 3.90625 15.796876l-27.546875 138.886718c-1.8125 9.128906-9.828125 15.449219-18.792969 15.449219zm0 0" fill="#ffc964"/><path d="m144.523438 35.695312c0 15.457032-12.53125 27.988282-27.988282 27.988282-15.457031 0-27.988281-12.53125-27.988281-27.988282 0-15.457031 12.53125-27.988281 27.988281-27.988281 15.457032 0 27.988282 12.53125 27.988282 27.988281zm0 0" fill="#ffc964"/><g fill="#f3a334"><path d="m126.535156 9.554688c-3.105468-1.1875-6.476562-1.847657-10-1.847657-15.457031 0-27.988281 12.53125-27.988281 27.988281 0 15.457032 12.53125 27.988282 27.988281 27.988282 3.523438 0 6.894532-.660156 10-1.847656-23.917968-9.15625-23.933594-43.117188 0-52.28125zm0 0"/><path d="m104.21875 351.714844-72.066406-89.046875c-4.234375-5.234375-5.414063-12.304688-3.109375-18.628907l57.054687-156.617187c1.527344-4.191406 4.410156-7.578125 8.019532-9.785156-2.433594-1.488281-5.210938-2.460938-8.191407-2.746094-8.679687-.816406-16.839843 4.328125-19.828125 12.53125l-57.054687 156.617187c-2.304688 6.324219-1.125 13.394532 3.109375 18.628907l72.066406 89.046875-25.796875 130.074218c-2.0625 10.390626 4.691406 20.484376 15.082031 22.546876 1.257813.25 2.511719.367187 3.75.367187 3.59375 0 7.03125-1.03125 9.980469-2.835937-6.65625-4.074219-10.417969-11.976563-8.8125-20.078126zm0 0"/><path d="m100.761719 178.53125c-1.960938-2.535156-3.253907-5.515625-3.765625-8.675781l-.03125-.191407-4.273438-25.414062c-.570312-3.371094-5.242187-3.789062-6.398437-.574219l-9.332031 25.988281.03125.191407c.507812 3.15625 1.800781 6.132812 3.757812 8.660156l13.859375 17.890625 40.257813 51.972656c6.050781 7.808594 16.941406 9.660156 25.175781 4.605469-4.199219-2.5625-.449219 1.492187-59.28125-74.453125zm0 0"/></g><path d="m244.226562 448.53125c-.027343 0-.054687 0-.078124 0l-17.414063.066406c-4.625.046875-9.304687-1.074218-13.457031-3.164062h-.003906l-4.550782-2.285156-47.085937-182.65625c15.359375-7.34375 20-26.964844 9.585937-40.40625l-15.839844-20.445313c-2.535156-3.277344-7.246093-3.875-10.519531-1.335937-3.273437 2.535156-3.875 7.246093-1.335937 10.519531l15.835937 20.445312c3.945313 5.09375 3.011719 12.441407-2.078125 16.386719-5.089844 3.941406-12.441406 3.011719-16.386718-2.082031l-54.105469-69.84375c-1.191407-1.539063-1.984375-3.367188-2.292969-5.257813l-.027344-.1875c-.535156-3.378906-3.285156-5.96875-6.691406-6.296875-3.402344-.324219-6.59375 1.6875-7.765625 4.898438l-28.167969 77.308593c-.898437 2.476563-.4375 5.242188 1.21875 7.285157l63.527344 78.5c2.609375 3.222656 7.335938 3.714843 10.546875 1.109375 3.222656-2.601563 3.71875-7.328125 1.113281-10.546875l-60.859375-75.199219 21.082031-57.855469 50.5625 65.273438c4.5 5.8125 10.945313 9.25 17.71875 10.113281 57.171876 221.773438 44.660157 175.285156 54.886719 209.253906 3.164063 10.5 12.898438 17.699219 23.816407 17.699219.210937 0 .425781-.003906.636718-.007813l18.902344-.488281c11.953125-.304687 21.0625-10.855469 19.625-22.722656-1.246094-10.320313-10.007812-18.078125-20.398438-18.078125zm.390626 25.808594-18.902344.484375c-4.417969.09375-8.421875-2.769531-9.703125-7.019531l-1.796875-5.964844c4.027344 1.160156 8.214844 1.757812 12.402344 1.757812h.175781l17.410156-.066406h.023437c2.804688 0 5.171876 2.09375 5.511719 4.882812.371094 3.097657-1.996093 5.84375-5.121093 5.925782zm0 0"/><path d="m291.851562 440.816406c-13.511718 0-24.503906 10.996094-24.503906 24.507813s10.992188 24.503906 24.503906 24.503906c13.511719 0 24.507813-10.992187 24.507813-24.503906s-10.996094-24.507813-24.507813-24.507813zm0 34.011719c-5.238281 0-9.503906-4.261719-9.503906-9.503906 0-5.242188 4.265625-9.503907 9.503906-9.503907 5.242188 0 9.503907 4.261719 9.503907 9.503907 0 5.242187-4.261719 9.503906-9.503907 9.503906zm0 0"/><path d="m116.636719 70.976562c19.566406 0 35.488281-15.921874 35.488281-35.488281 0-19.570312-15.921875-35.488281-35.488281-35.488281-19.570313 0-35.488281 15.917969-35.488281 35.488281 0 19.566407 15.917968 35.488281 35.488281 35.488281zm0-55.976562c11.296875 0 20.484375 9.191406 20.484375 20.488281s-9.1875 20.484375-20.484375 20.484375-20.488281-9.1875-20.488281-20.484375 9.191406-20.488281 20.488281-20.488281zm0 0"/><path d="m123.148438 352.90625c-4.074219-.808594-8.011719 1.835938-8.816407 5.898438l-25.539062 128.78125c-1.234375 6.222656-7.304688 10.457031-13.730469 9.183593-3.058594-.605469-5.699219-2.367187-7.433594-4.960937-3.097656-4.628906-1.808594-8.480469-.820312-13.46875l24.867187-125.371094c.433594-2.1875-.125-4.449219-1.527343-6.179688-2.167969-2.679687-51.019532-63.042968-72.066407-89.046874-2.5625-3.167969-3.289062-7.515626-1.894531-11.34375l57.058594-156.617188c4.105468-11.277344 20.585937-9.6875 22.503906 2.128906l11.023438 67.980469c.199218 1.238281.707031 2.402344 1.472656 3.394531l13.839844 17.863282c2.535156 3.277343 7.25 3.875 10.523437 1.339843 3.273437-2.539062 3.875-7.25 1.335937-10.523437l-12.671874-16.359375-10.71875-66.097657c-4.382813-27.015624-42.027344-30.601562-51.402344-4.859374l-57.054688 156.613281c-3.1875 8.75-1.53125 18.679687 4.328125 25.917969l3.554688 4.398437 46.890625 83.625-46.09375 120.582031c-5.253906 13.742188 1.652344 29.195313 15.398437 34.449219 10.949219 4.183594 23.148438.703125 30.339844-8.246094 3.921875 4.914063 9.390625 8.257813 15.628906 9.496094 14.59375 2.894531 28.53125-6.714844 31.359375-20.980469l25.542969-128.78125c.804687-4.0625-1.835937-8.007812-5.898437-8.816406zm-70.925782 121.894531-5.613281 14.683594c-2.25 5.878906-8.898437 9.089844-15.082031 6.738281-6.015625-2.300781-9.039063-9.066406-6.738282-15.082031l47.351563-123.863281c.796875-2.082032.625-4.40625-.464844-6.347656l-5.699219-10.164063 10.304688 12.730469zm0 0"/></svg>