<svg height="512pt" viewBox="0 -62 512 512" width="512pt" xmlns="http://www.w3.org/2000/svg"><path d="m195.585938 24.316406c-25.25-25.246094-66.183594-25.246094-91.433594 0-25.25 25.25-25.25 66.1875 0 91.4375 25.25 25.246094 66.183594 25.246094 91.433594 0 25.25-25.25 25.25-66.1875 0-91.4375zm0 0" fill="#e4e3e1"/><path d="m124.15625 115.753906c-37.476562-37.476562-16.191406-101.503906 35.714844-109.585937-19.699219-3.070313-40.539063 2.972656-55.71875 18.148437-25.25 25.25-25.25 66.1875 0 91.4375 15.179687 15.175782 36.019531 21.21875 55.71875 18.148438-13.074219-2.035156-25.644532-8.078125-35.714844-18.148438zm0 0" fill="#d1d0cf"/><path d="m491.0625 192.359375c-28.785156 23.535156-103.007812 64.808594-211.300781-12.707031-127.78125-91.460938-247.132813-17.546875-268.851563-2.523438-2.207031 1.523438-3.511718 4.03125-3.511718 6.710938v188.3125c0 4.511718 3.660156 8.171875 8.171874 8.171875h480.65625c4.511719 0 8.171876-3.660157 8.171876-8.171875v-173.457032c0-6.890624-8-10.695312-13.335938-6.335937zm0 0" fill="#9ad14b"/><path d="m27.398438 372.152344v-188.3125c0-2.679688 1.308593-5.1875 3.511718-6.710938 13.039063-9.019531 61.265625-39.261718 125.382813-42.207031-73.957031-3.414063-131.019531 32.273437-145.382813 42.207031-2.207031 1.523438-3.511718 4.03125-3.511718 6.710938v188.3125c0 4.511718 3.660156 8.171875 8.171874 8.171875h20c-4.511718 0-8.171874-3.660157-8.171874-8.171875zm0 0" fill="#76ab29"/><path d="m471.949219 326.792969v-121.246094c-30.183594 17.4375-80.574219 32.054687-147.566407.597656h-.300781v120.648438c0 15 9.402344 20.972656 20.890625 20.972656h106.089844c11.484375 0 20.886719-5.972656 20.886719-20.972656zm0 0" fill="#525468"/><path d="m344.082031 326.792969v-112.519531c-6.394531-2.277344-12.960937-4.964844-19.699219-8.128907h-.300781v120.648438c0 15 9.398438 20.972656 20.886719 20.972656h20.003906c-11.488281 0-20.890625-5.972656-20.890625-20.972656zm0 0" fill="#3e4151"/><path d="m139.703125 91.394531c-4.53125-.929687-8.960937 2.539063-8.960937 7.351563 0 4.082031 3.3125 7.5 7.5 7.5 4.167968 0 7.488281-3.382813 7.488281-7.5.003906-3.585938-2.578125-6.707032-6.027344-7.351563zm0 0"/><path d="m159.042969 69.351562c-4.601563-.945312-8.972657 2.625-8.972657 7.351563 0 4.058594 3.324219 7.5 7.511719 7.5 4.164063 0 7.5-3.410156 7.5-7.5 0-3.457031-2.476562-6.675781-6.039062-7.351563zm0 0"/><path d="m157.972656 103.136719c0 4.195312 3.425782 7.5 7.5 7.5 4.195313 0 7.5-3.433594 7.5-7.5 0-4.121094-3.351562-7.503907-7.5-7.503907-4.148437 0-7.5 3.386719-7.5 7.503907zm0 0"/><path d="m177.316406 81.09375c0 4.210938 3.417969 7.5 7.5 7.5 4.800782 0 8.292969-4.449219 7.347656-8.960938-.859374-4.136718-4.789062-6.699218-8.816406-5.890624-3.699218.769531-6.03125 3.9375-6.03125 7.351562zm0 0"/><path d="m176.914062 47.160156c-4.148437 0-7.5 3.394532-7.5 7.5 0 4.070313 3.320313 7.503906 7.5 7.503906 4.074219 0 7.5-3.289062 7.5-7.503906 0-4.097656-3.328124-7.5-7.5-7.5zm0 0"/><path d="m486.417969 186.347656c-25.828125 21.117188-97.238281 62.125-202.191407-13-32.976562-23.605468-65.398437-36.546875-95.835937-42.4375 4.507813-2.847656 8.742187-6.199218 12.605469-10.058594 28.132812-28.136718 28.132812-73.910156 0-102.046874-8.652344-8.648438-19.417969-14.988282-31.140625-18.339844-3.984375-1.136719-8.136719 1.167968-9.273438 5.152344-1.136719 3.984374 1.167969 8.132812 5.152344 9.273437 9.277344 2.648437 17.804687 7.671875 24.652344 14.523437 22.285156 22.28125 22.285156 58.542969 0 80.828126-22.214844 22.210937-58.40625 22.421874-80.828125 0-22.285156-22.285157-22.285156-58.546876 0-80.828126 6.988281-6.988281 15.710937-12.066406 25.222656-14.679687 3.992188-1.097656 6.339844-5.226563 5.246094-9.21875-1.097656-3.992187-5.222656-6.34375-9.222656-5.246094-12.011719 3.300781-23.027344 9.710938-31.855469 18.535157-13.625 13.628906-21.132813 31.75-21.132813 51.019531 0 19.273437 7.507813 37.394531 21.132813 51.023437 3.390625 3.386719 7.054687 6.394532 10.945312 9.003906-52.589843 8.4375-91.136719 32.589844-103.152343 40.902344-4.222657 2.921875-6.742188 7.734375-6.742188 12.878906v188.3125c0 8.640626 7.03125 15.671876 15.671875 15.671876h480.65625c8.640625 0 15.671875-7.03125 15.671875-15.671876v-61.238281c0-4.144531-3.355469-7.5-7.5-7.5s-7.5 3.355469-7.5 7.5v61.238281c0 .371094-.304688.671876-.671875.671876h-480.65625c-.367187 0-.671875-.300782-.671875-.671876v-188.3125c0-.222656.105469-.425781.277344-.542968 21.808594-15.085938 136.851562-85.847656 260.21875 2.453125 14.296875 10.234375 28.03125 18.441406 41.1875 24.945312v116.097657c0 17.5625 10.878906 28.472656 28.390625 28.472656h106.089843c17.507813 0 28.386719-10.910156 28.386719-28.472656v-117.027344c6.5625-4.027344 12.042969-8.066406 16.363281-11.597656.128907-.105469.324219-.261719.699219-.085938.386719.183594.386719.453125.386719.613281v77.214844c0 4.144531 3.355469 7.5 7.5 7.5s7.5-3.355469 7.5-7.5v-77.214844c0-13.214843-15.347656-20.5-25.582031-12.140625zm-21.867188 140.238282c0 5.78125-1.390625 13.472656-13.386719 13.472656h-106.089843c-12 0-13.390625-7.6875-13.390625-13.472656v-109.277344c44.433594 18.140625 90.003906 20.636718 132.863281.421875v108.855469zm0 0"/></svg>