<svg height="511pt" viewBox="0 -9 511.99986 511" width="511pt" xmlns="http://www.w3.org/2000/svg"><path d="m420.734375 317.890625c-16.476563 0-312.3125 0-329.46875 0-46.070313 0-83.761719 37.695313-83.761719 83.761719 0 46.070312 37.691406 83.765625 83.761719 83.765625h329.46875c46.070313 0 83.761719-37.695313 83.761719-83.765625 0-46.070313-37.691406-83.761719-83.761719-83.761719zm0 0" fill="#9ad14b"/><path d="m322.164062 285.382812c-12.53125 3.160157-25.589843 3.128907-38.109374-.085937l-37.253907-9.570313c-14.164062-3.640624-28.644531 4.585938-33.683593 19.132813-5.746094 16.574219 3.164062 34.8125 19.210937 39.332031l40.234375 11.328125c16.65625 4.691407 34.203125-3.058593 42.847656-18.921875l24.960938-45.808594zm0 0" fill="#e4e3e1"/><path d="m232.617188 296.734375c3.097656-9.785156 9.773437-16.949219 17.742187-20.09375l-3.558594-.917969c-14.164062-3.636718-28.644531 4.585938-33.683593 19.136719-5.746094 16.574219 3.164062 34.8125 19.210937 39.332031l18.285156 5.148438c-15.273437-5.554688-23.59375-24.941406-17.996093-42.605469zm0 0" fill="#d1d0cf"/><path d="m496.957031 10.046875c-7.226562-4.191406-16.480469-1.730469-20.667969 5.496094l-91.042968 157.007812 26.355468 14.839844 90.851563-156.675781c4.191406-7.226563 1.730469-16.480469-5.496094-20.667969zm0 0" fill="#72bdf6"/><path d="m499.457031 11.855469c-7.261719-6.484375-18.46875-4.421875-23.167969 3.6875l-91.042968 157.007812 15.195312 8.558594c103.710938-178.890625 96.460938-166.972656 99.015625-169.253906zm0 0" fill="#4b98d4"/><path d="m386 171.25-15.128906 26.09375c-4.191406 7.222656-1.730469 16.476562 5.496094 20.667969 7.222656 4.1875 16.476562 1.730469 20.667968-5.496094l15.320313-26.421875zm0 0" fill="#4b98d4"/><path d="m376.367188 218.011719c5.476562 3.171875 12.628906 2.679687 17.65625-1.816407-5.238282-4.675781-6.65625-12.539062-2.996094-18.851562l10.167968-17.535156-15.195312-8.554688c-16.367188 28.226563-17.027344 28.28125-17.167969 33.238282-.148437 5.363281 2.566407 10.636718 7.535157 13.519531zm0 0" fill="#2472b2"/><path d="m249.4375 312.433594c-17.691406-12.945313-42.53125-9.101563-55.476562 8.589844-12.949219 17.695312-9.101563 42.53125 8.589843 55.480468 17.691407 12.949219 42.53125 9.101563 55.476563-8.589844 12.949218-17.691406 9.105468-42.53125-8.589844-55.480468zm0 0" fill="#e4e3e1"/><path d="m170.441406 401.652344c0-12.867188-24.515625-23.300782-54.761718-23.300782-30.242188 0-54.757813 10.433594-54.757813 23.300782 0 12.871094 24.515625 23.304687 54.757813 23.304687 30.246093 0 54.761718-10.433593 54.761718-23.304687zm0 0" fill="#3e4151"/><path d="m28.253906 401.652344c0-46.070313 37.695313-83.761719 83.765625-83.761719-11.066406 0-18.441406 0-20.753906 0-46.070313 0-83.761719 37.691406-83.761719 83.761719 0 46.070312 37.691406 83.765625 83.761719 83.765625h20.753906c-46.070312 0-83.765625-37.695313-83.765625-83.765625zm0 0" fill="#76ab29"/><path d="m223.285156 376.519531c-17.6875-12.949219-21.535156-37.785156-8.585937-55.476562 5.542969-7.574219 13.265625-12.601563 21.671875-14.867188-15.390625-4.171875-32.441406 1.226563-42.421875 14.867188-12.949219 17.691406-9.105469 42.527343 8.585937 55.476562 10.121094 7.40625 22.574219 9.308594 33.804688 6.28125-4.570313-1.242187-9-3.316406-13.054688-6.28125zm0 0" fill="#d1d0cf"/><path d="m81.671875 401.652344c0-11.359375 19.105469-20.8125 44.382813-22.878906-33.957032-2.773438-65.132813 8.308593-65.132813 22.878906 0 14.578125 31.179687 25.65625 65.132813 22.882812-25.277344-2.0625-44.382813-11.519531-44.382813-22.882812zm0 0" fill="#353744"/><path d="m214.320312 358.933594c4.15625 0 7.5-3.390625 7.5-7.5 0-3.597656-2.597656-6.707032-6.042968-7.351563-4.453125-.929687-8.960938 2.496094-8.960938 7.351563 0 4.117187 3.359375 7.5 7.503906 7.5zm0 0"/><path d="m229.488281 351.570312c0 4.207032 3.457031 7.511719 7.5 7.511719 4.101563 0 7.5-3.335937 7.5-7.511719 0-3.378906-2.324219-6.578124-6.027343-7.347656-4.691407-.921875-8.972657 2.675782-8.972657 7.347656zm0 0"/><path d="m227.257812 338.601562c4.082032 0 7.5-3.324218 7.5-7.5 0-3.507812-2.519531-6.691406-6.039062-7.351562-4.609375-.953125-8.960938 2.628906-8.960938 7.351562 0 4.179688 3.410157 7.5 7.5 7.5zm0 0"/><path d="m420.730469 310.394531h-89.246094c3.6875-6.359375 36.59375-63.109375 48.265625-83.238281 9.300781 1.75 18.898438-2.476562 23.769531-10.878906l105.421875-181.800782c6.269532-10.816406 2.59375-24.644531-8.226562-30.917968-10.816406-6.269532-24.644532-2.59375-30.917969 8.222656l-105.417969 181.800781c-4.941406 8.523438-3.675781 18.964844 2.390625 26.058594l-32.925781 56.777344-14.828125 3.515625c-20.972656 4.96875-32.632813.285156-70.886719-8.949219-21.472656-5.1875-42.316406 10.121094-44.105468 31.738281-3.84375 2.011719-7.433594 4.578125-10.664063 7.671875h-102.09375c-50.324219 0-91.265625 40.9375-91.265625 91.261719s40.941406 91.265625 91.265625 91.265625h147.230469c4.144531 0 7.5-3.359375 7.5-7.5 0-4.144531-3.355469-7.503906-7.5-7.503906h-147.230469c-42.054687 0-76.265625-34.210938-76.265625-76.261719s34.210938-76.261719 76.265625-76.261719h91.546875c-10.292969 23.265625-.214844 51.152344 23.523438 62.015625 28.429687 13.019532 62.035156-4.894531 66.394531-36.5 22.398437 4.167969 38.53125-5.640625 50.054687-25.519531h97.945313c42.050781 0 76.261719 34.214844 76.261719 76.265625s-34.210938 76.261719-76.261719 76.261719h-147.234375c-4.140625 0-7.5 3.359375-7.5 7.5 0 4.144531 3.359375 7.5 7.5 7.5h147.234375c50.324219 0 91.261719-40.9375 91.261719-91.261719s-40.9375-91.261719-91.261719-91.261719zm-31.960938-128.96875 13.285157 7.476563-11.511719 19.851562c-2.082031 3.585938-6.75 4.898438-10.417969 2.769532-3.632812-2.105469-4.878906-6.78125-2.769531-10.417969zm94.007813-162.121093c2.109375-3.636719 6.761718-4.886719 10.414062-2.769532 3.640625 2.109375 4.890625 6.765625 2.773438 10.417969l-86.386719 148.972656-13.28125-7.480469zm-238.167969 266.261718c38.527344 9.300782 52.425781 14.992188 78.875 8.722656-1.542969 2.664063-15.890625 27.402344-15.890625 27.402344-6.328125 10.914063-19.316406 17.917969-35.320312 13.679688-4.746094-24.148438-27.351563-40.636719-51.703126-37.777344 3.980469-9.28125 14.109376-14.421875 24.039063-12.027344zm-50.8125 59.226563c-.1875-17.8125 14.1875-32.488281 32.222656-32.488281 17.433594 0 31.800781 13.957031 32.132813 31.617187.484375 26.613281-29.816406 42.191406-51.1875 26.546875-8.3125-6.082031-13.0625-15.625-13.167969-25.675781zm0 0"/><path d="m99.242188 387c4.101562-.585938 6.945312-4.390625 6.359374-8.488281-.589843-4.101563-4.386718-6.945313-8.492187-6.359375-26.949219 3.867187-43.691406 15.171875-43.691406 29.503906 0 9.421875 7.316406 17.726562 20.601562 23.378906 11.25 4.789063 26.046875 7.425782 41.660157 7.425782 31.765624 0 62.261718-11.175782 62.261718-30.804688 0-14.332031-16.746094-25.636719-43.695312-29.503906-4.089844-.59375-7.902344 2.257812-8.492188 6.359375-.585937 4.097656 2.261719 7.898437 6.359375 8.488281 20.113281 2.886719 30.824219 10.363281 30.824219 14.65625 0 5.363281-16.679688 15.800781-47.257812 15.800781-30.578126 0-47.261719-10.4375-47.261719-15.800781 0-4.289062 10.710937-11.769531 30.824219-14.65625zm0 0"/></svg>