<svg height="511pt" viewBox="0 0 511 511.99927" width="511pt" xmlns="http://www.w3.org/2000/svg"><path d="m447.457031 65.144531c-76.351562-76.355469-200.144531-76.355469-276.5 0-76.351562 76.351563-76.351562 200.144531 0 276.496094 76.355469 76.355469 200.148438 76.355469 276.5 0 76.351563-76.351563 76.351563-200.144531 0-276.496094zm0 0" fill="#d1d0cf"/><path d="m190.957031 341.640625c-76.355469-76.351563-76.355469-200.144531 0-276.5 35.632813-35.632813 81.597657-54.628906 128.253907-57.003906-53.316407-2.710938-107.527344 16.285156-148.25 57.003906-76.355469 76.355469-76.355469 200.148437 0 276.5 40.71875 40.722656 94.933593 59.71875 148.25 57.007813-46.65625-2.375-92.621094-21.371094-128.253907-57.007813zm0 0" fill="#c4c4c4"/><path d="m454.125 124.246094c-29.214844 7.828125-20.574219 5.511718-44.917969 12.035156l-32.882812-32.882812c7.828125-29.21875 5.511719-20.574219 12.035156-44.921876 23.703125-6.347656 18.503906-4.957031 39.417969-10.5625-9.082032-6.941406-18.636719-12.984374-28.535156-18.125l-17.328126 4.644532-19.082031-19.082032c-35.660156-10.132812-73.632812-9.957031-109.207031.554688l8.839844 8.839844c-1.746094 6.515625-10.289063 38.402344-12.035156 44.917968-6.515626 1.746094-38.402344 10.289063-44.917969 12.035157l-25.257813-25.253907c-6.707031 5.898438-12.144531 11.378907-17.625 17.578126l25.28125 25.277343c-1.746094 6.515625-10.289062 38.40625-12.035156 44.921875-6.515625 1.742188-38.40625 10.289063-44.917969 12.035156l-9.046875-9.046874c-10.582031 35.386718-10.925781 73.171874-1.046875 108.71875l19.777344 19.777343-4.84375 18.082031c5.148437 9.871094 11.199219 19.390626 18.148437 28.445313 5.738282-21.417969 4.484376-16.730469 10.742188-40.085937 29.21875-7.828126 20.574219-5.511719 44.917969-12.035157l32.886719 32.882813c-7.832032 29.21875-5.515626 20.574218-12.039063 44.917968-23.484375 6.296876-18.578125 4.980469-40.085937 10.742188 9.054687 6.949219 18.578124 13 28.449218 18.148438l18.082032-4.84375 19.773437 19.777343c35.546875 9.878907 73.335937 9.535157 108.71875-1.042969l-9.046875-9.046874c7.832031-29.21875 5.515625-20.578126 12.039062-44.917969 29.300782-7.851563 20.289063-5.4375 44.917969-12.035157l25.277344 25.277344c3.023437-2.671875 5.992187-5.441406 8.882813-8.332031 3.023437-3.023437 5.914062-6.128906 8.695312-9.292969l-25.253906-25.253906c7.851562-29.304688 5.4375-20.292969 12.035156-44.921875 29.21875-7.828125 20.574219-5.511719 44.917969-12.035156l8.839843 8.839843c10.511719-35.574218 10.691407-73.546874.554688-109.207031l-19.082031-19.082031 4.644531-17.328125c-5.136719-9.898437-11.183594-19.449219-18.125-28.535156-5.941406 22.175781-4.054688 15.136719-10.5625 39.421875zm-179.648438-48.136719c1.746094-6.515625 10.289063-38.40625 12.035157-44.921875 29.300781-7.851562 20.289062-5.433594 44.917969-12.035156l32.882812 32.882812c-7.828125 29.21875-5.511719 20.574219-12.035156 44.921875-6.503906 1.742188-38.398438 10.289063-44.917969 12.035157zm-74.558593 74.554687c7.828125-29.214843 5.511719-20.574218 12.035156-44.917968 6.515625-1.746094 38.402344-10.289063 44.921875-12.035156l32.882812 32.882812c-1.746093 6.511719-10.289062 38.402344-12.039062 44.917969-6.511719 1.746093-38.402344 10.289062-44.917969 12.035156zm-41.675781 107.441407-32.882813-32.882813c7.851563-29.300781 5.4375-20.289062 12.035156-44.917968 6.515625-1.746094 38.40625-10.292969 44.921875-12.035157l32.882813 32.882813c-1.746094 6.511718-10.289063 38.402344-12.035157 44.917968-29.21875 7.828126-20.578124 5.511719-44.921874 12.035157zm186.09375 72.183593c-1.746094 6.511719-10.289063 38.402344-12.035157 44.917969-29.21875 7.828125-20.578125 5.511719-44.921875 12.035157l-32.882812-32.882813c7.828125-29.214844 5.515625-20.574219 12.035156-44.917969 6.507812-1.742187 38.402344-10.289062 44.921875-12.035156zm-84.246094-44.894531-32.882813-32.882812c1.746094-6.515625 10.289063-38.402344 12.039063-44.917969 29.214844-7.828125 20.574218-5.511719 44.917968-12.035156l32.882813 32.882812c-7.828125 29.214844-5.515625 20.574219-12.035156 44.917969-6.515625 1.746094-38.40625 10.289063-44.921875 12.035156zm158.804687-29.664062c-1.746093 6.511719-10.292969 38.402343-12.039062 44.921875-6.515625 1.742187-38.402344 10.289062-44.917969 12.035156l-32.882812-32.886719c1.746093-6.511719 10.289062-38.402343 12.035156-44.917969 6.507812-1.742187 38.402344-10.289062 44.921875-12.035156zm-84.246093-44.890625-32.882813-32.882813c7.828125-29.21875 5.511719-20.578125 12.035156-44.921875 6.515625-1.746094 38.402344-10.289062 44.917969-12.035156l32.882812 32.882812c-1.746093 6.515626-10.289062 38.402344-12.035156 44.921876-29.214844 7.828124-20.574218 5.511718-44.917968 12.035156zm158.800781-29.667969c-7.828125 29.21875-5.511719 20.578125-12.035157 44.921875-6.503906 1.742188-38.398437 10.289062-44.917968 12.035156l-32.882813-32.882812c1.742188-6.511719 10.289063-38.402344 12.035157-44.917969 29.214843-7.828125 20.574218-5.515625 44.917968-12.035156zm0 0" fill="#e4e3e1"/><g fill="#d1d0cf"><path d="m244.65625 379.722656 12.007812 12.007813c20.292969 5.640625 41.222657 7.964843 62.46875 6.910156-25.5625-1.308594-50.914062-7.621094-74.476562-18.917969zm0 0"/><path d="m232.238281 373.210938c-9.359375-5.351563-18.371093-11.535157-26.925781-18.558594l-14.945312 4.003906c8.097656 6.261719 18.085937 12.742188 28.464843 18.148438zm0 0"/><path d="m258.707031 20.988281c19.460938-7.507812 39.882813-11.792969 60.4375-12.847656-21.628906-1.085937-43.652343 1.328125-65.507812 7.777344zm0 0"/><path d="m173.601562 84.996094c4.988282-6.539063 10.441407-12.832032 16.367188-18.839844l-9.710938-9.710938c-7.90625 6.910157-16.382812 15.917969-17.628906 17.578126zm0 0"/><path d="m136.472656 236.335938-11.113281-11.113282c8.007813-29.882812 5.246094-19.578125 8.609375-32.125.695312-13.226562 2.726562-26.390625 6.09375-39.28125l-9.109375 2.441406-9.042969-9.046874c-10.1875 34.066406-11.277344 71.898437-1.046875 108.71875l19.777344 19.777343-4.84375 18.082031c5.578125 10.691407 12.351563 20.992188 18.148437 28.449219 6.476563-24.160156 4.824219-18 5.730469-21.382812-11.648437-20.238281-19.390625-42.109375-23.203125-64.519531zm0 0"/></g><path d="m394.148438 387.671875c3.765624-1.730469 5.414062-6.179687 3.683593-9.945313-1.730469-3.757812-6.179687-5.410156-9.945312-3.679687-6.65625 3.0625-13.4375 5.699219-20.300781 7.929687l-2.773438-2.773437 9.792969-36.558594 36.554687-9.792969 16.464844 16.464844c-3.289062 2.664063-6.660156 5.222656-10.101562 7.652344-3.386719 2.390625-4.195313 7.066406-1.808594 10.449219 1.460937 2.070312 3.78125 3.175781 6.136718 3.175781 1.492188 0 3-.441406 4.3125-1.371094 97.324219-68.648437 114.855469-205.496094 38.960938-296.171875-2.65625-3.175781-7.386719-3.59375-10.5625-.9375-3.175781 2.660157-3.59375 7.386719-.9375 10.5625 1.003906 1.195313 1.984375 2.402344 2.953125 3.617188l-3.578125 13.34375-4.894531 18.28125-36.558594 9.792969-26.757813-26.757813 9.792969-36.558594 31.628907-8.472656c1.210937.964844 2.414062 1.945313 3.609374 2.945313 3.171876 2.660156 7.902344 2.238281 10.5625-.9375 2.65625-3.171876 2.238282-7.902344-.9375-10.5625-24.234374-20.285157-52.8125-34.335938-81.484374-41.296876-151.089844-37.167968-285.699219 102.449219-244.21875 251.660157 33.199218 119.804687 166.679687 182.226562 280.40625 129.941406zm-231.886719-67.332031 8.648437-32.273438 36.558594-9.792968 26.757812 26.757812-9.792968 36.558594-32.261719 8.644531c-11.066406-8.800781-20.972656-18.695313-29.910156-29.894531zm127.460937 58.332031-26.761718-26.761719 9.796874-36.554687 36.554688-9.796875 26.761719 26.761718-9.796875 36.558594zm166.082032-57.589844-16.4375-16.4375 9.796874-36.554687 36.554688-9.796875 2.792969 2.792969c-6.972657 21.351562-17.894531 41.710937-32.707031 59.996093zm-99.75-267.011719-9.796876 36.554688-36.554687 9.796875-26.761719-26.761719 9.792969-36.554687 36.558594-9.796875zm-104.640626-30.082031 2.789063 2.792969-9.792969 36.554688-36.554687 9.796874-16.4375-16.4375c18.285156-14.8125 38.640625-25.734374 59.996093-32.707031zm-88.234374 60.882813 16.46875 16.46875-9.796876 36.554687-36.554687 9.792969-2.730469-2.730469c6.9375-21.417969 17.808594-41.824219 32.613282-60.085937zm-37.164063 76.722656c1.882813 1.710938 4.511719 2.363281 6.980469 1.699219l44.921875-12.035157c2.585937-.691406 4.605469-2.714843 5.300781-5.300781l12.035156-44.917969c.691406-2.589843-.046875-5.351562-1.941406-7.242187l-20.207031-20.210937c.117187-.121094.234375-.242188.355469-.367188 1.414062-1.480469 3.515624-3.660156 6.652343-6.617188l20.199219 20.195313c1.894531 1.894531 4.652344 2.632813 7.242188 1.941406l44.917968-12.035156c2.589844-.695313 4.609375-2.714844 5.300782-5.304687l12.039062-44.917969c.640625-2.394531.054688-4.9375-1.539062-6.808594 15.789062-3.519531 31.894531-4.984375 47.964843-4.390625l-31.566406 8.457031c-2.585937.691407-4.605469 2.714844-5.300781 5.304688l-12.035156 44.917969c-.691407 2.585937.046874 5.347656 1.941406 7.242187l32.882812 32.882813c1.894532 1.894531 4.65625 2.632812 7.242188 1.941406l44.917968-12.035156c2.589844-.695313 4.609376-2.714844 5.304688-5.304688l12.035156-44.917969c.691406-2.589843-.046875-5.351562-1.941406-7.242187l-28.671875-28.675782c6.035156 1.035157 12.035156 2.363282 17.980469 3.988282l17.691406 17.6875c1.894531 1.894531 4.65625 2.636718 7.242188 1.941406l14.480468-3.878906c4.066406 2.191406 8.0625 4.539062 11.96875 7.039062l-23.890625 6.402344c-2.585937.691406-4.605469 2.714844-5.300781 5.300781l-12.035156 44.921875c-.691406 2.585938.046875 5.347656 1.9375 7.242188l32.882812 32.882812c1.898438 1.894532 4.660156 2.632813 7.246094 1.9375l44.917969-12.035156c2.589843-.695312 4.609375-2.714844 5.300781-5.304688l6.402344-23.890624c2.496094 3.90625 4.847656 7.90625 7.039062 11.972656l-3.878906 14.480468c-.691406 2.589844.046875 5.351563 1.9375 7.242188l17.691406 17.691406c1.625 5.945313 2.953125 11.949219 3.984375 17.980469l-28.671875-28.671875c-1.898437-1.894531-4.65625-2.632812-7.246094-1.941406l-44.917968 12.035156c-2.585938.695312-4.609375 2.714844-5.300782 5.304688l-12.035156 44.917968c-.695312 2.585938.042969 5.347656 1.9375 7.242188l32.882813 32.882812c1.894531 1.894532 4.65625 2.632813 7.242187 1.941406l44.921875-12.039062c2.585938-.691406 4.605469-2.710938 5.300781-5.300781l8.457032-31.5625c.597656 16.066406-.867188 32.175781-4.390625 47.960937-1.871094-1.589844-4.414063-2.175781-6.808594-1.535156l-44.917969 12.035156c-2.585937.695313-4.609375 2.714844-5.300781 5.300782l-12.035156 44.921874c-.695313 2.585938.042969 5.347657 1.9375 7.242188l20.199219 20.199219s-1.925782 2.121093-6.992188 7.007812l-20.203125-20.207031c-1.898437-1.898438-4.660156-2.632812-7.246094-1.941406l-44.917969 12.035156c-2.585937.695312-4.605468 2.714844-5.300781 5.300781l-12.035156 44.921875c-.667969 2.492188-.003906 5.140625 1.734375 7.027344-16.183594 3.636719-32.675781 5.078125-49.035156 4.402344l32.4375-8.691406c2.585937-.691407 4.609375-2.714844 5.300781-5.300782l12.039063-44.917968c.691406-2.589844-.046876-5.351563-1.941407-7.242188l-32.882812-32.882812c-1.894531-1.898438-4.65625-2.632813-7.242188-1.941407l-44.921875 12.035157c-2.585937.695312-4.605468 2.714843-5.300781 5.304687l-12.035156 44.917969c-.691407 2.585937.046875 5.347656 1.9375 7.242187l29.023437 29.023438c-6.015625-1.007813-11.988281-2.308594-17.886718-3.894531l-18.132813-18.132813c-1.898437-1.894531-4.65625-2.632813-7.242187-1.9375l-15.066407 4.035156c-4.074219-2.1875-8.074219-4.535156-11.992187-7.03125l24.496094-6.566406c2.589843-.691406 4.609374-2.710937 5.300781-5.300781l12.039062-44.917969c.691407-2.589844-.046875-5.351563-1.941406-7.242187l-32.882813-32.882813c-1.894531-1.898437-4.65625-2.636719-7.242187-1.941406l-44.921875 12.035156c-2.585938.695313-4.605469 2.714844-5.300781 5.300781l-6.582031 24.566406c-2.507813-3.914062-4.855469-7.902343-7.042969-11.953124l4.0625-15.175782c.695312-2.585937-.046875-5.347656-1.9375-7.238281l-18.28125-18.28125c-1.570313-5.890625-2.851563-11.84375-3.839844-17.839844l29.117187 29.121094c1.898438 1.894531 4.660157 2.632813 7.242188 1.941406l44.921875-12.039062c2.585937-.691407 4.605469-2.710938 5.300781-5.300781l12.035156-44.917969c.695313-2.589844-.046874-5.351563-1.9375-7.242188l-32.882812-32.882812c-1.898438-1.898438-4.660156-2.636719-7.246094-1.941407l-44.917968 12.035157c-2.585938.695312-4.609376 2.714843-5.300782 5.304687l-8.714844 32.511719c-.644531-16.445313.84375-32.953125 4.476563-49.078125zm359.175781 21.613281-9.796875 36.554688-36.554687 9.796875-26.761719-26.761719 9.796875-36.554687 36.554688-9.796876zm-351.367187 39.570313 9.796875-36.558594 36.554687-9.796875 26.761719 26.761719-9.792969 36.558594c-22.441406 6.011718-14.140625 3.785156-36.558593 9.792968zm0 0"/><path d="m384.171875 215.398438-44.921875 12.035156c-2.585938.695312-4.605469 2.714844-5.300781 5.304687l-12.035157 44.917969c-.691406 2.585938.046876 5.347656 1.941407 7.242188 35.671875 35.671874 34.035156 35.078124 38.183593 35.078124 1.414063 0-1.574218.6875 46.859376-12.289062 2.585937-.695312 4.605468-2.714844 5.300781-5.300781l12.035156-44.921875c.695313-2.585938-.042969-5.347656-1.9375-7.242188l-32.882813-32.882812c-1.894531-1.894532-4.65625-2.632813-7.242187-1.941406zm16.664063 78.921874-36.554688 9.792969-26.761719-26.761719 9.796875-36.550781 36.554688-9.796875 26.761718 26.761719zm0 0"/><path d="m234.84375 190.582031 44.917969-12.035156c2.589843-.691406 4.609375-2.710937 5.304687-5.300781l12.035156-44.917969c.691407-2.589844-.046874-5.351563-1.941406-7.242187l-32.882812-32.882813c-1.894532-1.894531-4.65625-2.636719-7.242188-1.941406l-44.917968 12.035156c-2.589844.695313-4.609376 2.714844-5.304688 5.300781l-12.035156 44.921875c-.691406 2.585938.046875 5.347657 1.941406 7.242188 35.378906 35.378906 34.601562 36.300781 40.125 34.820312zm-16.664062-78.921875 36.554687-9.792968 26.761719 26.761718-9.796875 36.554688-36.554688 9.792968-26.761719-26.757812zm0 0"/><path d="m322.449219 222.933594-32.882813-32.882813c-1.894531-1.898437-4.660156-2.632812-7.242187-1.941406l-44.917969 12.035156c-2.589844.691407-4.609375 2.714844-5.304688 5.300781l-12.03125 44.921876c-.695312 2.585937.042969 5.347656 1.9375 7.242187 35.378907 35.378906 34.601563 36.300781 40.125 34.820313l44.917969-12.035157c2.589844-.691406 4.609375-2.714843 5.304688-5.300781l12.035156-44.917969c.691406-2.589843-.046875-5.347656-1.941406-7.242187zm-23.457031 44.097656c-22.441407 6.011719-14.140626 3.789062-36.558594 9.792969l-26.757813-26.757813 9.792969-36.558594 36.554688-9.792968 26.761718 26.761718zm0 0"/><path d="m296.566406 183.050781 32.882813 32.882813c1.425781 1.425781 3.339843 2.195312 5.300781 2.195312 1.414062 0-1.578125.6875 46.863281-12.289062 2.585938-.695313 4.605469-2.714844 5.300781-5.304688l12.035157-44.917968c.691406-2.585938-.046875-5.347657-1.941407-7.242188l-32.882812-32.882812c-1.894531-1.894532-4.65625-2.632813-7.242188-1.941407l-44.917968 12.035157c-2.589844.695312-4.609375 2.714843-5.304688 5.304687l-12.035156 44.917969c-.691406 2.585937.046875 5.347656 1.941406 7.242187zm23.460938-44.097656 36.554687-9.796875 26.761719 26.761719-9.796875 36.558593c-22.441406 6.011719-14.136719 3.785157-36.554687 9.792969l-26.761719-26.761719zm0 0"/><path d="m13.300781 233.300781 80.597657-80.597656c2.929687-2.929687 2.929687-7.675781 0-10.601563-2.929688-2.929687-7.675782-2.929687-10.601563 0l-80.601563 80.597657c-2.925781 2.925781-2.925781 7.675781 0 10.601562 2.929688 2.929688 7.675782 2.929688 10.605469 0zm0 0"/><path d="m86.441406 277.203125-83.039062 83.039063c-4.742188 4.742187-1.316406 12.800781 5.300781 12.800781 1.917969 0 3.839844-.730469 5.304687-2.195313l83.039063-83.042968c2.929687-2.925782 2.929687-7.675782 0-10.601563-2.929687-2.929687-7.675781-2.929687-10.605469 0zm0 0"/><path d="m29.328125 493.773438 12.753906-12.75c2.929688-2.929688 2.929688-7.675782 0-10.605469-2.929687-2.925781-7.675781-2.929688-10.601562 0l-12.757813 12.753906c-2.925781 2.925781-2.925781 7.675781 0 10.601563 2.929688 2.929687 7.675782 2.929687 10.605469 0zm0 0"/><path d="m136.585938 365.308594-80.847657 80.847656c-2.929687 2.929688-2.929687 7.675781 0 10.605469 2.929688 2.925781 7.675781 2.925781 10.601563 0l80.851562-80.851563c2.929688-2.929687 2.929688-7.675781 0-10.601562-2.929687-2.929688-7.675781-2.929688-10.605468 0zm0 0"/><path d="m224.691406 415.453125-83.039062 83.039063c-2.929688 2.929687-2.929688 7.675781 0 10.605468 2.925781 2.925782 7.671875 2.925782 10.601562 0l83.042969-83.039062c2.925781-2.929688 2.925781-7.675782 0-10.605469-2.929687-2.925781-7.675781-2.925781-10.605469 0zm0 0"/><path d="m304.417969 495.183594c2.929687-2.929688 2.929687-7.675782.003906-10.605469-2.929687-2.925781-7.679687-2.925781-10.605469 0l-14.621094 14.621094c-2.925781 2.929687-2.925781 7.675781 0 10.605469 1.464844 1.460937 3.382813 2.195312 5.304688 2.195312 4.015625 0 4.253906-1.148438 19.917969-16.816406zm0 0"/><path d="m327.820312 471.78125 42.582032-42.578125c2.925781-2.929687 2.925781-7.675781 0-10.601563-2.929688-2.929687-7.675782-2.929687-10.605469 0l-42.578125 42.578126c-2.929688 2.929687-2.929688 7.675781 0 10.601562 2.925781 2.929688 7.671875 2.929688 10.601562 0zm0 0"/></svg>