<svg height="512pt" viewBox="-35 0 512 512.00128" width="512pt" xmlns="http://www.w3.org/2000/svg"><path d="m270.039062 76.765625-106.273437-50.199219v110.300782l106.273437-50.199219c4.320313-2.042969 4.320313-7.863281 0-9.902344zm0 0" fill="#f75757"/><path d="m184.839844 36.519531-21.074219-9.953125v110.300782l21.074219-9.957032zm0 0" fill="#ea3f3f"/><path d="m270.039062 76.765625-31.746093-14.996094-74.523438 35.203125v39.894532l106.269531-50.199219c4.320313-2.042969 4.320313-7.863281 0-9.902344zm0 0" fill="#ea3f3f"/><path d="m184.839844 126.910156v-39.894531l-21.074219 9.957031v39.894532l6.949219-3.28125zm0 0" fill="#d4352f"/><path d="m438.835938 404.671875c0-55.246094-96.578126-100.03125-215.71875-100.03125-119.136719 0-215.71875 44.785156-215.71875 100.03125s96.582031 100.03125 215.71875 100.03125c119.140624 0 215.71875-44.785156 215.71875-100.03125zm0 0" fill="#9ad14b"/><path d="m27.398438 404.671875c0-53.691406 91.226562-97.496094 205.71875-99.921875-123.429688-2.617188-225.71875 43.046875-225.71875 99.921875 0 55.246094 96.582031 100.03125 215.71875 100.03125 3.355468 0 6.6875-.042969 10-.113281-114.492188-2.421875-205.71875-46.226563-205.71875-99.917969zm0 0" fill="#76ab29"/><path d="m164.839844 380.171875v-359.417969c0-7.203125-5.84375-13.046875-13.046875-13.046875-7.207031 0-13.050781 5.839844-13.050781 13.046875v352.164063c6.449218 3.699219 15.613281 6.335937 26.097656 7.253906zm0 0" fill="#e4e3e1"/><path d="m155.996094 20.753906c0-3.894531 1.714844-7.378906 4.421875-9.769531-2.300781-2.03125-5.3125-3.277344-8.625-3.277344-7.207031 0-13.046875 5.839844-13.046875 13.046875v352.164063c4.554687 2.617187 10.472656 4.695312 17.25 6.015625zm0 0" fill="#d1d0cf"/><path d="m164.839844 339.976562v40.191407c27.304687 2.386719 52.320312-7.328125 52.320312-20.09375 0-12.773438-25.011718-22.484375-52.320312-20.097657zm0 0" fill="#3e4151"/><path d="m184.839844 340.359375c-6.457032-.828125-13.222656-.976563-20-.382813v40.191407c6.769531.589843 13.535156.445312 20-.386719zm0 0" fill="#353744"/><path d="m138.746094 372.917969v-25.703125c-6.132813 3.515625-9.808594 7.984375-9.808594 12.855468 0 4.871094 3.675781 9.34375 9.808594 12.851563zm0 0" fill="#353744"/><path d="m313.214844 356.339844c0 13.359375-10.828125 24.1875-24.1875 24.1875-13.355469 0-24.183594-10.828125-24.183594-24.1875 0-13.355469 10.828125-24.183594 24.183594-24.183594 13.359375 0 24.1875 10.828125 24.1875 24.183594zm0 0" fill="#e4e3e1"/><path d="m284.84375 356.339844c0-9.789063 5.816406-18.210938 14.183594-22.019532-3.050782-1.386718-6.433594-2.164062-10-2.164062-13.359375 0-24.1875 10.828125-24.1875 24.183594 0 13.359375 10.832031 24.1875 24.1875 24.1875 3.566406 0 6.949218-.78125 10-2.167969-8.363282-3.804687-14.183594-12.226563-14.183594-22.019531zm0 0" fill="#d1d0cf"/><path d="m151.894531 0c-11.332031 0-20.550781 9.21875-20.550781 20.546875v285.726563c-36.847656 7.882812-68.351562 20.332031-91.375 36.167968-26.144531 17.988282-39.96875 39.433594-39.96875 62.023438 0 29.808594 23.980469 57.34375 67.527344 77.539062 126.089844 58.464844 342.90625 27.296875 375.125-57.371094 1.472656-3.871093-.46875-8.203124-4.339844-9.675781-3.875-1.472656-8.207031.46875-9.679688 4.339844-16.855468 44.296875-105.164062 77.699219-205.414062 77.699219-117.585938 0-208.21875-43.996094-208.21875-92.53125 0-34.445313 46.375-67.1875 116.34375-82.839844v21.34375c-14.828125 10.976562-12.304688 27.351562 3.855469 36.296875 29.503906 16.839844 89.5625 7.980469 89.5625-19.398437 0-16.09375-22.601563-28.15625-52.320313-27.941407v-17.144531c10.988282-1.25 22.242188-2.101562 33.558594-2.523438 4.136719-.152343 7.367188-3.632812 7.214844-7.773437-.15625-4.136719-3.636719-7.378906-7.773438-7.214844-11.113281.414063-22.171875 1.230469-33 2.417969v-158.296875l100.960938-48.160156c10-4.773438 9.925781-18.707031 0-23.441407l-100.960938-48.164062c0-13.667969-10.125-21.625-20.546875-21.625zm5.546875 371.355469c-4.105468-.800781-7.863281-1.914063-11.09375-3.289063 0-5.582031 0-341.941406 0-347.519531 0-3.058594 2.488282-5.546875 5.546875-5.546875 3.058594 0 5.546875 2.488281 5.546875 5.546875zm52.324219-11.492188c0 4.652344-14.3125 13.144531-37.324219 12.953125v-25.902344c22.992188-.191406 37.324219 8.292969 37.324219 12.949219zm53.367187-278.355469-90.691406 43.265626v-23.277344l66.292969-31.625zm-41.816406-19.945312-48.875 23.3125v-46.628906zm0 0"/><path d="m320.816406 356.136719c0-17.472657-14.214844-31.6875-31.6875-31.6875s-31.6875 14.214843-31.6875 31.6875c0 17.46875 14.214844 31.683593 31.6875 31.683593s31.6875-14.214843 31.6875-31.683593zm-48.371094 0c0-9.203125 7.484376-16.6875 16.683594-16.6875 9.203125 0 16.6875 7.484375 16.6875 16.6875 0 9.199219-7.484375 16.683593-16.6875 16.683593-9.199218 0-16.683594-7.484374-16.683594-16.683593zm0 0"/><path d="m442.652344 384.296875c-9.046875-23.777344-33.59375-44.726563-70.988282-60.578125-36.515624-15.484375-81.695312-24.628906-130.664062-26.453125-4.144531-.167969-7.617188 3.078125-7.773438 7.214844-.152343 4.140625 3.078126 7.621093 7.214844 7.777343 94.042969 3.5 172.464844 36.039063 188.195313 77.371094 1.136719 2.996094 3.988281 4.835938 7.011719 4.835938.886718 0 1.789062-.15625 2.664062-.492188 3.871094-1.472656 5.816406-5.804687 4.339844-9.675781zm0 0"/></svg>