<svg height="511pt" viewBox="0 -11 511.99926 511" width="511pt" xmlns="http://www.w3.org/2000/svg"><path d="m501.953125 24.066406-21.761719-14.886718c-2.554687-1.746094-6.042968-1.085938-7.792968 1.476562-4.511719 6.597656-172.847657 252.742188-177.363282 259.34375 1.148438.679688 29.964844 20.390625 31.007813 21.207031 4.511719-6.597656 172.851562-252.746093 177.363281-259.347656 1.75-2.558594 1.101562-6.050781-1.453125-7.792969zm0 0" fill="#b4e1f9"/><path d="m316.984375 267.148438c18.019531-26.347657 149.628906-218.789063 172.210937-251.808594l-9.003906-6.160156c-2.554687-1.746094-6.042968-1.085938-7.792968 1.476562-4.511719 6.597656-172.847657 252.742188-177.363282 259.34375 1.148438.679688 29.96875 20.394531 31.007813 21.207031.472656-.6875 2.734375-3.996093 6.40625-9.363281 0 0-9.613281-6.554688-14.554688-9.910156-1.578125-1.070313-1.984375-3.214844-.910156-4.785156zm0 0" fill="#72bdf6"/><path d="m325.6875 289.785156-29.203125-19.96875c-7.546875-5.164062-17.851563-3.230468-23.011719 4.320313l-24.195312 35.375 23.425781 16.019531c14.199219 9.710938 21.25 25.957031 19.90625 41.957031l37.398437-54.6875c5.164063-7.546875 3.226563-17.851562-4.320312-23.015625zm0 0" fill="#72bdf6"/><path d="m308.515625 344.226562c-3.367187-7.304687-8.691406-13.820312-15.8125-18.691406l-16.980469-11.613281c-3.558594-2.433594-4.472656-7.292969-2.039062-10.855469 21.640625-31.636718 20.570312-30.589844 23.480468-32.785156-9-6.15625-18.910156-3.140625-23.691406 3.851562l-24.195312 35.378907 23.421875 16.019531c14.199219 9.710938 21.25 25.957031 19.90625 41.957031zm0 0" fill="#4b98d4"/><path d="m152.777344 435.007812-86.941406-59.460937c-33.679688-23.03125-44.808594-66.691406-28.074219-102.484375l-16.910157 24.722656c-23.984374 35.074219-14.996093 82.949219 20.078126 106.933594l93.757812 64.121094c35.566406 24.328125 84.121094 15.210937 108.445312-20.359375l16.894532-24.699219c-27.667969 29.035156-73.070313 34.597656-107.25 11.226562zm0 0" fill="#3e4151"/><path d="m154.6875 468.839844-93.761719-64.121094c-28.5-19.492188-39.773437-54.761719-30.125-86.113281-2.027343-15.210938.171875-31.023438 6.960938-45.542969l-16.910157 24.722656c-23.984374 35.074219-14.996093 82.949219 20.078126 106.933594l93.757812 64.121094c16.453125 11.253906 35.6875 15.335937 54.015625 12.96875-11.832031-1.523438-23.492187-5.773438-34.015625-12.96875zm0 0" fill="#353744"/><path d="m272.9375 325.1875-147.382812-100.789062c-21.015626-14.375-49.769532-8.890626-64.222657 12.242187l-16.9375 24.765625c-25.75 37.652344-16.273437 88.933594 21.167969 114.539062l86.941406 59.457032c37.96875 25.96875 89.921875 16.0625 116.039063-22.121094l16.273437-23.800781c14.457032-21.132813 9.136719-49.917969-11.878906-64.292969zm0 0" fill="#66697f"/><path d="m172.503906 435.40625-86.941406-59.460938c-37.441406-25.605468-46.914062-76.886718-21.164062-114.539062l16.933593-24.761719c6.949219-10.164062 17.207031-16.695312 28.316407-19.152343-17.902344-3.988282-37.277344 3.011718-48.316407 19.152343l-16.933593 24.761719c-25.753907 37.652344-16.277344 88.933594 21.164062 114.539062l86.941406 59.460938c17.285156 11.820312 37.460938 16.183594 56.78125 13.851562-12.796875-1.546874-25.417968-6.082031-36.78125-13.851562zm0 0" fill="#525468"/><path d="m243 357.199219c2.339844-3.421875 1.464844-8.089844-1.957031-10.425781l-124.085938-84.863282c-3.417969-2.339844-8.085937-1.464844-10.425781 1.957032-2.339844 3.417968-1.460938 8.085937 1.957031 10.421874l124.089844 84.867188c3.421875 2.339844 8.089844 1.457031 10.421875-1.957031zm0 0"/><path d="m219.933594 379.59375c2.339844-3.417969 1.460937-8.085938-1.957032-10.425781l-113.527343-77.640625c-3.417969-2.335938-8.085938-1.460938-10.425781 1.957031-2.335938 3.417969-1.460938 8.085937 1.957031 10.425781l113.527343 77.640625c3.425782 2.339844 8.089844 1.457031 10.425782-1.957031zm0 0"/><path d="m91.617188 320.925781c-3.417969-2.335937-8.085938-1.460937-10.421876 1.957031-2.339843 3.421876-1.460937 8.085938 1.957032 10.425782l103.613281 70.863281c3.425781 2.339844 8.089844 1.457031 10.425781-1.957031 2.339844-3.421875 1.460938-8.085938-1.957031-10.425782zm0 0"/><path d="m506.289062 17.667969-21.761718-14.886719c-5.964844-4.078125-14.132813-2.542969-18.210938 3.417969-4.175781 6.109375-149.113281 218.042969-173.480468 253.671875-9.277344-2.21875-19.574219 1.226562-25.453126 9.824218l-19.960937 29.1875-33.824219-23.136718c-3.417968-2.335938-8.085937-1.460938-10.425781 1.957031-2.339844 3.421875-1.460937 8.085937 1.957031 10.425781l63.441406 43.386719c17.355469 11.871094 22.230469 35.867187 10.070313 53.652344-17.203125 25.15625-19.789063 29.96875-28.847656 37.941406-25.570313 22.351563-63.78125 25.261719-92.679688 5.496094l-86.941406-59.457031c-.035156-.027344-.070313-.054688-.105469-.078126-29.902344-20.523437-40.679687-59.738281-25.621094-92.558593 3.46875-7.570313 5.003907-9.269531 23.09375-35.714844 12.042969-17.609375 36.039063-22.117187 53.652344-10.074219l55.050782 37.648438c3.417968 2.339844 8.085937 1.460937 10.421874-1.957032 2.339844-3.417968 1.464844-8.085937-1.957031-10.425781l-55.046875-37.648437c-24.453125-16.722656-57.78125-10.46875-74.503906 13.988281-18.292969 26.75-20.011719 28.757813-23.839844 36.8125l-16.550781 24.203125c-26.34375 38.519531-16.492187 91.011719 22.03125 117.359375l93.757813 64.117187c38.949218 26.636719 92.269531 16.585938 118.871093-22.3125 33.5625-49.082031 3.8125-3.621093 41.597657-58.875 4.921874-7.195312 7.949218-15.304687 8.972656-23.71875l36.304687-53.089843c5.828125-8.523438 5.414063-19.328125-.085937-27.265625l65.167968-95.289063c2.339844-3.417969 1.460938-8.085937-1.957031-10.425781-3.417969-2.335938-8.085937-1.460938-10.425781 1.957031l-64.265625 93.96875-18.625-12.738281c25.792969-37.710938 157.738281-230.648438 171.519531-250.792969l18.625 12.738281-87.488281 127.925782c-2.335937 3.417968-1.460937 8.085937 1.957031 10.421875 3.421875 2.339843 8.089844 1.460937 10.425782-1.957031l88.558593-129.492188c4.089844-5.976562 2.5625-14.121094-3.417969-18.207031zm-367.269531 444.773437-93.757812-64.121094c-29.769531-20.359374-38.105469-58.984374-22.5625-89.066406.542969 28.386719 14.585937 55.523438 38.898437 72.199219.035156.027344.070313.054687.105469.078125l86.941406 59.460938c24.035157 16.4375 54.90625 20.527343 82.839844 10.164062-23.222656 26.089844-62.886719 31.511719-92.464844 11.285156zm186.324219-160.863281c.445312 2.375-.058594 4.785156-1.425781 6.78125l-26.210938 38.328125c-3.671875-11.289062-10.953125-20.90625-20.667969-27.550781l-17.234374-11.789063 19.957031-29.183594c2.625-3.835937 7.984375-5.359374 12.59375-2.363281 31.492187 21.539063 32.09375 21.007813 32.988281 25.777344zm0 0"/></svg>