<svg height="511pt" viewBox="0 -11 511.99978 511" width="511pt" xmlns="http://www.w3.org/2000/svg"><path d="m501.957031 24.070312-21.761719-14.882812c-2.554687-1.746094-6.042968-1.085938-7.792968 1.476562-4.511719 6.597657-172.84375 252.730469-177.355469 259.332032.3125.1875.628906.363281.933594.574218l29.199219 19.96875c.304687.210938.585937.4375.871093.664063 4.515625-6.597656 172.84375-252.734375 177.359375-259.335937 1.75-2.558594 1.101563-6.050782-1.453125-7.796876zm0 0" fill="#b4e1f9"/><path d="m316.996094 267.144531c18.019531-26.34375 149.621094-218.777343 172.203125-251.796875l-9.003907-6.160156c-2.554687-1.746094-6.042968-1.082031-7.792968 1.476562-4.511719 6.597657-172.839844 252.734376-177.355469 259.335938.3125.183594.628906.363281.933594.570312l29.199219 19.972657c.304687.207031.585937.4375.875.660156.46875-.6875 2.730468-3.996094 6.402343-9.363281 0 0-9.609375-6.550782-14.554687-9.910156-1.574219-1.070313-1.980469-3.214844-.90625-4.785157zm0 0" fill="#72bdf6"/><path d="m325.699219 289.785156-29.203125-19.972656c-7.546875-5.160156-17.851563-3.226562-23.011719 4.320312l-24.191406 35.375 23.421875 16.019532c14.199218 9.710937 21.25 25.957031 19.90625 41.953125l37.398437-54.683594c5.160157-7.546875 3.226563-17.851563-4.320312-23.011719zm0 0" fill="#72bdf6"/><path d="m308.527344 344.222656c-3.367188-7.304687-8.691406-13.824218-15.816406-18.691406l-16.976563-11.613281c-3.558594-2.433594-4.472656-7.292969-2.039063-10.851563l19.785157-28.933594c1.042969-1.519531 2.300781-2.800781 3.691406-3.855468l-.675781-.464844c-7.546875-5.160156-17.851563-3.226562-23.011719 4.320312l-24.195313 35.375 23.421876 16.019532c14.199218 9.710937 21.25 25.957031 19.90625 41.957031zm0 0" fill="#4b98d4"/><path d="m152.796875 434.996094-86.941406-59.457032c-33.675781-23.027343-44.804688-66.6875-28.070313-102.480468l-16.910156 24.722656c-23.984375 35.070312-14.996094 82.945312 20.074219 106.929688l93.753906 64.117187c35.566406 24.324219 84.121094 15.210937 108.445313-20.355469l16.890624-24.699218c-27.667968 29.035156-73.066406 34.597656-107.242187 11.222656zm0 0" fill="#3e4151"/><path d="m154.703125 468.828125-93.753906-64.117187c-28.5-19.488282-39.777344-54.757813-30.125-86.109376-2.03125-15.207031.171875-31.023437 6.960937-45.542968l-16.910156 24.722656c-23.984375 35.070312-14.996094 82.945312 20.074219 106.929688l93.753906 64.117187c16.457031 11.253906 35.6875 15.335937 54.015625 12.96875-11.832031-1.523437-23.492188-5.769531-34.015625-12.96875zm0 0" fill="#353744"/><path d="m272.949219 325.183594-147.375-100.785156c-21.015625-14.375-49.769531-8.890626-64.222657 12.242187l-16.933593 24.761719c-25.75 37.652344-16.273438 88.933594 21.164062 114.535156l86.941407 59.457031c37.96875 25.96875 89.917968 16.0625 116.03125-22.121093l16.273437-23.796876c14.457031-21.136718 9.136719-49.921874-11.878906-64.292968zm0 0" fill="#66697f"/><path d="m172.523438 435.394531-86.941407-59.457031c-37.4375-25.601562-46.914062-76.882812-21.164062-114.535156l16.933593-24.761719c6.949219-10.160156 17.207032-16.691406 28.316407-19.148437-17.902344-3.988282-37.277344 3.011718-48.3125 19.148437l-16.9375 24.761719c-25.75 37.652344-16.273438 88.933594 21.164062 114.535156l86.941407 59.457031c17.28125 11.820313 37.457031 16.183594 56.777343 13.855469-12.800781-1.550781-25.414062-6.082031-36.777343-13.855469zm0 0" fill="#525468"/><path d="m161.96875 327.917969c-35.351562-35.351563-92.667969-35.351563-128.019531 0-35.351563 35.351562-35.351563 92.671875 0 128.023437 35.351562 35.351563 92.667969 35.351563 128.019531 0 35.351562-35.351562 35.351562-92.671875 0-128.023437zm0 0" fill="#e4e3e1"/><path d="m54.066406 455.941406c-35.355468-35.351562-35.355468-92.667968 0-128.019531 15.113282-15.113281 34.242188-23.746094 53.953125-25.9375-26.394531-2.933594-53.828125 5.699219-74.066406 25.9375-35.355469 35.351563-35.355469 92.667969 0 128.019531 20.238281 20.238282 47.671875 28.871094 74.066406 25.9375-19.710937-2.191406-38.84375-10.824218-53.953125-25.9375zm0 0" fill="#d1d0cf"/><path d="m241.054688 346.765625-124.082032-84.859375c-3.417968-2.335938-8.085937-1.460938-10.425781 1.957031s-1.460937 8.085938 1.957031 10.425781l124.085938 84.859376c3.421875 2.339843 8.089844 1.457031 10.421875-1.957032 2.339843-3.417968 1.464843-8.085937-1.957031-10.425781zm0 0"/><path d="m91.519531 445.570312c4.132813 0 7.511719-3.378906 7.511719-7.5 0-3.457031-2.390625-6.601562-6.042969-7.359374-4.503906-.910157-8.957031 2.519531-8.957031 7.359374 0 4.195313 3.429688 7.5 7.488281 7.5zm0 0"/><path d="m117.238281 403.082031c-4.496093-.929687-8.957031 2.523438-8.957031 7.347657 0 4.113281 3.332031 7.5 7.5 7.5 4.152344 0 7.5-3.40625 7.5-7.5 0-3.507813-2.558594-6.699219-6.042969-7.347657zm0 0"/><path d="m124.210938 436.21875c-3.644532.761719-6.039063 3.910156-6.039063 7.351562 0 4.136719 3.386719 7.507813 7.5 7.507813 3.4375 0 6.597656-2.371094 7.355469-6.039063 1.035156-5.464843-3.785156-9.835937-8.816406-8.820312zm0 0"/><path d="m142.421875 415.9375c0 4.003906 3.238281 7.5 7.496094 7.5 4.085937 0 7.5-3.308594 7.5-7.5 0-4.734375-4.355469-8.300781-8.957031-7.347656-3.53125.660156-6.039063 3.863281-6.039063 7.347656zm0 0"/><path d="m141.488281 375.441406c-4.621093-.914062-8.960937 2.621094-8.960937 7.359375 0 4.207031 3.457031 7.5 7.5 7.5 4.074218 0 7.5-3.324219 7.5-7.5 0-3.363281-2.285156-6.578125-6.039063-7.359375zm0 0"/><path d="m506.289062 17.675781-21.761718-14.886719c-2.890625-1.976562-6.378906-2.7070308-9.8125-2.0625-3.4375.648438-6.421875 2.59375-8.394532 5.480469-4.175781 6.105469-149.109374 218.03125-173.476562 253.664063-9.316406-2.234375-19.597656 1.257812-25.453125 9.820312l-19.957031 29.1875-117.761719-80.535156c-24.394531-16.6875-57.816406-10.410156-74.496094 13.984375-39.796875 58.191406-5.550781 10.066406-40.390625 61.011719-14.570312 21.308594-18.570312 47.464844-11.109375 72.105468-9.113281 32.941407-.773437 69.746094 25.074219 95.59375 11.992188 11.996094 26.964844 20.703126 43.292969 25.183594 4 1.101563 8.121093-1.253906 9.214843-5.246094 1.097657-3.996093-1.25-8.121093-5.246093-9.21875-13.824219-3.792968-26.496094-11.167968-36.65625-21.324218-50.882813-50.886719-17.316407-141.078125 59.03125-141.726563 52.902343.1875 94.988281 50.074219 79.25 106.761719-9.171875 30.855469-36.03125 54.585938-69.515625 58.648438-4.109375.496093-7.039063 4.234374-6.539063 8.347656.496094 4.09375 4.214844 7.042968 8.347657 6.542968 10.582031-1.285156 20.675781-4.214843 30.050781-8.640624 37.984375 19.445312 85 7.894531 109.457031-27.867188l16.515625-24.152344c6.132813-6.507812 7.582031-9.128906 25.082031-34.71875 4.921875-7.195312 7.945313-15.300781 8.96875-23.71875l36.304688-53.085937c5.78125-8.449219 5.417968-19.3125-.082032-27.273438l66.65625-97.464843c2.339844-3.417969 1.460938-8.085938-1.957031-10.425782-3.417969-2.335937-8.085937-1.460937-10.425781 1.957032l-65.757812 96.152343-18.011719-12.320312-.613281-.417969c25.777343-37.691406 157.714843-230.613281 171.511718-250.785156l18.625 12.738281c-7.179687 10.496094-46.402344 67.847656-85.988281 125.730469-2.335937 3.421875-1.460937 8.085937 1.957031 10.425781 3.421875 2.335937 8.089844 1.460937 10.425782-1.957031 42.628906-62.332032 84.835937-124.046875 87.0625-127.300782 4.085937-5.976562 2.558593-14.121093-3.421876-18.207031zm-491.269531 321.972657c.183594-10.523438 2.78125-20.898438 7.703125-30.40625.113282 5.757812.839844 11.910156 2.039063 17.417968-3.71875 4.191406-7.160157 8.886719-9.742188 12.988282zm140.878907 131.234374c7.199218-5.289062 13.3125-11.226562 18.539062-17.699218 18.082031 5.320312 38.003906 5.046875 57-1.988282-18.890625 21.097657-48.992188 28.785157-75.539062 19.6875zm129.347656-104.234374c-.003906.039062.003906.074218 0 .113281-.566406 6.53125-2.792969 12.839843-6.59375 18.398437-16.96875 24.8125-24.519532 39.804688-48.15625 50.234375-14.636719 6.453125-31.136719 8.175781-47.074219 4.613281 8.265625-14.5625 12.667969-31.085937 12.667969-48.285156 0-7.109375-.757813-14.097656-2.226563-20.886718l15.660157 10.707031c3.414062 2.335937 8.082031 1.460937 10.421874-1.957031 2.339844-3.417969 1.464844-8.085938-1.957031-10.425782l-32.785156-22.421875c-28.667969-55.375-99.78125-69.402343-147.191406-32.507812-2.863281-31.625 12.542969-48.578125 29.542969-73.4375 12.015624-17.566407 36.082031-22.085938 53.652343-10.070313l147.375 100.789063c.015625.011719.03125.023437.046875.035156 11.335938 7.777344 17.785156 21.1875 16.617188 35.101563zm36.902344-70.4375c3.628906 2.9375 4.457031 8.226562 1.78125 12.144531l-26.210938 38.328125c-3.800781-11.671875-11.3125-21.148438-20.671875-27.554688l-17.230469-11.785156 19.957032-29.183594c2.644531-3.863281 8.019531-5.339844 12.589843-2.363281 8.128907 5.5625 28.886719 19.734375 29.785157 20.414063zm0 0"/></svg>