<svg height="511pt" viewBox="-65 0 511 511.998" width="511pt" xmlns="http://www.w3.org/2000/svg"><path d="m191.214844 273.6875c-15.324219 0-28.789063-4.207031-39.800782-11.242188v38.195313l39.628907 48.921875 39.632812-48.921875v-39.246094c-11.226562 7.742188-24.820312 12.292969-39.460937 12.292969zm0 0" fill="#e8956b"/><path d="m173.421875 303.121094c-1.296875-1.605469-2.007813-3.605469-2.007813-5.671875v-26.28125c-7.324218-1.933594-14.027343-4.90625-20-8.726563v38.199219l39.628907 48.921875 10.003906-12.347656zm0 0" fill="#db845e"/><path d="m335.519531 338.246094-104.84375-40.605469-39.632812 48.921875-39.628907-48.921875-104.738281 40.605469s-38.777343 15.941406-38.777343 60.148437v93.121094c0 7.285156 5.90625 13.191406 13.191406 13.191406h342.472656c5.929688 0 10.738281-4.808593 10.738281-10.738281v-95.574219c0-44.207031-38.78125-60.148437-38.78125-60.148437zm0 0" fill="#4b98d4"/><path d="m27.898438 387.394531c0-26.339843 13.765624-42.640625 24.894531-51.519531l-6.117188 2.371094s-38.777343 15.941406-38.777343 60.148437v93.121094c0 7.285156 5.90625 13.191406 13.191406 13.191406h6.808594zm0 0" fill="#2472b2"/><path d="m289.40625 166.34375c-2.535156 7.253906-10.335938 12.089844-18.597656 9.972656l-10.914063-2.539062c0 39.082031.015625 32.476562-.042969 34.914062 18.386719 2.78125 33.789063-10.503906 33.789063-26.820312 0-5.320313-1.539063-11.308594-4.234375-15.527344zm0 0" fill="#e8956b"/><path d="m280.9375 175.5c-3.023438 1.339844-6.53125 1.738281-10.128906.816406l-10.914063-2.539062c0 38.992187.015625 32.496094-.042969 34.914062 7.914063 1.195313 15.269532-.585937 21.085938-4.304687zm0 0" fill="#db845e"/><path d="m120.519531 173.714844c-3.761719.976562-8.074219 1.875-10.914062 2.605468-8.085938 2.070313-15.730469-2.519531-18.429688-9.515624-2.753906 4.050781-4.402343 9.84375-4.402343 15.070312 0 16.292969 15.367187 29.601562 33.785156 26.816406-.054688-2.371094-.039063 3.871094-.039063-34.976562zm0 0" fill="#e8956b"/><path d="m120.519531 205.035156c-8.296875-4.820312-13.742187-13.460937-13.742187-23.160156 0-1.6875.1875-3.429688.511718-5.15625-7.195312.746094-13.675781-3.59375-16.113281-9.914062-2.753906 4.050781-4.402343 9.84375-4.402343 15.070312 0 16.292969 15.367187 29.601562 33.785156 26.816406-.042969-1.796875-.039063-.304687-.039063-3.65625zm0 0" fill="#db845e"/><path d="m190.226562 30.285156c3.859376 0 7.652344.242188 11.378907.6875v-11.785156c0-6.339844-5.09375-11.480469-11.378907-11.480469-6.285156 0-11.378906 5.140625-11.378906 11.480469v11.785156c3.722656-.445312 7.519532-.6875 11.378906-.6875zm0 0" fill="#e4e3e1"/><path d="m196.015625 19.1875c0-2.882812 1.058594-5.507812 2.792969-7.523438-2.085938-2.417968-5.152344-3.957031-8.582032-3.957031-6.285156 0-11.378906 5.140625-11.378906 11.480469v11.785156c3.726563-.445312 7.519532-.6875 11.378906-.6875 1.945313 0 3.875.0625 5.789063.179688zm0 0" fill="#d1d0cf"/><path d="m283.558594 115.402344c-1.847656-26.617188-14.40625-51.503906-35.203125-67.992188-15.945313-12.644531-36.042969-20.152344-58.148438-20.152344-22.101562 0-42.199219 7.507813-58.140625 20.152344-20.804687 16.496094-33.363281 41.40625-35.1875 68.039063l-1.261718 18.355469 31.402343-3.273438c41.964844-4.375 84.445313-4.375 126.410157 0l31.402343 3.273438zm0 0" fill="#72bdf6"/><path d="m116.921875 108.445312c1.828125-26.632812 14.382813-51.539062 35.1875-68.039062 5.328125-4.222656 11.128906-7.859375 17.304687-10.847656-13.902343 3.121094-26.578124 9.308594-37.347656 17.847656-20.804687 16.5-33.363281 41.40625-35.191406 68.039062l-1.257812 18.359376 20.148437-2.101563zm0 0" fill="#4b98d4"/><path d="m233.109375 128.769531c-.484375-17.699219-.472656-21.328125-1.222656-28.15625-3.554688-32.28125-12.472657-58.53125-24.246094-71.738281-5.636719-1.050781-11.457031-1.617188-17.433594-1.617188-5.980469 0-11.808593.566407-17.453125 1.617188-11.765625 13.207031-20.679687 39.453125-24.234375 71.726562-.742187 6.753907-.730469 10.175782-1.21875 28.171876 28.550781-2.015626 57.257813-2.015626 85.808594-.003907zm0 0" fill="#4b98d4"/><path d="m168.492188 100.867188c3.027343-27.75 10.019531-51.070313 19.375-65.511719 2.738281-4.222657 7.261718-7.003907 12.265624-7.539063.027344-.003906.050782-.007812.078126-.007812-3.285157-.351563-6.617188-.550782-10.003907-.550782-5.980469 0-11.808593.566407-17.453125 1.617188-11.796875 13.246094-20.726562 39.597656-24.261718 71.992188-.710938 6.523437-.699219 9.914062-1.191407 27.90625 6.671875-.46875 13.347657-.820313 20.03125-1.070313.457031-16.878906.453125-20.359375 1.160157-26.835937zm0 0" fill="#2472b2"/><path d="m200.246094 127.351562c10.964844.179688 21.925781.648438 32.867187 1.417969l-.03125-1.070312c-10.941406-.40625-21.890625-.527344-32.835937-.347657zm0 0" fill="#2472b2"/><path d="m253.730469 171.941406c-60.734375-15.5625-108.1875-4.992187-134.214844 1.773438v33.292968c0 36.417969 28.535156 69.679688 71.699219 69.679688 38.421875 0 69.679687-31.257812 69.679687-69.679688v-33.230468zm0 0" fill="#f0a479"/><path d="m139.519531 207.007812v-37.949218c-7.628906 1.527344-14.324219 3.183594-20 4.65625v33.292968c0 36.417969 28.535157 69.679688 71.695313 69.679688 3.273437 0 6.488281-.242188 9.640625-.683594-37.300781-4.84375-61.335938-35.582031-61.335938-68.996094zm0 0" fill="#e8956b"/><path d="m289.972656 159.261719-5.140625-26.550781c-79.476562-8.214844-98.175781-9.414063-189.253906 0l-5.140625 26.550781c-2.175781 11.230469 8.085938 20.894531 19.167969 18.054687 22.503906-5.765625 74.621093-22.1875 144.125-4.375l17.078125 4.375c11.078125 2.839844 21.339844-6.824218 19.164062-18.054687zm0 0" fill="#e4e3e1"/><path d="m110.4375 159.261719 5.433594-28.582031c-6.355469.609374-13.097656 1.289062-20.292969 2.03125l-5.140625 26.550781c-2.175781 11.230469 8.085938 20.894531 19.167969 18.054687 2.253906-.578125 4.820312-1.265625 7.660156-2.011718-5.03125-3.277344-8.113281-9.386719-6.828125-16.042969zm0 0" fill="#d1d0cf"/><path d="m238.898438 371.699219 29.636718-59.394531-37.859375-14.664063-39.632812 48.921875 38.640625 27.441406c3.128906 2.222656 7.5 1.125 9.214844-2.304687zm0 0" fill="#72bdf6"/><path d="m143.246094 371.699219-29.636719-59.394531 37.859375-14.664063 39.628906 48.921875-38.636718 27.441406c-3.128907 2.222656-7.5 1.125-9.214844-2.304687zm0 0" fill="#72bdf6"/><path d="m44.066406 331.046875c-.046875.015625-.09375.035156-.140625.054687-1.773437.730469-43.425781 18.414063-43.425781 67.085938v93.121094c0 11.40625 9.28125 20.6875 20.6875 20.6875h152.511719c4.144531 0 7.5-3.355469 7.5-7.5 0-4.140625-3.355469-7.5-7.5-7.5h-95.898438v-77.234375c0-4.144531-3.355469-7.5-7.5-7.5s-7.5 3.355469-7.5 7.5v77.234375h-41.609375c-3.136718 0-5.691406-2.550782-5.691406-5.6875v-93.121094c0-38.078125 32.148438-52.367188 34.082031-53.191406l60.464844-23.441406 26.589844 53.285156c3.75 7.519531 13.367187 9.972656 20.265625 5.070312l26.796875-19.03125v58.878906c0 4.144532 3.359375 7.503907 7.5 7.503907 4.144531 0 7.5-3.359375 7.5-7.503907v-58.839843l26.742187 18.992187c6.898438 4.898438 16.511719 2.460938 20.269532-5.070312l26.585937-53.285156 60.511719 23.4375c2.125.90625 34.089844 15.222656 34.089844 53.191406v25.292968c0 4.140626 3.359374 7.5 7.503906 7.5 4.140625 0 7.5-3.359374 7.5-7.5v-25.292968c0-48.671875-41.652344-66.355469-43.429688-67.082032-.046875-.023437-.09375-.039062-.140625-.058593l-100.050781-38.746094v-24.308594c15.980469-12.296875 27.023438-30.695312 29.609375-51.6875 19.160156-1.007812 33.351563-16.394531 33.351563-34.636719 0-5.453124-1.296876-10.773437-3.734376-15.582031.488282-2.75.484376-5.609375-.066406-8.453125-5.976562-30.851562-4.734375-21.496094-6.300781-43.890625-3.253906-46.480469-36.640625-84.273437-81.949219-92.625v-2.234375c0-10.410156-8.472656-18.878906-18.882812-18.878906s-18.878906 8.46875-18.878906 18.878906v2.234375c-15.996094 2.949219-30.925782 9.652344-43.898438 19.847657-22.175781 17.429687-36.035156 43.976562-38.035156 72.828124-1.480469 21.414063-.183594 12.15625-6.320313 43.839844-.582031 3.003906-.554687 6.023438.019531 8.914063-2.496093 4.695312-3.820312 9.855469-3.820312 15.125 0 18.214843 14.160156 33.621093 33.34375 34.632812 2.59375 21.230469 13.828125 40.359375 31.296875 52.898438v23.101562zm147.105469 3.359375-32.15625-39.699219v-17.101562c19.894531 8.371093 43.785156 8.808593 64.261719-.5625v17.734375zm67.074219-18.289062-25.308594 50.71875-30.933594-21.96875 31.160156-38.464844zm10.25-114.921876v-16.960937c6.625 1.699219 12.511718.859375 17.738281-2.121094-.21875 9.609375-7.382813 17.859375-17.738281 19.082031zm7.679687-86.410156.652344 9.339844c-24.105469-2.492188-27.042969-2.835938-36.304687-3.585938l-.269532-9.738281c-.5625-20.261719-5.9375-49.101562-15.507812-69.398437 30.699218 13.230468 49.242187 42.070312 51.429687 73.382812zm-81.984375-95.328125c-2.605468-.101562-5.160156-.101562-7.761718 0 0-5.945312 7.761718-5.953125 7.761718 0zm-17.371094 15.964844c8.425782-1.300781 17.707032-1.429687 26.964844-.003906 13.722656 17.359375 20.867188 53.847656 21.472656 75.800781l.230469 8.292969c-9.117187-.414063-29.980469-2.242188-70.359375 0 .230469-8.5.261719-12.882813.949219-19.09375 3.164063-28.5 10.851563-52.480469 20.742187-64.996094zm-72.359374 79.402344c2.183593-31.507813 20.863281-60.246094 51.394531-73.414063-7.027344 14.914063-12.175781 34.746094-14.6875 57.351563-.777344 7.015625-.804688 11.824219-1.078125 21.78125-9.226563.746093-11.714844 1.046875-36.273438 3.585937zm7.65625 86.371093c-10.371094-1.222656-17.546876-9.503906-17.738282-19.144531 5.082032 2.902344 11.097656 3.902344 17.738282 2.183594zm-6.15625-31.09375c-4.851563.101563-9.070313-4.382812-8.054688-9.621093l4.082031-21.082031c79.398438-8.089844 101.546875-7.726563 176.640625-.003907 4.433594 22.882813 5.105469 23.257813 3.183594 26.605469-.867188 1.503906-2.261719 2.816406-4.078125 3.558594-4.667969 1.855468-8.054687-1.453125-34.492187-6.96875-75.273438-15.648438-126.378907 7.265625-137.28125 7.511718zm21.199218 38.199219c-.054687-1.804687-.039062 1.757813-.039062-27.949219 42.445312-10.40625 82.113281-11.300781 126.375.039063 0 30.578125.015625 25.59375-.039063 27.972656-1.101562 44.316407-46.996093 73.5-89.253906 55.140625-22.839844-10.011718-36.601563-32.703125-37.042969-55.203125zm21.980469 98.117188 31.167969 38.472656-30.898438 21.945313-25.308594-50.71875zm162.960937 105.84375c-4.144531 0-7.5 3.355469-7.5 7.5v77.234375h-95.898437c-4.144531 0-7.5 3.359375-7.5 7.5 0 4.144531 3.355469 7.5 7.5 7.5h154.960937c10.058594 0 18.238282-8.179688 18.238282-18.234375v-35.285157c0-4.140624-3.359375-7.5-7.5-7.5-4.144532 0-7.503906 3.359376-7.503906 7.5v35.285157c0 1.785156-1.449219 3.234375-3.234376 3.234375h-44.0625v-77.234375c0-4.144531-3.355468-7.5-7.5-7.5zm0 0"/></svg>